M48
; DRILL file {KiCad (7.0.0)} date Mon Jun 26 10:33:41 2023
; FORMAT={-:-/ absolute / inch / decimal}
; #@! TF.CreationDate,2023-06-26T10:33:41+12:00
; #@! TF.GenerationSoftware,Kicad,Pcbnew,(7.0.0)
; #@! TF.FileFunction,Plated,1,4,PTH
FMAT,2
INCH
; #@! TA.AperFunction,Plated,PTH,ViaDrill
T1C0.0079
; #@! TA.AperFunction,Plated,PTH,ViaDrill
T2C0.0157
; #@! TA.AperFunction,Plated,PTH,ComponentDrill
T3C0.0374
; #@! TA.AperFunction,Plated,PTH,ComponentDrill
T4C0.0394
; #@! TA.AperFunction,Plated,PTH,ComponentDrill
T5C0.0469
; #@! TA.AperFunction,Plated,PTH,ComponentDrill
T6C0.0906
%
G90
G05
T1
X4.7807Y-4.1843
X4.8205Y-4.2299
X4.8224Y-3.9917
X4.8827Y-3.9925
X4.9374Y-3.7307
X4.9378Y-3.6705
X4.9417Y-4.2232
X4.9425Y-4.1469
X4.9807Y-4.1201
X4.9839Y-3.3327
X4.9839Y-3.7823
X4.9839Y-4.222
X4.9874Y-3.8992
X5.0343Y-3.6543
X5.0866Y-4.2709
X5.0894Y-3.3917
X5.1339Y-3.7819
X5.1378Y-4.3898
X5.1417Y-4.7941
X5.1455Y-4.8817
X5.174Y-4.6957
X5.196Y-5.1114
X5.1972Y-5.2791
X5.2067Y-4.9724
X5.2067Y-5.0276
X5.2071Y-5.0
X5.2276Y-4.6953
X5.2366Y-4.5031
X5.3063Y-4.6354
X5.3083Y-3.7303
X5.3134Y-3.6709
X5.3264Y-5.2264
X5.3283Y-5.1661
X5.3315Y-4.4402
X5.3406Y-4.5406
X5.3594Y-3.3303
X5.3933Y-4.5409
X5.3937Y-4.8622
X5.3937Y-4.9016
X5.3937Y-4.9409
X5.3937Y-4.9803
X5.4008Y-3.8264
X5.4083Y-3.6516
X5.424Y-4.4083
X5.424Y-4.4689
X5.4331Y-4.8622
X5.4331Y-4.9016
X5.4331Y-4.9409
X5.4331Y-4.9803
X5.439Y-5.1933
X5.4406Y-5.2626
X5.4559Y-5.4051
X5.4571Y-4.5409
X5.463Y-3.3906
X5.4724Y-4.8622
X5.4724Y-4.9016
X5.4724Y-4.9409
X5.4724Y-4.9803
X5.4858Y-4.6358
X5.489Y-4.024
X5.5354Y-4.7402
X5.5406Y-5.1935
X5.5787Y-5.2268
X5.5866Y-5.2843
X5.5866Y-5.4051
X5.5894Y-4.3839
X5.5902Y-5.1894
X5.5957Y-5.0827
X5.6898Y-4.9406
X5.6921Y-5.2236
X5.6969Y-3.6701
X5.6972Y-3.7303
X5.7264Y-5.135
X5.7268Y-5.0823
X5.7421Y-3.3323
X5.7429Y-4.9421
X5.7488Y-4.6606
X5.7843Y-3.8264
X5.7925Y-3.6528
X5.8232Y-4.6146
X5.8311Y-4.778
X5.8335Y-4.4382
X5.8374Y-5.0295
X5.8382Y-4.9756
X5.8469Y-3.3906
X5.8831Y-4.7039
X5.8933Y-4.5094
X5.9272Y-4.4079
X6.0181Y-5.0969
X6.137Y-5.3953
X6.1512Y-4.0417
X6.1516Y-4.2402
X6.1969Y-4.626
X6.1972Y-4.5673
X6.2402Y-3.8858
X6.2917Y-4.5354
X6.3343Y-4.6886
X6.3807Y-4.8429
X6.4669Y-4.0421
X6.4669Y-4.2366
X6.4701Y-4.6516
X6.5307Y-4.8457
X6.5551Y-3.8858
X6.6063Y-5.0276
X6.7815Y-4.0402
X6.7827Y-4.2406
X6.8701Y-3.8858
X6.9575Y-3.361
T2
X5.0339Y-3.5748
X5.0894Y-3.828
X5.4083Y-3.5752
X5.461Y-3.8366
X5.7917Y-3.5756
X5.8457Y-3.8295
X6.1315Y-3.4118
X6.1906Y-3.4118
X6.3796Y-3.7366
X6.6579Y-3.5252
X6.6772Y-3.374
X6.8386Y-3.6024
X6.8622Y-3.5354
X6.8858Y-3.6024
X6.9528Y-3.5157
T3
X6.5059Y-5.1265
X6.5059Y-5.2052
X6.6043Y-5.1265
X6.6043Y-5.2052
T4
X4.872Y-3.3071
X4.872Y-3.4071
X4.872Y-3.5071
X5.2461Y-3.3071
X5.2461Y-3.4071
X5.2461Y-3.5071
X5.6299Y-3.3055
X5.6299Y-3.4055
X5.6299Y-3.5055
T5
X5.6581Y-2.7953
X5.6581Y-3.0472
X5.823Y-2.7953
X5.823Y-3.0472
X5.988Y-2.7953
X5.988Y-3.0472
X6.153Y-2.7953
X6.153Y-3.0472
T6
X6.3189Y-5.3178
X6.7913Y-5.3178
T0
M30
