%TF.GenerationSoftware,KiCad,Pcbnew,(7.0.0)*%
%TF.CreationDate,2023-06-27T20:49:59+12:00*%
%TF.ProjectId,VehicleVCU_PCB,56656869-636c-4655-9643-555f5043422e,rev?*%
%TF.SameCoordinates,Original*%
%TF.FileFunction,Legend,Bot*%
%TF.FilePolarity,Positive*%
%FSLAX46Y46*%
G04 Gerber Fmt 4.6, Leading zero omitted, Abs format (unit mm)*
G04 Created by KiCad (PCBNEW (7.0.0)) date 2023-06-27 20:49:59*
%MOMM*%
%LPD*%
G01*
G04 APERTURE LIST*
%ADD10C,0.150000*%
%ADD11C,2.990000*%
%ADD12R,1.785000X1.785000*%
%ADD13C,1.785000*%
%ADD14R,1.700000X1.700000*%
%ADD15O,1.700000X1.700000*%
%ADD16R,1.600000X1.600000*%
%ADD17C,1.600000*%
%ADD18C,4.000000*%
G04 APERTURE END LIST*
D10*
G36*
X178655861Y-69070000D02*
G01*
X178796057Y-69070000D01*
X178796057Y-68223698D01*
X178938206Y-68310893D01*
X178938206Y-68166057D01*
X178796057Y-68071290D01*
X178655861Y-68071290D01*
X178655861Y-69070000D01*
G37*
G36*
X178448988Y-68922965D02*
G01*
X178302198Y-68922965D01*
X178302198Y-69070000D01*
X178448988Y-69070000D01*
X178448988Y-68922965D01*
G37*
G36*
X178448988Y-68349972D02*
G01*
X178302198Y-68349972D01*
X178302198Y-68497006D01*
X178448988Y-68497006D01*
X178448988Y-68349972D01*
G37*
G36*
X177036775Y-68532177D02*
G01*
X177036775Y-68706566D01*
X177036944Y-68720384D01*
X177037451Y-68733994D01*
X177038295Y-68747396D01*
X177039477Y-68760590D01*
X177040997Y-68773576D01*
X177042855Y-68786353D01*
X177045050Y-68798923D01*
X177047583Y-68811285D01*
X177050454Y-68823439D01*
X177053663Y-68835385D01*
X177057209Y-68847123D01*
X177061093Y-68858653D01*
X177065315Y-68869975D01*
X177069874Y-68881089D01*
X177074771Y-68891995D01*
X177080006Y-68902693D01*
X177085552Y-68913137D01*
X177091379Y-68923282D01*
X177097489Y-68933127D01*
X177103881Y-68942673D01*
X177110556Y-68951919D01*
X177117513Y-68960865D01*
X177124753Y-68969512D01*
X177132274Y-68977859D01*
X177140079Y-68985906D01*
X177148165Y-68993655D01*
X177156535Y-69001103D01*
X177165186Y-69008252D01*
X177174120Y-69015101D01*
X177183336Y-69021651D01*
X177192835Y-69027901D01*
X177202616Y-69033852D01*
X177212637Y-69039471D01*
X177222854Y-69044728D01*
X177233268Y-69049622D01*
X177243878Y-69054154D01*
X177254685Y-69058324D01*
X177265688Y-69062130D01*
X177276888Y-69065575D01*
X177288285Y-69068656D01*
X177299878Y-69071375D01*
X177311667Y-69073732D01*
X177323653Y-69075726D01*
X177335836Y-69077357D01*
X177348215Y-69078626D01*
X177360790Y-69079533D01*
X177373563Y-69080076D01*
X177386531Y-69080258D01*
X177399651Y-69080088D01*
X177412570Y-69079578D01*
X177425289Y-69078729D01*
X177437807Y-69077540D01*
X177450125Y-69076012D01*
X177462243Y-69074144D01*
X177474160Y-69071936D01*
X177485877Y-69069389D01*
X177497394Y-69066502D01*
X177508710Y-69063275D01*
X177519826Y-69059709D01*
X177530741Y-69055803D01*
X177541457Y-69051557D01*
X177551971Y-69046972D01*
X177562286Y-69042047D01*
X177572400Y-69036782D01*
X177582243Y-69031177D01*
X177591806Y-69025292D01*
X177601088Y-69019125D01*
X177610090Y-69012679D01*
X177618811Y-69005952D01*
X177627252Y-68998944D01*
X177635412Y-68991656D01*
X177643292Y-68984087D01*
X177650891Y-68976238D01*
X177658209Y-68968108D01*
X177665248Y-68959698D01*
X177672005Y-68951007D01*
X177678483Y-68942036D01*
X177684679Y-68932785D01*
X177690595Y-68923252D01*
X177696231Y-68913440D01*
X177701555Y-68903358D01*
X177706535Y-68893080D01*
X177711172Y-68882605D01*
X177715465Y-68871934D01*
X177719415Y-68861066D01*
X177723022Y-68850002D01*
X177726285Y-68838741D01*
X177729204Y-68827283D01*
X177731780Y-68815629D01*
X177734012Y-68803779D01*
X177735902Y-68791732D01*
X177737447Y-68779488D01*
X177738649Y-68767048D01*
X177739508Y-68754411D01*
X177740023Y-68741578D01*
X177740195Y-68728548D01*
X177740195Y-68433991D01*
X177740026Y-68420174D01*
X177739519Y-68406567D01*
X177738675Y-68393170D01*
X177737493Y-68379983D01*
X177735973Y-68367006D01*
X177734116Y-68354238D01*
X177731920Y-68341681D01*
X177729387Y-68329333D01*
X177726516Y-68317195D01*
X177723308Y-68305268D01*
X177719761Y-68293550D01*
X177715877Y-68282042D01*
X177711656Y-68270743D01*
X177707096Y-68259655D01*
X177702199Y-68248777D01*
X177696964Y-68238108D01*
X177691419Y-68227694D01*
X177685591Y-68217577D01*
X177679481Y-68207757D01*
X177673089Y-68198236D01*
X177666414Y-68189012D01*
X177659457Y-68180085D01*
X177652218Y-68171457D01*
X177644696Y-68163126D01*
X177636892Y-68155093D01*
X177628805Y-68147357D01*
X177620436Y-68139919D01*
X177611784Y-68132779D01*
X177602850Y-68125936D01*
X177593634Y-68119391D01*
X177584135Y-68113144D01*
X177574354Y-68107194D01*
X177564334Y-68101575D01*
X177554120Y-68096318D01*
X177543711Y-68091423D01*
X177533107Y-68086892D01*
X177522309Y-68082722D01*
X177511316Y-68078915D01*
X177500129Y-68075471D01*
X177488747Y-68072390D01*
X177477170Y-68069670D01*
X177465399Y-68067314D01*
X177453433Y-68065320D01*
X177441272Y-68063688D01*
X177428917Y-68062420D01*
X177416367Y-68061513D01*
X177403623Y-68060969D01*
X177390683Y-68060788D01*
X177379990Y-68060932D01*
X177369404Y-68061364D01*
X177358924Y-68062085D01*
X177348551Y-68063093D01*
X177338286Y-68064390D01*
X177328127Y-68065974D01*
X177318075Y-68067847D01*
X177308129Y-68070008D01*
X177298291Y-68072457D01*
X177288559Y-68075195D01*
X177278935Y-68078220D01*
X177269417Y-68081533D01*
X177260006Y-68085135D01*
X177250702Y-68089025D01*
X177241504Y-68093203D01*
X177232414Y-68097669D01*
X177223439Y-68102368D01*
X177214649Y-68107309D01*
X177206044Y-68112489D01*
X177197625Y-68117910D01*
X177189390Y-68123572D01*
X177181341Y-68129474D01*
X177173476Y-68135616D01*
X177165797Y-68141999D01*
X177158303Y-68148622D01*
X177150993Y-68155486D01*
X177143869Y-68162590D01*
X177136930Y-68169934D01*
X177130176Y-68177519D01*
X177123608Y-68185344D01*
X177117224Y-68193410D01*
X177111025Y-68201716D01*
X177105043Y-68210225D01*
X177099309Y-68218897D01*
X177093823Y-68227734D01*
X177088586Y-68236734D01*
X177083596Y-68245899D01*
X177078854Y-68255228D01*
X177074360Y-68264721D01*
X177070115Y-68274378D01*
X177066117Y-68284200D01*
X177062368Y-68294185D01*
X177058866Y-68304334D01*
X177055613Y-68314648D01*
X177052607Y-68325126D01*
X177049850Y-68335767D01*
X177047341Y-68346573D01*
X177045080Y-68357543D01*
X177196755Y-68357543D01*
X177200136Y-68345247D01*
X177204051Y-68333394D01*
X177208501Y-68321983D01*
X177213485Y-68311015D01*
X177219004Y-68300490D01*
X177225056Y-68290407D01*
X177231643Y-68280767D01*
X177238764Y-68271570D01*
X177246313Y-68262804D01*
X177254182Y-68254579D01*
X177262372Y-68246897D01*
X177270882Y-68239757D01*
X177279713Y-68233159D01*
X177288865Y-68227102D01*
X177298337Y-68221588D01*
X177308129Y-68216615D01*
X177318128Y-68212150D01*
X177328218Y-68208280D01*
X177338400Y-68205006D01*
X177348674Y-68202327D01*
X177359039Y-68200243D01*
X177369495Y-68198755D01*
X177380044Y-68197862D01*
X177390683Y-68197564D01*
X177402137Y-68197824D01*
X177413324Y-68198603D01*
X177424244Y-68199902D01*
X177434899Y-68201720D01*
X177445287Y-68204058D01*
X177455410Y-68206915D01*
X177465266Y-68210292D01*
X177474856Y-68214188D01*
X177484179Y-68218604D01*
X177493237Y-68223539D01*
X177499127Y-68227117D01*
X177507687Y-68232867D01*
X177515874Y-68239033D01*
X177523687Y-68245615D01*
X177531127Y-68252614D01*
X177538193Y-68260029D01*
X177544886Y-68267861D01*
X177551205Y-68276109D01*
X177557150Y-68284774D01*
X177562722Y-68293855D01*
X177567921Y-68303353D01*
X177571179Y-68309916D01*
X177575718Y-68320054D01*
X177579811Y-68330501D01*
X177583458Y-68341257D01*
X177586658Y-68352322D01*
X177589411Y-68363697D01*
X177591718Y-68375380D01*
X177593579Y-68387373D01*
X177594993Y-68399675D01*
X177595960Y-68412286D01*
X177596481Y-68425206D01*
X177596580Y-68433991D01*
X177596580Y-68728548D01*
X177596353Y-68740540D01*
X177595670Y-68752244D01*
X177594532Y-68763661D01*
X177592939Y-68774790D01*
X177590891Y-68785631D01*
X177588388Y-68796185D01*
X177585430Y-68806451D01*
X177582017Y-68816430D01*
X177578149Y-68826120D01*
X177573825Y-68835524D01*
X177570690Y-68841632D01*
X177565601Y-68850511D01*
X177560134Y-68859012D01*
X177554290Y-68867135D01*
X177548067Y-68874880D01*
X177541467Y-68882247D01*
X177534489Y-68889237D01*
X177527133Y-68895849D01*
X177519399Y-68902083D01*
X177511288Y-68907939D01*
X177502798Y-68913417D01*
X177496929Y-68916859D01*
X177487824Y-68921617D01*
X177478462Y-68925907D01*
X177468842Y-68929728D01*
X177458965Y-68933082D01*
X177448829Y-68935968D01*
X177438437Y-68938386D01*
X177427786Y-68940336D01*
X177416878Y-68941818D01*
X177405713Y-68942832D01*
X177394290Y-68943378D01*
X177386531Y-68943482D01*
X177375078Y-68943239D01*
X177363891Y-68942511D01*
X177352970Y-68941299D01*
X177342316Y-68939601D01*
X177331927Y-68937417D01*
X177321805Y-68934749D01*
X177311949Y-68931596D01*
X177302359Y-68927957D01*
X177293035Y-68923833D01*
X177283978Y-68919224D01*
X177278087Y-68915882D01*
X177269484Y-68910443D01*
X177261258Y-68904565D01*
X177253409Y-68898250D01*
X177245939Y-68891496D01*
X177238846Y-68884305D01*
X177232132Y-68876676D01*
X177225795Y-68868608D01*
X177219836Y-68860103D01*
X177214254Y-68851160D01*
X177209051Y-68841779D01*
X177205792Y-68835282D01*
X177201252Y-68825168D01*
X177197159Y-68814703D01*
X177193513Y-68803885D01*
X177190313Y-68792715D01*
X177187559Y-68781193D01*
X177185252Y-68769319D01*
X177183392Y-68757093D01*
X177181978Y-68744515D01*
X177181010Y-68731585D01*
X177180490Y-68718303D01*
X177180390Y-68709253D01*
X177180390Y-68666022D01*
X177383112Y-68666022D01*
X177383112Y-68532177D01*
X177036775Y-68532177D01*
G37*
G36*
X176828681Y-68071290D02*
G01*
X176688485Y-68071290D01*
X176688485Y-69070000D01*
X176828681Y-69070000D01*
X176828681Y-68071290D01*
G37*
G36*
X176758583Y-68936643D02*
G01*
X176187055Y-68936643D01*
X176187055Y-69070000D01*
X176758583Y-69070000D01*
X176758583Y-68936643D01*
G37*
G36*
X176177529Y-68071290D02*
G01*
X176024877Y-68071290D01*
X175785275Y-68854333D01*
X175545429Y-68071290D01*
X175393021Y-68071290D01*
X175718597Y-69070000D01*
X175851709Y-69070000D01*
X176177529Y-68071290D01*
G37*
G36*
X174722330Y-68543168D02*
G01*
X174722330Y-68676280D01*
X175280181Y-68676280D01*
X175280181Y-68543168D01*
X174722330Y-68543168D01*
G37*
G36*
X174931158Y-68888527D02*
G01*
X175071353Y-68888527D01*
X175071353Y-68330921D01*
X174931158Y-68330921D01*
X174931158Y-68888527D01*
G37*
G36*
X178912072Y-70628367D02*
G01*
X178563782Y-70164061D01*
X178556420Y-70154058D01*
X178549478Y-70143957D01*
X178542956Y-70133756D01*
X178536854Y-70123456D01*
X178531172Y-70113056D01*
X178525909Y-70102558D01*
X178521066Y-70091960D01*
X178516643Y-70081263D01*
X178512693Y-70070607D01*
X178509270Y-70060136D01*
X178506373Y-70049847D01*
X178504003Y-70039741D01*
X178502160Y-70029819D01*
X178500843Y-70020080D01*
X178499938Y-70008163D01*
X178499790Y-70001151D01*
X178499790Y-69999930D01*
X178500099Y-69988946D01*
X178501027Y-69978434D01*
X178502572Y-69968395D01*
X178504736Y-69958828D01*
X178508583Y-69946807D01*
X178513529Y-69935625D01*
X178519574Y-69925283D01*
X178526718Y-69915780D01*
X178534961Y-69907117D01*
X178544158Y-69899389D01*
X178554287Y-69892692D01*
X178565346Y-69887025D01*
X178577337Y-69882388D01*
X178586941Y-69879586D01*
X178597069Y-69877365D01*
X178607721Y-69875722D01*
X178618897Y-69874660D01*
X178630596Y-69874177D01*
X178634612Y-69874145D01*
X178645857Y-69874462D01*
X178656694Y-69875415D01*
X178667123Y-69877004D01*
X178677145Y-69879228D01*
X178686758Y-69882087D01*
X178695964Y-69885582D01*
X178707604Y-69891230D01*
X178718518Y-69898008D01*
X178728708Y-69905915D01*
X178733531Y-69910293D01*
X178742476Y-69919738D01*
X178748584Y-69927438D01*
X178754177Y-69935666D01*
X178759254Y-69944422D01*
X178763817Y-69953707D01*
X178767864Y-69963519D01*
X178771396Y-69973860D01*
X178774413Y-69984728D01*
X178776914Y-69996125D01*
X178778901Y-70008050D01*
X178779448Y-70012142D01*
X178779448Y-70012875D01*
X178924528Y-70012875D01*
X178924528Y-70012142D01*
X178922871Y-70001523D01*
X178921014Y-69991099D01*
X178918956Y-69980869D01*
X178916697Y-69970834D01*
X178914239Y-69960994D01*
X178911580Y-69951348D01*
X178908720Y-69941897D01*
X178904056Y-69928086D01*
X178898940Y-69914712D01*
X178893374Y-69901776D01*
X178887357Y-69889278D01*
X178880889Y-69877218D01*
X178873970Y-69865596D01*
X178866631Y-69854446D01*
X178858901Y-69843803D01*
X178850780Y-69833667D01*
X178842268Y-69824037D01*
X178833366Y-69814913D01*
X178824073Y-69806297D01*
X178814389Y-69798187D01*
X178804315Y-69790583D01*
X178793850Y-69783486D01*
X178782995Y-69776896D01*
X178775540Y-69772784D01*
X178764020Y-69767066D01*
X178752173Y-69761910D01*
X178740000Y-69757317D01*
X178727501Y-69753286D01*
X178714675Y-69749818D01*
X178701523Y-69746912D01*
X178688045Y-69744569D01*
X178674241Y-69742788D01*
X178660110Y-69741569D01*
X178645653Y-69740913D01*
X178635833Y-69740788D01*
X178624791Y-69740908D01*
X178613951Y-69741269D01*
X178603313Y-69741870D01*
X178592877Y-69742711D01*
X178582644Y-69743793D01*
X178572613Y-69745116D01*
X178562784Y-69746679D01*
X178553157Y-69748482D01*
X178539097Y-69751637D01*
X178525491Y-69755334D01*
X178512341Y-69759571D01*
X178499645Y-69764350D01*
X178487405Y-69769669D01*
X178483426Y-69771563D01*
X178471831Y-69777532D01*
X178460769Y-69783990D01*
X178450238Y-69790938D01*
X178440241Y-69798376D01*
X178430775Y-69806303D01*
X178421842Y-69814719D01*
X178413442Y-69823625D01*
X178405573Y-69833020D01*
X178398238Y-69842905D01*
X178391434Y-69853279D01*
X178387194Y-69860467D01*
X178381302Y-69871623D01*
X178375989Y-69883199D01*
X178371255Y-69895196D01*
X178367101Y-69907614D01*
X178363527Y-69920452D01*
X178360533Y-69933711D01*
X178358118Y-69947391D01*
X178356282Y-69961492D01*
X178355026Y-69976013D01*
X178354511Y-69985928D01*
X178354254Y-69996030D01*
X178354221Y-70001151D01*
X178354221Y-70001884D01*
X178354415Y-70011862D01*
X178354994Y-70021922D01*
X178355960Y-70032064D01*
X178357313Y-70042287D01*
X178359051Y-70052591D01*
X178361177Y-70062978D01*
X178363688Y-70073446D01*
X178366586Y-70083995D01*
X178369871Y-70094626D01*
X178373541Y-70105339D01*
X178376203Y-70112526D01*
X178380477Y-70123299D01*
X178385056Y-70134004D01*
X178389940Y-70144640D01*
X178395128Y-70155207D01*
X178400622Y-70165706D01*
X178406420Y-70176136D01*
X178412523Y-70186497D01*
X178418931Y-70196789D01*
X178425643Y-70207013D01*
X178432661Y-70217168D01*
X178437508Y-70223900D01*
X178726692Y-70616643D01*
X178348848Y-70616643D01*
X178348848Y-70750000D01*
X178912072Y-70750000D01*
X178912072Y-70628367D01*
G37*
G36*
X178191067Y-70602965D02*
G01*
X178044277Y-70602965D01*
X178044277Y-70750000D01*
X178191067Y-70750000D01*
X178191067Y-70602965D01*
G37*
G36*
X178191067Y-70029972D02*
G01*
X178044277Y-70029972D01*
X178044277Y-70177006D01*
X178191067Y-70177006D01*
X178191067Y-70029972D01*
G37*
G36*
X177134717Y-70760258D02*
G01*
X177147594Y-70760078D01*
X177160275Y-70759540D01*
X177172759Y-70758643D01*
X177185046Y-70757388D01*
X177197137Y-70755774D01*
X177209032Y-70753801D01*
X177220729Y-70751469D01*
X177232231Y-70748778D01*
X177243536Y-70745729D01*
X177254644Y-70742321D01*
X177265556Y-70738554D01*
X177276271Y-70734429D01*
X177286790Y-70729945D01*
X177297112Y-70725102D01*
X177307237Y-70719900D01*
X177317166Y-70714340D01*
X177326859Y-70708420D01*
X177336274Y-70702200D01*
X177345414Y-70695681D01*
X177354276Y-70688862D01*
X177362862Y-70681744D01*
X177371171Y-70674326D01*
X177379203Y-70666609D01*
X177386959Y-70658592D01*
X177394438Y-70650275D01*
X177401640Y-70641659D01*
X177408566Y-70632743D01*
X177415215Y-70623528D01*
X177421587Y-70614013D01*
X177427682Y-70604198D01*
X177433501Y-70594084D01*
X177439043Y-70583670D01*
X177444278Y-70573003D01*
X177449176Y-70562127D01*
X177453735Y-70551044D01*
X177457957Y-70539752D01*
X177461841Y-70528253D01*
X177465387Y-70516545D01*
X177468596Y-70504630D01*
X177471467Y-70492506D01*
X177474000Y-70480175D01*
X177476195Y-70467636D01*
X177478053Y-70454888D01*
X177479573Y-70441933D01*
X177480755Y-70428770D01*
X177481599Y-70415398D01*
X177482106Y-70401819D01*
X177482274Y-70388032D01*
X177482274Y-70113991D01*
X177482106Y-70100174D01*
X177481599Y-70086567D01*
X177480755Y-70073170D01*
X177479573Y-70059983D01*
X177478053Y-70047006D01*
X177476195Y-70034238D01*
X177474000Y-70021681D01*
X177471467Y-70009333D01*
X177468596Y-69997195D01*
X177465387Y-69985268D01*
X177461841Y-69973550D01*
X177457957Y-69962042D01*
X177453735Y-69950743D01*
X177449176Y-69939655D01*
X177444278Y-69928777D01*
X177439043Y-69918108D01*
X177433501Y-69907694D01*
X177427682Y-69897577D01*
X177421587Y-69887757D01*
X177415215Y-69878236D01*
X177408566Y-69869012D01*
X177401640Y-69860085D01*
X177394438Y-69851457D01*
X177386959Y-69843126D01*
X177379203Y-69835093D01*
X177371171Y-69827357D01*
X177362862Y-69819919D01*
X177354276Y-69812779D01*
X177345414Y-69805936D01*
X177336274Y-69799391D01*
X177326859Y-69793144D01*
X177317166Y-69787194D01*
X177307237Y-69781575D01*
X177297112Y-69776318D01*
X177286790Y-69771423D01*
X177276271Y-69766892D01*
X177265556Y-69762722D01*
X177254644Y-69758915D01*
X177243536Y-69755471D01*
X177232231Y-69752390D01*
X177220729Y-69749670D01*
X177209032Y-69747314D01*
X177197137Y-69745320D01*
X177185046Y-69743688D01*
X177172759Y-69742420D01*
X177160275Y-69741513D01*
X177147594Y-69740969D01*
X177134717Y-69740788D01*
X177124025Y-69740932D01*
X177113441Y-69741364D01*
X177102966Y-69742085D01*
X177092600Y-69743093D01*
X177082343Y-69744390D01*
X177072195Y-69745974D01*
X177062155Y-69747847D01*
X177052224Y-69750008D01*
X177042402Y-69752457D01*
X177032688Y-69755195D01*
X177023084Y-69758220D01*
X177013588Y-69761533D01*
X177004201Y-69765135D01*
X176994922Y-69769025D01*
X176985753Y-69773203D01*
X176976692Y-69777669D01*
X176967778Y-69782368D01*
X176959049Y-69787309D01*
X176950505Y-69792489D01*
X176942147Y-69797910D01*
X176933973Y-69803572D01*
X176925985Y-69809474D01*
X176918181Y-69815616D01*
X176910563Y-69821999D01*
X176903130Y-69828622D01*
X176895882Y-69835486D01*
X176888819Y-69842590D01*
X176881941Y-69849934D01*
X176875248Y-69857519D01*
X176868740Y-69865344D01*
X176862418Y-69873410D01*
X176856280Y-69881716D01*
X176850328Y-69890225D01*
X176844621Y-69898897D01*
X176839161Y-69907734D01*
X176833947Y-69916734D01*
X176828979Y-69925899D01*
X176824258Y-69935228D01*
X176819782Y-69944721D01*
X176815553Y-69954378D01*
X176811569Y-69964200D01*
X176807832Y-69974185D01*
X176804341Y-69984334D01*
X176801096Y-69994648D01*
X176798098Y-70005126D01*
X176795345Y-70015767D01*
X176792839Y-70026573D01*
X176790579Y-70037543D01*
X176934193Y-70037543D01*
X176937704Y-70026037D01*
X176941765Y-70014844D01*
X176946375Y-70003964D01*
X176951535Y-69993396D01*
X176957244Y-69983142D01*
X176963503Y-69973200D01*
X176970311Y-69963572D01*
X176977669Y-69954256D01*
X176985469Y-69945303D01*
X176993606Y-69936885D01*
X177002078Y-69929000D01*
X177010886Y-69921650D01*
X177020030Y-69914834D01*
X177029509Y-69908552D01*
X177039325Y-69902805D01*
X177049476Y-69897592D01*
X177059837Y-69892898D01*
X177070283Y-69888830D01*
X177080812Y-69885387D01*
X177091425Y-69882571D01*
X177102122Y-69880380D01*
X177112903Y-69878816D01*
X177123768Y-69877877D01*
X177134717Y-69877564D01*
X177146035Y-69877824D01*
X177157091Y-69878603D01*
X177167885Y-69879902D01*
X177178417Y-69881720D01*
X177188688Y-69884058D01*
X177198696Y-69886915D01*
X177208443Y-69890292D01*
X177217927Y-69894188D01*
X177227150Y-69898604D01*
X177236111Y-69903539D01*
X177241939Y-69907117D01*
X177250369Y-69912867D01*
X177258437Y-69919033D01*
X177266145Y-69925615D01*
X177273493Y-69932614D01*
X177280479Y-69940029D01*
X177287105Y-69947861D01*
X177293371Y-69956109D01*
X177299275Y-69964774D01*
X177304820Y-69973855D01*
X177310003Y-69983353D01*
X177313258Y-69989916D01*
X177317798Y-70000054D01*
X177321891Y-70010501D01*
X177325537Y-70021257D01*
X177328737Y-70032322D01*
X177331491Y-70043697D01*
X177333798Y-70055380D01*
X177335658Y-70067373D01*
X177337072Y-70079675D01*
X177338040Y-70092286D01*
X177338560Y-70105206D01*
X177338660Y-70113991D01*
X177338660Y-70388032D01*
X177338436Y-70401029D01*
X177337767Y-70413734D01*
X177336650Y-70426148D01*
X177335088Y-70438269D01*
X177333078Y-70450099D01*
X177330623Y-70461636D01*
X177327720Y-70472882D01*
X177324371Y-70483836D01*
X177320576Y-70494498D01*
X177316334Y-70504867D01*
X177313258Y-70511618D01*
X177308315Y-70521435D01*
X177303012Y-70530827D01*
X177297347Y-70539793D01*
X177291322Y-70548335D01*
X177284937Y-70556452D01*
X177278190Y-70564143D01*
X177271084Y-70571410D01*
X177263616Y-70578251D01*
X177255788Y-70584667D01*
X177247599Y-70590659D01*
X177241939Y-70594417D01*
X177233153Y-70599611D01*
X177224105Y-70604294D01*
X177214795Y-70608467D01*
X177205223Y-70612128D01*
X177195389Y-70615279D01*
X177185293Y-70617919D01*
X177174936Y-70620047D01*
X177164316Y-70621665D01*
X177153435Y-70622772D01*
X177142291Y-70623368D01*
X177134717Y-70623482D01*
X177123604Y-70623195D01*
X177112613Y-70622337D01*
X177101744Y-70620906D01*
X177090997Y-70618902D01*
X177080373Y-70616326D01*
X177069870Y-70613178D01*
X177059490Y-70609457D01*
X177049232Y-70605163D01*
X177039138Y-70600244D01*
X177029372Y-70594768D01*
X177019934Y-70588734D01*
X177010825Y-70582144D01*
X177002043Y-70574996D01*
X176993590Y-70567291D01*
X176985465Y-70559028D01*
X176977669Y-70550209D01*
X176970311Y-70540840D01*
X176963503Y-70531051D01*
X176957244Y-70520842D01*
X176951535Y-70510214D01*
X176946375Y-70499166D01*
X176941765Y-70487698D01*
X176937704Y-70475810D01*
X176934193Y-70463503D01*
X176790579Y-70463503D01*
X176792840Y-70474502D01*
X176795349Y-70485336D01*
X176798106Y-70496003D01*
X176801112Y-70506505D01*
X176804365Y-70516840D01*
X176807867Y-70527010D01*
X176811616Y-70537013D01*
X176815614Y-70546851D01*
X176819859Y-70556522D01*
X176824353Y-70566027D01*
X176829095Y-70575367D01*
X176834084Y-70584540D01*
X176839322Y-70593548D01*
X176844808Y-70602389D01*
X176850542Y-70611064D01*
X176856524Y-70619574D01*
X176862721Y-70627851D01*
X176869099Y-70635892D01*
X176875658Y-70643697D01*
X176882399Y-70651264D01*
X176889321Y-70658595D01*
X176896424Y-70665690D01*
X176903708Y-70672548D01*
X176911174Y-70679169D01*
X176918821Y-70685554D01*
X176926649Y-70691702D01*
X176934658Y-70697613D01*
X176942849Y-70703288D01*
X176951221Y-70708726D01*
X176959774Y-70713928D01*
X176968509Y-70718893D01*
X176977424Y-70723621D01*
X176986482Y-70728058D01*
X176995643Y-70732208D01*
X177004908Y-70736072D01*
X177014275Y-70739650D01*
X177023745Y-70742941D01*
X177033318Y-70745947D01*
X177042994Y-70748666D01*
X177052773Y-70751099D01*
X177062656Y-70753245D01*
X177072641Y-70755106D01*
X177082729Y-70756680D01*
X177092921Y-70757968D01*
X177103215Y-70758970D01*
X177113613Y-70759685D01*
X177124113Y-70760115D01*
X177134717Y-70760258D01*
G37*
G36*
X176365108Y-69751290D02*
G01*
X176245673Y-69751290D01*
X175877355Y-70750000D01*
X176028541Y-70750000D01*
X176305268Y-69944242D01*
X176582240Y-70750000D01*
X176733182Y-70750000D01*
X176365108Y-69751290D01*
G37*
G36*
X176563677Y-70397557D02*
G01*
X176038066Y-70397557D01*
X176038066Y-70530914D01*
X176563677Y-70530914D01*
X176563677Y-70397557D01*
G37*
G36*
X175731542Y-69751290D02*
G01*
X175604291Y-69751290D01*
X175116050Y-70523342D01*
X175132414Y-70541172D01*
X175132414Y-69751290D01*
X174993684Y-69751290D01*
X174993684Y-70749267D01*
X175122156Y-70749267D01*
X175609176Y-69988939D01*
X175592812Y-69971109D01*
X175592812Y-70749267D01*
X175731542Y-70749267D01*
X175731542Y-69751290D01*
G37*
G36*
X174513991Y-70760258D02*
G01*
X174524386Y-70760138D01*
X174534626Y-70759781D01*
X174544711Y-70759184D01*
X174554642Y-70758350D01*
X174564419Y-70757276D01*
X174578793Y-70755219D01*
X174592821Y-70752625D01*
X174606500Y-70749495D01*
X174619831Y-70745827D01*
X174632815Y-70741623D01*
X174645451Y-70736883D01*
X174657739Y-70731606D01*
X174661758Y-70729727D01*
X174673492Y-70723762D01*
X174684787Y-70717317D01*
X174695645Y-70710390D01*
X174706065Y-70702983D01*
X174716047Y-70695094D01*
X174725591Y-70686725D01*
X174734697Y-70677875D01*
X174743366Y-70668545D01*
X174751596Y-70658733D01*
X174759388Y-70648440D01*
X174764340Y-70641311D01*
X174771370Y-70630204D01*
X174777898Y-70618680D01*
X174783924Y-70606739D01*
X174789447Y-70594382D01*
X174794468Y-70581609D01*
X174798987Y-70568419D01*
X174803004Y-70554813D01*
X174806518Y-70540790D01*
X174808581Y-70531210D01*
X174810422Y-70521445D01*
X174812039Y-70511495D01*
X174813433Y-70501360D01*
X174670551Y-70501360D01*
X174668799Y-70511752D01*
X174666597Y-70521678D01*
X174663945Y-70531139D01*
X174659996Y-70542310D01*
X174655344Y-70552753D01*
X174649988Y-70562469D01*
X174643928Y-70571458D01*
X174637154Y-70579667D01*
X174629808Y-70587195D01*
X174621889Y-70594044D01*
X174613398Y-70600214D01*
X174604334Y-70605703D01*
X174594698Y-70610513D01*
X174590683Y-70612247D01*
X174580181Y-70616116D01*
X174569131Y-70619331D01*
X174557532Y-70621889D01*
X174547857Y-70623463D01*
X174537832Y-70624617D01*
X174527455Y-70625352D01*
X174516728Y-70625667D01*
X174513991Y-70625680D01*
X174501258Y-70625354D01*
X174489070Y-70624375D01*
X174477427Y-70622743D01*
X174466329Y-70620459D01*
X174455777Y-70617523D01*
X174445770Y-70613933D01*
X174436308Y-70609692D01*
X174427392Y-70604797D01*
X174419020Y-70599250D01*
X174411194Y-70593051D01*
X174406280Y-70588555D01*
X174399384Y-70581330D01*
X174393165Y-70573577D01*
X174387626Y-70565296D01*
X174382764Y-70556487D01*
X174378581Y-70547149D01*
X174375076Y-70537284D01*
X174372250Y-70526891D01*
X174370102Y-70515969D01*
X174368632Y-70504519D01*
X174367840Y-70492542D01*
X174367690Y-70484263D01*
X174367690Y-70453977D01*
X174368010Y-70440218D01*
X174368969Y-70427061D01*
X174370568Y-70414504D01*
X174372807Y-70402549D01*
X174375686Y-70391194D01*
X174379204Y-70380441D01*
X174383362Y-70370289D01*
X174388160Y-70360737D01*
X174393598Y-70351787D01*
X174399675Y-70343438D01*
X174404082Y-70338206D01*
X174411169Y-70330917D01*
X174418785Y-70324344D01*
X174426929Y-70318489D01*
X174435601Y-70313351D01*
X174444801Y-70308929D01*
X174454528Y-70305225D01*
X174464785Y-70302237D01*
X174475569Y-70299967D01*
X174486881Y-70298413D01*
X174498721Y-70297577D01*
X174506908Y-70297418D01*
X174577739Y-70297418D01*
X174577739Y-70164061D01*
X174506908Y-70164061D01*
X174496193Y-70163754D01*
X174485937Y-70162833D01*
X174476140Y-70161298D01*
X174463792Y-70158297D01*
X174452261Y-70154204D01*
X174441547Y-70149019D01*
X174431650Y-70142743D01*
X174422569Y-70135376D01*
X174416294Y-70129134D01*
X174408738Y-70119891D01*
X174402189Y-70109747D01*
X174396648Y-70098703D01*
X174392114Y-70086758D01*
X174389375Y-70077208D01*
X174387202Y-70067152D01*
X174385597Y-70056589D01*
X174384558Y-70045519D01*
X174384085Y-70033943D01*
X174384054Y-70029972D01*
X174384054Y-69999197D01*
X174384352Y-69988351D01*
X174385247Y-69977976D01*
X174386739Y-69968075D01*
X174389657Y-69955607D01*
X174393635Y-69943979D01*
X174398675Y-69933190D01*
X174404775Y-69923241D01*
X174411936Y-69914131D01*
X174418004Y-69907850D01*
X174426938Y-69900294D01*
X174436765Y-69893745D01*
X174447485Y-69888204D01*
X174459098Y-69883670D01*
X174471604Y-69880144D01*
X174481569Y-69878160D01*
X174492037Y-69876744D01*
X174503007Y-69875893D01*
X174514480Y-69875610D01*
X174525509Y-69875938D01*
X174536156Y-69876922D01*
X174546422Y-69878562D01*
X174556306Y-69880858D01*
X174565809Y-69883809D01*
X174574930Y-69887417D01*
X174578471Y-69889043D01*
X174588712Y-69894505D01*
X174598369Y-69900996D01*
X174605971Y-69907193D01*
X174613167Y-69914105D01*
X174619958Y-69921733D01*
X174626343Y-69930076D01*
X174632187Y-69939123D01*
X174637505Y-69948862D01*
X174642300Y-69959292D01*
X174646569Y-69970414D01*
X174649607Y-69979810D01*
X174652309Y-69989649D01*
X174654675Y-69999930D01*
X174796824Y-69999930D01*
X174795019Y-69989794D01*
X174793023Y-69979841D01*
X174790837Y-69970071D01*
X174788459Y-69960484D01*
X174784535Y-69946448D01*
X174780181Y-69932824D01*
X174775399Y-69919612D01*
X174770187Y-69906812D01*
X174764545Y-69894424D01*
X174758474Y-69882449D01*
X174751974Y-69870886D01*
X174745045Y-69859734D01*
X174737723Y-69849036D01*
X174730044Y-69838832D01*
X174722009Y-69829121D01*
X174713618Y-69819904D01*
X174704870Y-69811180D01*
X174695766Y-69802951D01*
X174686306Y-69795215D01*
X174676489Y-69787973D01*
X174666316Y-69781224D01*
X174655787Y-69774970D01*
X174648569Y-69771074D01*
X174637471Y-69765662D01*
X174626069Y-69760782D01*
X174614362Y-69756434D01*
X174602350Y-69752619D01*
X174590033Y-69749336D01*
X174577411Y-69746585D01*
X174564485Y-69744367D01*
X174551253Y-69742681D01*
X174537717Y-69741527D01*
X174523876Y-69740906D01*
X174514480Y-69740788D01*
X174498587Y-69741054D01*
X174483148Y-69741853D01*
X174468163Y-69743184D01*
X174453633Y-69745047D01*
X174439556Y-69747443D01*
X174425934Y-69750371D01*
X174412766Y-69753831D01*
X174400052Y-69757824D01*
X174387792Y-69762349D01*
X174375986Y-69767407D01*
X174364635Y-69772997D01*
X174353737Y-69779119D01*
X174343294Y-69785774D01*
X174333305Y-69792961D01*
X174323770Y-69800680D01*
X174314689Y-69808932D01*
X174306112Y-69817638D01*
X174298088Y-69826781D01*
X174290618Y-69836360D01*
X174283701Y-69846377D01*
X174277337Y-69856831D01*
X174271527Y-69867722D01*
X174266270Y-69879050D01*
X174261566Y-69890814D01*
X174257416Y-69903016D01*
X174253819Y-69915654D01*
X174250776Y-69928730D01*
X174248285Y-69942243D01*
X174246349Y-69956192D01*
X174244965Y-69970579D01*
X174244135Y-69985402D01*
X174243859Y-70000662D01*
X174243859Y-70017027D01*
X174244215Y-70030916D01*
X174245284Y-70044467D01*
X174247066Y-70057678D01*
X174249560Y-70070550D01*
X174252767Y-70083083D01*
X174256687Y-70095277D01*
X174261320Y-70107132D01*
X174266665Y-70118647D01*
X174272723Y-70129823D01*
X174279493Y-70140660D01*
X174284403Y-70147697D01*
X174292301Y-70157828D01*
X174300792Y-70167432D01*
X174309875Y-70176507D01*
X174319551Y-70185054D01*
X174329819Y-70193074D01*
X174340680Y-70200565D01*
X174352133Y-70207528D01*
X174364179Y-70213963D01*
X174376817Y-70219870D01*
X174390047Y-70225249D01*
X174399197Y-70228541D01*
X174389113Y-70230944D01*
X174379318Y-70233697D01*
X174369811Y-70236799D01*
X174360591Y-70240249D01*
X174347303Y-70246080D01*
X174334662Y-70252697D01*
X174322671Y-70260100D01*
X174311327Y-70268288D01*
X174300631Y-70277262D01*
X174290584Y-70287021D01*
X174281185Y-70297566D01*
X174272435Y-70308897D01*
X174264404Y-70320923D01*
X174257162Y-70333555D01*
X174252773Y-70342312D01*
X174248736Y-70351339D01*
X174245049Y-70360634D01*
X174241714Y-70370199D01*
X174238729Y-70380033D01*
X174236096Y-70390135D01*
X174233814Y-70400507D01*
X174231883Y-70411148D01*
X174230303Y-70422058D01*
X174229074Y-70433237D01*
X174228196Y-70444684D01*
X174227670Y-70456401D01*
X174227494Y-70468387D01*
X174227494Y-70484752D01*
X174227626Y-70495581D01*
X174228021Y-70506211D01*
X174228679Y-70516640D01*
X174229601Y-70526868D01*
X174230786Y-70536897D01*
X174232234Y-70546725D01*
X174233946Y-70556352D01*
X174237007Y-70570418D01*
X174240660Y-70584033D01*
X174244907Y-70597197D01*
X174249745Y-70609910D01*
X174255176Y-70622172D01*
X174261200Y-70633984D01*
X174267744Y-70645311D01*
X174274830Y-70656118D01*
X174282456Y-70666405D01*
X174290623Y-70676173D01*
X174299332Y-70685422D01*
X174308581Y-70694151D01*
X174318371Y-70702360D01*
X174328702Y-70710051D01*
X174339575Y-70717221D01*
X174350988Y-70723872D01*
X174358897Y-70728018D01*
X174371175Y-70733779D01*
X174383921Y-70738974D01*
X174397135Y-70743602D01*
X174410818Y-70747664D01*
X174424968Y-70751159D01*
X174434661Y-70753174D01*
X174444562Y-70754937D01*
X174454672Y-70756448D01*
X174464989Y-70757707D01*
X174475515Y-70758715D01*
X174486248Y-70759471D01*
X174497189Y-70759974D01*
X174508338Y-70760226D01*
X174513991Y-70760258D01*
G37*
G36*
X174012072Y-69751290D02*
G01*
X173871877Y-69751290D01*
X173871877Y-70750000D01*
X174012072Y-70750000D01*
X174012072Y-69751290D01*
G37*
G36*
X173941974Y-70616643D02*
G01*
X173370446Y-70616643D01*
X173370446Y-70750000D01*
X173941974Y-70750000D01*
X173941974Y-70616643D01*
G37*
G36*
X178638764Y-72440258D02*
G01*
X178649159Y-72440138D01*
X178659399Y-72439781D01*
X178669485Y-72439184D01*
X178679415Y-72438350D01*
X178689192Y-72437276D01*
X178703567Y-72435219D01*
X178717594Y-72432625D01*
X178731273Y-72429495D01*
X178744604Y-72425827D01*
X178757588Y-72421623D01*
X178770224Y-72416883D01*
X178782512Y-72411606D01*
X178786531Y-72409727D01*
X178798265Y-72403762D01*
X178809561Y-72397317D01*
X178820419Y-72390390D01*
X178830838Y-72382983D01*
X178840820Y-72375094D01*
X178850365Y-72366725D01*
X178859471Y-72357875D01*
X178868139Y-72348545D01*
X178876369Y-72338733D01*
X178884162Y-72328440D01*
X178889113Y-72321311D01*
X178896144Y-72310204D01*
X178902672Y-72298680D01*
X178908697Y-72286739D01*
X178914221Y-72274382D01*
X178919242Y-72261609D01*
X178923760Y-72248419D01*
X178927777Y-72234813D01*
X178931291Y-72220790D01*
X178933355Y-72211210D01*
X178935195Y-72201445D01*
X178936812Y-72191495D01*
X178938206Y-72181360D01*
X178795324Y-72181360D01*
X178793572Y-72191752D01*
X178791370Y-72201678D01*
X178788718Y-72211139D01*
X178784769Y-72222310D01*
X178780117Y-72232753D01*
X178774761Y-72242469D01*
X178768702Y-72251458D01*
X178761928Y-72259667D01*
X178754581Y-72267195D01*
X178746662Y-72274044D01*
X178738171Y-72280214D01*
X178729107Y-72285703D01*
X178719471Y-72290513D01*
X178715457Y-72292247D01*
X178704955Y-72296116D01*
X178693904Y-72299331D01*
X178682305Y-72301889D01*
X178672631Y-72303463D01*
X178662605Y-72304617D01*
X178652229Y-72305352D01*
X178641501Y-72305667D01*
X178638764Y-72305680D01*
X178626031Y-72305354D01*
X178613843Y-72304375D01*
X178602200Y-72302743D01*
X178591103Y-72300459D01*
X178580550Y-72297523D01*
X178570543Y-72293933D01*
X178561082Y-72289692D01*
X178552165Y-72284797D01*
X178543794Y-72279250D01*
X178535968Y-72273051D01*
X178531053Y-72268555D01*
X178524157Y-72261330D01*
X178517939Y-72253577D01*
X178512399Y-72245296D01*
X178507537Y-72236487D01*
X178503354Y-72227149D01*
X178499849Y-72217284D01*
X178497023Y-72206891D01*
X178494875Y-72195969D01*
X178493405Y-72184519D01*
X178492614Y-72172542D01*
X178492463Y-72164263D01*
X178492463Y-72133977D01*
X178492783Y-72120218D01*
X178493742Y-72107061D01*
X178495342Y-72094504D01*
X178497581Y-72082549D01*
X178500459Y-72071194D01*
X178503978Y-72060441D01*
X178508136Y-72050289D01*
X178512933Y-72040737D01*
X178518371Y-72031787D01*
X178524448Y-72023438D01*
X178528855Y-72018206D01*
X178535943Y-72010917D01*
X178543558Y-72004344D01*
X178551702Y-71998489D01*
X178560374Y-71993351D01*
X178569574Y-71988929D01*
X178579302Y-71985225D01*
X178589558Y-71982237D01*
X178600342Y-71979967D01*
X178611654Y-71978413D01*
X178623494Y-71977577D01*
X178631681Y-71977418D01*
X178702512Y-71977418D01*
X178702512Y-71844061D01*
X178631681Y-71844061D01*
X178620966Y-71843754D01*
X178610710Y-71842833D01*
X178600913Y-71841298D01*
X178588566Y-71838297D01*
X178577035Y-71834204D01*
X178566320Y-71829019D01*
X178556423Y-71822743D01*
X178547342Y-71815376D01*
X178541067Y-71809134D01*
X178533511Y-71799891D01*
X178526962Y-71789747D01*
X178521421Y-71778703D01*
X178516887Y-71766758D01*
X178514148Y-71757208D01*
X178511976Y-71747152D01*
X178510370Y-71736589D01*
X178509331Y-71725519D01*
X178508859Y-71713943D01*
X178508827Y-71709972D01*
X178508827Y-71679197D01*
X178509126Y-71668351D01*
X178510021Y-71657976D01*
X178511513Y-71648075D01*
X178514430Y-71635607D01*
X178518409Y-71623979D01*
X178523448Y-71613190D01*
X178529548Y-71603241D01*
X178536710Y-71594131D01*
X178542777Y-71587850D01*
X178551711Y-71580294D01*
X178561538Y-71573745D01*
X178572258Y-71568204D01*
X178583871Y-71563670D01*
X178596377Y-71560144D01*
X178606342Y-71558160D01*
X178616810Y-71556744D01*
X178627780Y-71555893D01*
X178639253Y-71555610D01*
X178650282Y-71555938D01*
X178660929Y-71556922D01*
X178671195Y-71558562D01*
X178681079Y-71560858D01*
X178690582Y-71563809D01*
X178699703Y-71567417D01*
X178703244Y-71569043D01*
X178713485Y-71574505D01*
X178723143Y-71580996D01*
X178730744Y-71587193D01*
X178737940Y-71594105D01*
X178744731Y-71601733D01*
X178751116Y-71610076D01*
X178756960Y-71619123D01*
X178762279Y-71628862D01*
X178767073Y-71639292D01*
X178771342Y-71650414D01*
X178774380Y-71659810D01*
X178777082Y-71669649D01*
X178779448Y-71679930D01*
X178921598Y-71679930D01*
X178919792Y-71669794D01*
X178917797Y-71659841D01*
X178915610Y-71650071D01*
X178913232Y-71640484D01*
X178909308Y-71626448D01*
X178904955Y-71612824D01*
X178900172Y-71599612D01*
X178894960Y-71586812D01*
X178889318Y-71574424D01*
X178883248Y-71562449D01*
X178876747Y-71550886D01*
X178869818Y-71539734D01*
X178862496Y-71529036D01*
X178854817Y-71518832D01*
X178846782Y-71509121D01*
X178838391Y-71499904D01*
X178829643Y-71491180D01*
X178820539Y-71482951D01*
X178811079Y-71475215D01*
X178801262Y-71467973D01*
X178791089Y-71461224D01*
X178780560Y-71454970D01*
X178773342Y-71451074D01*
X178762245Y-71445662D01*
X178750842Y-71440782D01*
X178739135Y-71436434D01*
X178727123Y-71432619D01*
X178714806Y-71429336D01*
X178702184Y-71426585D01*
X178689258Y-71424367D01*
X178676027Y-71422681D01*
X178662490Y-71421527D01*
X178648649Y-71420906D01*
X178639253Y-71420788D01*
X178623360Y-71421054D01*
X178607921Y-71421853D01*
X178592936Y-71423184D01*
X178578406Y-71425047D01*
X178564329Y-71427443D01*
X178550707Y-71430371D01*
X178537539Y-71433831D01*
X178524825Y-71437824D01*
X178512565Y-71442349D01*
X178500759Y-71447407D01*
X178489408Y-71452997D01*
X178478510Y-71459119D01*
X178468067Y-71465774D01*
X178458078Y-71472961D01*
X178448543Y-71480680D01*
X178439462Y-71488932D01*
X178430885Y-71497638D01*
X178422861Y-71506781D01*
X178415391Y-71516360D01*
X178408474Y-71526377D01*
X178402110Y-71536831D01*
X178396300Y-71547722D01*
X178391043Y-71559050D01*
X178386339Y-71570814D01*
X178382189Y-71583016D01*
X178378592Y-71595654D01*
X178375549Y-71608730D01*
X178373059Y-71622243D01*
X178371122Y-71636192D01*
X178369738Y-71650579D01*
X178368908Y-71665402D01*
X178368632Y-71680662D01*
X178368632Y-71697027D01*
X178368988Y-71710916D01*
X178370057Y-71724467D01*
X178371839Y-71737678D01*
X178374333Y-71750550D01*
X178377540Y-71763083D01*
X178381460Y-71775277D01*
X178386093Y-71787132D01*
X178391438Y-71798647D01*
X178397496Y-71809823D01*
X178404266Y-71820660D01*
X178409176Y-71827697D01*
X178417074Y-71837828D01*
X178425565Y-71847432D01*
X178434648Y-71856507D01*
X178444324Y-71865054D01*
X178454592Y-71873074D01*
X178465453Y-71880565D01*
X178476906Y-71887528D01*
X178488952Y-71893963D01*
X178501590Y-71899870D01*
X178514821Y-71905249D01*
X178523970Y-71908541D01*
X178513887Y-71910944D01*
X178504091Y-71913697D01*
X178494584Y-71916799D01*
X178485365Y-71920249D01*
X178472076Y-71926080D01*
X178459436Y-71932697D01*
X178447444Y-71940100D01*
X178436100Y-71948288D01*
X178425405Y-71957262D01*
X178415357Y-71967021D01*
X178405959Y-71977566D01*
X178397208Y-71988897D01*
X178389177Y-72000923D01*
X178381935Y-72013555D01*
X178377547Y-72022312D01*
X178373509Y-72031339D01*
X178369822Y-72040634D01*
X178366487Y-72050199D01*
X178363503Y-72060033D01*
X178360869Y-72070135D01*
X178358587Y-72080507D01*
X178356656Y-72091148D01*
X178355076Y-72102058D01*
X178353847Y-72113237D01*
X178352970Y-72124684D01*
X178352443Y-72136401D01*
X178352267Y-72148387D01*
X178352267Y-72164752D01*
X178352399Y-72175581D01*
X178352794Y-72186211D01*
X178353452Y-72196640D01*
X178354374Y-72206868D01*
X178355559Y-72216897D01*
X178357007Y-72226725D01*
X178358719Y-72236352D01*
X178361780Y-72250418D01*
X178365434Y-72264033D01*
X178369680Y-72277197D01*
X178374518Y-72289910D01*
X178379949Y-72302172D01*
X178385973Y-72313984D01*
X178392517Y-72325311D01*
X178399603Y-72336118D01*
X178407229Y-72346405D01*
X178415397Y-72356173D01*
X178424105Y-72365422D01*
X178433354Y-72374151D01*
X178443144Y-72382360D01*
X178453476Y-72390051D01*
X178464348Y-72397221D01*
X178475761Y-72403872D01*
X178483670Y-72408018D01*
X178495948Y-72413779D01*
X178508695Y-72418974D01*
X178521909Y-72423602D01*
X178535591Y-72427664D01*
X178549741Y-72431159D01*
X178559434Y-72433174D01*
X178569336Y-72434937D01*
X178579445Y-72436448D01*
X178589762Y-72437707D01*
X178600288Y-72438715D01*
X178611021Y-72439471D01*
X178621962Y-72439974D01*
X178633112Y-72440226D01*
X178638764Y-72440258D01*
G37*
G36*
X178174459Y-72282965D02*
G01*
X178027669Y-72282965D01*
X178027669Y-72430000D01*
X178174459Y-72430000D01*
X178174459Y-72282965D01*
G37*
G36*
X178174459Y-71709972D02*
G01*
X178027669Y-71709972D01*
X178027669Y-71857006D01*
X178174459Y-71857006D01*
X178174459Y-71709972D01*
G37*
G36*
X177118108Y-72440258D02*
G01*
X177130985Y-72440078D01*
X177143666Y-72439540D01*
X177156150Y-72438643D01*
X177168438Y-72437388D01*
X177180529Y-72435774D01*
X177192423Y-72433801D01*
X177204121Y-72431469D01*
X177215622Y-72428778D01*
X177226927Y-72425729D01*
X177238035Y-72422321D01*
X177248947Y-72418554D01*
X177259662Y-72414429D01*
X177270181Y-72409945D01*
X177280503Y-72405102D01*
X177290629Y-72399900D01*
X177300558Y-72394340D01*
X177310250Y-72388420D01*
X177319666Y-72382200D01*
X177328805Y-72375681D01*
X177337667Y-72368862D01*
X177346253Y-72361744D01*
X177354562Y-72354326D01*
X177362594Y-72346609D01*
X177370350Y-72338592D01*
X177377829Y-72330275D01*
X177385031Y-72321659D01*
X177391957Y-72312743D01*
X177398606Y-72303528D01*
X177404978Y-72294013D01*
X177411074Y-72284198D01*
X177416893Y-72274084D01*
X177422435Y-72263670D01*
X177427670Y-72253003D01*
X177432567Y-72242127D01*
X177437127Y-72231044D01*
X177441349Y-72219752D01*
X177445233Y-72208253D01*
X177448779Y-72196545D01*
X177451987Y-72184630D01*
X177454858Y-72172506D01*
X177457391Y-72160175D01*
X177459587Y-72147636D01*
X177461444Y-72134888D01*
X177462964Y-72121933D01*
X177464146Y-72108770D01*
X177464990Y-72095398D01*
X177465497Y-72081819D01*
X177465666Y-72068032D01*
X177465666Y-71793991D01*
X177465497Y-71780174D01*
X177464990Y-71766567D01*
X177464146Y-71753170D01*
X177462964Y-71739983D01*
X177461444Y-71727006D01*
X177459587Y-71714238D01*
X177457391Y-71701681D01*
X177454858Y-71689333D01*
X177451987Y-71677195D01*
X177448779Y-71665268D01*
X177445233Y-71653550D01*
X177441349Y-71642042D01*
X177437127Y-71630743D01*
X177432567Y-71619655D01*
X177427670Y-71608777D01*
X177422435Y-71598108D01*
X177416893Y-71587694D01*
X177411074Y-71577577D01*
X177404978Y-71567757D01*
X177398606Y-71558236D01*
X177391957Y-71549012D01*
X177385031Y-71540085D01*
X177377829Y-71531457D01*
X177370350Y-71523126D01*
X177362594Y-71515093D01*
X177354562Y-71507357D01*
X177346253Y-71499919D01*
X177337667Y-71492779D01*
X177328805Y-71485936D01*
X177319666Y-71479391D01*
X177310250Y-71473144D01*
X177300558Y-71467194D01*
X177290629Y-71461575D01*
X177280503Y-71456318D01*
X177270181Y-71451423D01*
X177259662Y-71446892D01*
X177248947Y-71442722D01*
X177238035Y-71438915D01*
X177226927Y-71435471D01*
X177215622Y-71432390D01*
X177204121Y-71429670D01*
X177192423Y-71427314D01*
X177180529Y-71425320D01*
X177168438Y-71423688D01*
X177156150Y-71422420D01*
X177143666Y-71421513D01*
X177130985Y-71420969D01*
X177118108Y-71420788D01*
X177107416Y-71420932D01*
X177096833Y-71421364D01*
X177086358Y-71422085D01*
X177075992Y-71423093D01*
X177065734Y-71424390D01*
X177055586Y-71425974D01*
X177045546Y-71427847D01*
X177035615Y-71430008D01*
X177025793Y-71432457D01*
X177016080Y-71435195D01*
X177006475Y-71438220D01*
X176996979Y-71441533D01*
X176987592Y-71445135D01*
X176978314Y-71449025D01*
X176969144Y-71453203D01*
X176960083Y-71457669D01*
X176951169Y-71462368D01*
X176942441Y-71467309D01*
X176933897Y-71472489D01*
X176925538Y-71477910D01*
X176917365Y-71483572D01*
X176909376Y-71489474D01*
X176901573Y-71495616D01*
X176893954Y-71501999D01*
X176886521Y-71508622D01*
X176879273Y-71515486D01*
X176872210Y-71522590D01*
X176865332Y-71529934D01*
X176858639Y-71537519D01*
X176852132Y-71545344D01*
X176845809Y-71553410D01*
X176839672Y-71561716D01*
X176833719Y-71570225D01*
X176828013Y-71578897D01*
X176822553Y-71587734D01*
X176817339Y-71596734D01*
X176812371Y-71605899D01*
X176807649Y-71615228D01*
X176803173Y-71624721D01*
X176798944Y-71634378D01*
X176794961Y-71644200D01*
X176791224Y-71654185D01*
X176787733Y-71664334D01*
X176784488Y-71674648D01*
X176781489Y-71685126D01*
X176778737Y-71695767D01*
X176776230Y-71706573D01*
X176773970Y-71717543D01*
X176917585Y-71717543D01*
X176921096Y-71706037D01*
X176925157Y-71694844D01*
X176929767Y-71683964D01*
X176934926Y-71673396D01*
X176940635Y-71663142D01*
X176946894Y-71653200D01*
X176953702Y-71643572D01*
X176961060Y-71634256D01*
X176968861Y-71625303D01*
X176976997Y-71616885D01*
X176985469Y-71609000D01*
X176994277Y-71601650D01*
X177003421Y-71594834D01*
X177012901Y-71588552D01*
X177022716Y-71582805D01*
X177032868Y-71577592D01*
X177043229Y-71572898D01*
X177053674Y-71568830D01*
X177064203Y-71565387D01*
X177074816Y-71562571D01*
X177085513Y-71560380D01*
X177096294Y-71558816D01*
X177107159Y-71557877D01*
X177118108Y-71557564D01*
X177129426Y-71557824D01*
X177140482Y-71558603D01*
X177151276Y-71559902D01*
X177161809Y-71561720D01*
X177172079Y-71564058D01*
X177182088Y-71566915D01*
X177191834Y-71570292D01*
X177201319Y-71574188D01*
X177210542Y-71578604D01*
X177219503Y-71583539D01*
X177225331Y-71587117D01*
X177233760Y-71592867D01*
X177241829Y-71599033D01*
X177249537Y-71605615D01*
X177256884Y-71612614D01*
X177263871Y-71620029D01*
X177270497Y-71627861D01*
X177276762Y-71636109D01*
X177282667Y-71644774D01*
X177288211Y-71653855D01*
X177293395Y-71663353D01*
X177296650Y-71669916D01*
X177301189Y-71680054D01*
X177305282Y-71690501D01*
X177308929Y-71701257D01*
X177312129Y-71712322D01*
X177314882Y-71723697D01*
X177317189Y-71735380D01*
X177319050Y-71747373D01*
X177320464Y-71759675D01*
X177321431Y-71772286D01*
X177321952Y-71785206D01*
X177322051Y-71793991D01*
X177322051Y-72068032D01*
X177321828Y-72081029D01*
X177321158Y-72093734D01*
X177320042Y-72106148D01*
X177318479Y-72118269D01*
X177316470Y-72130099D01*
X177314014Y-72141636D01*
X177311112Y-72152882D01*
X177307763Y-72163836D01*
X177303968Y-72174498D01*
X177299726Y-72184867D01*
X177296650Y-72191618D01*
X177291707Y-72201435D01*
X177286403Y-72210827D01*
X177280739Y-72219793D01*
X177274714Y-72228335D01*
X177268328Y-72236452D01*
X177261582Y-72244143D01*
X177254475Y-72251410D01*
X177247008Y-72258251D01*
X177239179Y-72264667D01*
X177230991Y-72270659D01*
X177225331Y-72274417D01*
X177216545Y-72279611D01*
X177207496Y-72284294D01*
X177198186Y-72288467D01*
X177188614Y-72292128D01*
X177178781Y-72295279D01*
X177168685Y-72297919D01*
X177158327Y-72300047D01*
X177147708Y-72301665D01*
X177136826Y-72302772D01*
X177125683Y-72303368D01*
X177118108Y-72303482D01*
X177106995Y-72303195D01*
X177096004Y-72302337D01*
X177085136Y-72300906D01*
X177074389Y-72298902D01*
X177063764Y-72296326D01*
X177053262Y-72293178D01*
X177042882Y-72289457D01*
X177032623Y-72285163D01*
X177022529Y-72280244D01*
X177012763Y-72274768D01*
X177003326Y-72268734D01*
X176994216Y-72262144D01*
X176985435Y-72254996D01*
X176976982Y-72247291D01*
X176968857Y-72239028D01*
X176961060Y-72230209D01*
X176953702Y-72220840D01*
X176946894Y-72211051D01*
X176940635Y-72200842D01*
X176934926Y-72190214D01*
X176929767Y-72179166D01*
X176925157Y-72167698D01*
X176921096Y-72155810D01*
X176917585Y-72143503D01*
X176773970Y-72143503D01*
X176776231Y-72154502D01*
X176778741Y-72165336D01*
X176781498Y-72176003D01*
X176784503Y-72186505D01*
X176787757Y-72196840D01*
X176791258Y-72207010D01*
X176795008Y-72217013D01*
X176799005Y-72226851D01*
X176803251Y-72236522D01*
X176807744Y-72246027D01*
X176812486Y-72255367D01*
X176817476Y-72264540D01*
X176822714Y-72273548D01*
X176828200Y-72282389D01*
X176833934Y-72291064D01*
X176839916Y-72299574D01*
X176846112Y-72307851D01*
X176852490Y-72315892D01*
X176859050Y-72323697D01*
X176865790Y-72331264D01*
X176872712Y-72338595D01*
X176879815Y-72345690D01*
X176887099Y-72352548D01*
X176894565Y-72359169D01*
X176902212Y-72365554D01*
X176910040Y-72371702D01*
X176918050Y-72377613D01*
X176926240Y-72383288D01*
X176934612Y-72388726D01*
X176943166Y-72393928D01*
X176951900Y-72398893D01*
X176960816Y-72403621D01*
X176969874Y-72408058D01*
X176979035Y-72412208D01*
X176988299Y-72416072D01*
X176997666Y-72419650D01*
X177007136Y-72422941D01*
X177016709Y-72425947D01*
X177026386Y-72428666D01*
X177036165Y-72431099D01*
X177046047Y-72433245D01*
X177056033Y-72435106D01*
X177066121Y-72436680D01*
X177076312Y-72437968D01*
X177086607Y-72438970D01*
X177097004Y-72439685D01*
X177107505Y-72440115D01*
X177118108Y-72440258D01*
G37*
G36*
X176348499Y-71431290D02*
G01*
X176229064Y-71431290D01*
X175860746Y-72430000D01*
X176011933Y-72430000D01*
X176288660Y-71624242D01*
X176565631Y-72430000D01*
X176716573Y-72430000D01*
X176348499Y-71431290D01*
G37*
G36*
X176547069Y-72077557D02*
G01*
X176021458Y-72077557D01*
X176021458Y-72210914D01*
X176547069Y-72210914D01*
X176547069Y-72077557D01*
G37*
G36*
X175714933Y-71431290D02*
G01*
X175587683Y-71431290D01*
X175099441Y-72203342D01*
X175115806Y-72221172D01*
X175115806Y-71431290D01*
X174977076Y-71431290D01*
X174977076Y-72429267D01*
X175105547Y-72429267D01*
X175592568Y-71668939D01*
X175576203Y-71651109D01*
X175576203Y-72429267D01*
X175714933Y-72429267D01*
X175714933Y-71431290D01*
G37*
G36*
X174770690Y-72308367D02*
G01*
X174422400Y-71844061D01*
X174415038Y-71834058D01*
X174408097Y-71823957D01*
X174401575Y-71813756D01*
X174395472Y-71803456D01*
X174389790Y-71793056D01*
X174384527Y-71782558D01*
X174379684Y-71771960D01*
X174375261Y-71761263D01*
X174371311Y-71750607D01*
X174367888Y-71740136D01*
X174364992Y-71729847D01*
X174362622Y-71719741D01*
X174360778Y-71709819D01*
X174359462Y-71700080D01*
X174358557Y-71688163D01*
X174358408Y-71681151D01*
X174358408Y-71679930D01*
X174358718Y-71668946D01*
X174359645Y-71658434D01*
X174361191Y-71648395D01*
X174363354Y-71638828D01*
X174367201Y-71626807D01*
X174372147Y-71615625D01*
X174378192Y-71605283D01*
X174385336Y-71595780D01*
X174393579Y-71587117D01*
X174402777Y-71579389D01*
X174412905Y-71572692D01*
X174423965Y-71567025D01*
X174435956Y-71562388D01*
X174445560Y-71559586D01*
X174455688Y-71557365D01*
X174466339Y-71555722D01*
X174477515Y-71554660D01*
X174489214Y-71554177D01*
X174493230Y-71554145D01*
X174504475Y-71554462D01*
X174515313Y-71555415D01*
X174525742Y-71557004D01*
X174535763Y-71559228D01*
X174545377Y-71562087D01*
X174554582Y-71565582D01*
X174566222Y-71571230D01*
X174577136Y-71578008D01*
X174587326Y-71585915D01*
X174592149Y-71590293D01*
X174601094Y-71599738D01*
X174607202Y-71607438D01*
X174612795Y-71615666D01*
X174617873Y-71624422D01*
X174622435Y-71633707D01*
X174626482Y-71643519D01*
X174630014Y-71653860D01*
X174633031Y-71664728D01*
X174635532Y-71676125D01*
X174637519Y-71688050D01*
X174638066Y-71692142D01*
X174638066Y-71692875D01*
X174783147Y-71692875D01*
X174783147Y-71692142D01*
X174781490Y-71681523D01*
X174779632Y-71671099D01*
X174777574Y-71660869D01*
X174775316Y-71650834D01*
X174772857Y-71640994D01*
X174770198Y-71631348D01*
X174767339Y-71621897D01*
X174762674Y-71608086D01*
X174757558Y-71594712D01*
X174751992Y-71581776D01*
X174745975Y-71569278D01*
X174739507Y-71557218D01*
X174732588Y-71545596D01*
X174725249Y-71534446D01*
X174717519Y-71523803D01*
X174709398Y-71513667D01*
X174700887Y-71504037D01*
X174691984Y-71494913D01*
X174682691Y-71486297D01*
X174673008Y-71478187D01*
X174662933Y-71470583D01*
X174652468Y-71463486D01*
X174641613Y-71456896D01*
X174634159Y-71452784D01*
X174622638Y-71447066D01*
X174610791Y-71441910D01*
X174598618Y-71437317D01*
X174586119Y-71433286D01*
X174573293Y-71429818D01*
X174560142Y-71426912D01*
X174546663Y-71424569D01*
X174532859Y-71422788D01*
X174518728Y-71421569D01*
X174504271Y-71420913D01*
X174494452Y-71420788D01*
X174483409Y-71420908D01*
X174472569Y-71421269D01*
X174461931Y-71421870D01*
X174451495Y-71422711D01*
X174441262Y-71423793D01*
X174431231Y-71425116D01*
X174421402Y-71426679D01*
X174411775Y-71428482D01*
X174397715Y-71431637D01*
X174384109Y-71435334D01*
X174370959Y-71439571D01*
X174358263Y-71444350D01*
X174346023Y-71449669D01*
X174342044Y-71451563D01*
X174330449Y-71457532D01*
X174319387Y-71463990D01*
X174308857Y-71470938D01*
X174298859Y-71478376D01*
X174289394Y-71486303D01*
X174280461Y-71494719D01*
X174272060Y-71503625D01*
X174264192Y-71513020D01*
X174256856Y-71522905D01*
X174250052Y-71533279D01*
X174245812Y-71540467D01*
X174239920Y-71551623D01*
X174234607Y-71563199D01*
X174229873Y-71575196D01*
X174225720Y-71587614D01*
X174222145Y-71600452D01*
X174219151Y-71613711D01*
X174216736Y-71627391D01*
X174214900Y-71641492D01*
X174213645Y-71656013D01*
X174213129Y-71665928D01*
X174212872Y-71676030D01*
X174212840Y-71681151D01*
X174212840Y-71681884D01*
X174213033Y-71691862D01*
X174213612Y-71701922D01*
X174214578Y-71712064D01*
X174215931Y-71722287D01*
X174217670Y-71732591D01*
X174219795Y-71742978D01*
X174222306Y-71753446D01*
X174225204Y-71763995D01*
X174228489Y-71774626D01*
X174232160Y-71785339D01*
X174234822Y-71792526D01*
X174239096Y-71803299D01*
X174243674Y-71814004D01*
X174248558Y-71824640D01*
X174253747Y-71835207D01*
X174259240Y-71845706D01*
X174265038Y-71856136D01*
X174271141Y-71866497D01*
X174277549Y-71876789D01*
X174284261Y-71887013D01*
X174291279Y-71897168D01*
X174296127Y-71903900D01*
X174585310Y-72296643D01*
X174207466Y-72296643D01*
X174207466Y-72430000D01*
X174770690Y-72430000D01*
X174770690Y-72308367D01*
G37*
G36*
X174012072Y-71431290D02*
G01*
X173871877Y-71431290D01*
X173871877Y-72430000D01*
X174012072Y-72430000D01*
X174012072Y-71431290D01*
G37*
G36*
X173941974Y-72296643D02*
G01*
X173370446Y-72296643D01*
X173370446Y-72430000D01*
X173941974Y-72430000D01*
X173941974Y-72296643D01*
G37*
G36*
X178910607Y-73835226D02*
G01*
X178575505Y-73111779D01*
X178431158Y-73111779D01*
X178758199Y-73826922D01*
X178268492Y-73826922D01*
X178268492Y-73956859D01*
X178910607Y-73956859D01*
X178910607Y-73835226D01*
G37*
G36*
X178480006Y-73522595D02*
G01*
X178343230Y-73522595D01*
X178343230Y-74110732D01*
X178480006Y-74110732D01*
X178480006Y-73522595D01*
G37*
G36*
X178117794Y-73962965D02*
G01*
X177971004Y-73962965D01*
X177971004Y-74110000D01*
X178117794Y-74110000D01*
X178117794Y-73962965D01*
G37*
G36*
X178117794Y-73389972D02*
G01*
X177971004Y-73389972D01*
X177971004Y-73537006D01*
X178117794Y-73537006D01*
X178117794Y-73389972D01*
G37*
G36*
X177061444Y-74120258D02*
G01*
X177074321Y-74120078D01*
X177087002Y-74119540D01*
X177099486Y-74118643D01*
X177111773Y-74117388D01*
X177123864Y-74115774D01*
X177135759Y-74113801D01*
X177147457Y-74111469D01*
X177158958Y-74108778D01*
X177170263Y-74105729D01*
X177181371Y-74102321D01*
X177192283Y-74098554D01*
X177202998Y-74094429D01*
X177213517Y-74089945D01*
X177223839Y-74085102D01*
X177233964Y-74079900D01*
X177243893Y-74074340D01*
X177253586Y-74068420D01*
X177263002Y-74062200D01*
X177272141Y-74055681D01*
X177281003Y-74048862D01*
X177289589Y-74041744D01*
X177297898Y-74034326D01*
X177305930Y-74026609D01*
X177313686Y-74018592D01*
X177321165Y-74010275D01*
X177328367Y-74001659D01*
X177335293Y-73992743D01*
X177341942Y-73983528D01*
X177348314Y-73974013D01*
X177354410Y-73964198D01*
X177360228Y-73954084D01*
X177365771Y-73943670D01*
X177371006Y-73933003D01*
X177375903Y-73922127D01*
X177380462Y-73911044D01*
X177384684Y-73899752D01*
X177388568Y-73888253D01*
X177392114Y-73876545D01*
X177395323Y-73864630D01*
X177398194Y-73852506D01*
X177400727Y-73840175D01*
X177402922Y-73827636D01*
X177404780Y-73814888D01*
X177406300Y-73801933D01*
X177407482Y-73788770D01*
X177408326Y-73775398D01*
X177408833Y-73761819D01*
X177409002Y-73748032D01*
X177409002Y-73473991D01*
X177408833Y-73460174D01*
X177408326Y-73446567D01*
X177407482Y-73433170D01*
X177406300Y-73419983D01*
X177404780Y-73407006D01*
X177402922Y-73394238D01*
X177400727Y-73381681D01*
X177398194Y-73369333D01*
X177395323Y-73357195D01*
X177392114Y-73345268D01*
X177388568Y-73333550D01*
X177384684Y-73322042D01*
X177380462Y-73310743D01*
X177375903Y-73299655D01*
X177371006Y-73288777D01*
X177365771Y-73278108D01*
X177360228Y-73267694D01*
X177354410Y-73257577D01*
X177348314Y-73247757D01*
X177341942Y-73238236D01*
X177335293Y-73229012D01*
X177328367Y-73220085D01*
X177321165Y-73211457D01*
X177313686Y-73203126D01*
X177305930Y-73195093D01*
X177297898Y-73187357D01*
X177289589Y-73179919D01*
X177281003Y-73172779D01*
X177272141Y-73165936D01*
X177263002Y-73159391D01*
X177253586Y-73153144D01*
X177243893Y-73147194D01*
X177233964Y-73141575D01*
X177223839Y-73136318D01*
X177213517Y-73131423D01*
X177202998Y-73126892D01*
X177192283Y-73122722D01*
X177181371Y-73118915D01*
X177170263Y-73115471D01*
X177158958Y-73112390D01*
X177147457Y-73109670D01*
X177135759Y-73107314D01*
X177123864Y-73105320D01*
X177111773Y-73103688D01*
X177099486Y-73102420D01*
X177087002Y-73101513D01*
X177074321Y-73100969D01*
X177061444Y-73100788D01*
X177050752Y-73100932D01*
X177040168Y-73101364D01*
X177029693Y-73102085D01*
X177019327Y-73103093D01*
X177009070Y-73104390D01*
X176998922Y-73105974D01*
X176988882Y-73107847D01*
X176978951Y-73110008D01*
X176969129Y-73112457D01*
X176959415Y-73115195D01*
X176949811Y-73118220D01*
X176940315Y-73121533D01*
X176930928Y-73125135D01*
X176921649Y-73129025D01*
X176912480Y-73133203D01*
X176903419Y-73137669D01*
X176894505Y-73142368D01*
X176885776Y-73147309D01*
X176877232Y-73152489D01*
X176868874Y-73157910D01*
X176860700Y-73163572D01*
X176852712Y-73169474D01*
X176844908Y-73175616D01*
X176837290Y-73181999D01*
X176829857Y-73188622D01*
X176822609Y-73195486D01*
X176815546Y-73202590D01*
X176808668Y-73209934D01*
X176801975Y-73217519D01*
X176795467Y-73225344D01*
X176789145Y-73233410D01*
X176783007Y-73241716D01*
X176777055Y-73250225D01*
X176771348Y-73258897D01*
X176765888Y-73267734D01*
X176760674Y-73276734D01*
X176755706Y-73285899D01*
X176750985Y-73295228D01*
X176746509Y-73304721D01*
X176742280Y-73314378D01*
X176738296Y-73324200D01*
X176734559Y-73334185D01*
X176731068Y-73344334D01*
X176727824Y-73354648D01*
X176724825Y-73365126D01*
X176722072Y-73375767D01*
X176719566Y-73386573D01*
X176717306Y-73397543D01*
X176860921Y-73397543D01*
X176864432Y-73386037D01*
X176868492Y-73374844D01*
X176873102Y-73363964D01*
X176878262Y-73353396D01*
X176883971Y-73343142D01*
X176890230Y-73333200D01*
X176897038Y-73323572D01*
X176904396Y-73314256D01*
X176912196Y-73305303D01*
X176920333Y-73296885D01*
X176928805Y-73289000D01*
X176937613Y-73281650D01*
X176946757Y-73274834D01*
X176956236Y-73268552D01*
X176966052Y-73262805D01*
X176976203Y-73257592D01*
X176986565Y-73252898D01*
X176997010Y-73248830D01*
X177007539Y-73245387D01*
X177018152Y-73242571D01*
X177028849Y-73240380D01*
X177039630Y-73238816D01*
X177050495Y-73237877D01*
X177061444Y-73237564D01*
X177072762Y-73237824D01*
X177083818Y-73238603D01*
X177094612Y-73239902D01*
X177105144Y-73241720D01*
X177115415Y-73244058D01*
X177125423Y-73246915D01*
X177135170Y-73250292D01*
X177144655Y-73254188D01*
X177153877Y-73258604D01*
X177162838Y-73263539D01*
X177168667Y-73267117D01*
X177177096Y-73272867D01*
X177185164Y-73279033D01*
X177192872Y-73285615D01*
X177200220Y-73292614D01*
X177207206Y-73300029D01*
X177213832Y-73307861D01*
X177220098Y-73316109D01*
X177226003Y-73324774D01*
X177231547Y-73333855D01*
X177236730Y-73343353D01*
X177239986Y-73349916D01*
X177244525Y-73360054D01*
X177248618Y-73370501D01*
X177252264Y-73381257D01*
X177255464Y-73392322D01*
X177258218Y-73403697D01*
X177260525Y-73415380D01*
X177262385Y-73427373D01*
X177263799Y-73439675D01*
X177264767Y-73452286D01*
X177265288Y-73465206D01*
X177265387Y-73473991D01*
X177265387Y-73748032D01*
X177265164Y-73761029D01*
X177264494Y-73773734D01*
X177263378Y-73786148D01*
X177261815Y-73798269D01*
X177259805Y-73810099D01*
X177257350Y-73821636D01*
X177254447Y-73832882D01*
X177251099Y-73843836D01*
X177247303Y-73854498D01*
X177243061Y-73864867D01*
X177239986Y-73871618D01*
X177235042Y-73881435D01*
X177229739Y-73890827D01*
X177224074Y-73899793D01*
X177218049Y-73908335D01*
X177211664Y-73916452D01*
X177204918Y-73924143D01*
X177197811Y-73931410D01*
X177190343Y-73938251D01*
X177182515Y-73944667D01*
X177174326Y-73950659D01*
X177168667Y-73954417D01*
X177159880Y-73959611D01*
X177150832Y-73964294D01*
X177141522Y-73968467D01*
X177131950Y-73972128D01*
X177122116Y-73975279D01*
X177112020Y-73977919D01*
X177101663Y-73980047D01*
X177091043Y-73981665D01*
X177080162Y-73982772D01*
X177069018Y-73983368D01*
X177061444Y-73983482D01*
X177050331Y-73983195D01*
X177039340Y-73982337D01*
X177028471Y-73980906D01*
X177017725Y-73978902D01*
X177007100Y-73976326D01*
X176996598Y-73973178D01*
X176986217Y-73969457D01*
X176975959Y-73965163D01*
X176965865Y-73960244D01*
X176956099Y-73954768D01*
X176946661Y-73948734D01*
X176937552Y-73942144D01*
X176928771Y-73934996D01*
X176920317Y-73927291D01*
X176912193Y-73919028D01*
X176904396Y-73910209D01*
X176897038Y-73900840D01*
X176890230Y-73891051D01*
X176883971Y-73880842D01*
X176878262Y-73870214D01*
X176873102Y-73859166D01*
X176868492Y-73847698D01*
X176864432Y-73835810D01*
X176860921Y-73823503D01*
X176717306Y-73823503D01*
X176719567Y-73834502D01*
X176722076Y-73845336D01*
X176724833Y-73856003D01*
X176727839Y-73866505D01*
X176731092Y-73876840D01*
X176734594Y-73887010D01*
X176738343Y-73897013D01*
X176742341Y-73906851D01*
X176746586Y-73916522D01*
X176751080Y-73926027D01*
X176755822Y-73935367D01*
X176760812Y-73944540D01*
X176766049Y-73953548D01*
X176771535Y-73962389D01*
X176777269Y-73971064D01*
X176783251Y-73979574D01*
X176789448Y-73987851D01*
X176795826Y-73995892D01*
X176802385Y-74003697D01*
X176809126Y-74011264D01*
X176816048Y-74018595D01*
X176823151Y-74025690D01*
X176830435Y-74032548D01*
X176837901Y-74039169D01*
X176845548Y-74045554D01*
X176853376Y-74051702D01*
X176861385Y-74057613D01*
X176869576Y-74063288D01*
X176877948Y-74068726D01*
X176886501Y-74073928D01*
X176895236Y-74078893D01*
X176904152Y-74083621D01*
X176913210Y-74088058D01*
X176922371Y-74092208D01*
X176931635Y-74096072D01*
X176941002Y-74099650D01*
X176950472Y-74102941D01*
X176960045Y-74105947D01*
X176969721Y-74108666D01*
X176979501Y-74111099D01*
X176989383Y-74113245D01*
X176999368Y-74115106D01*
X177009457Y-74116680D01*
X177019648Y-74117968D01*
X177029942Y-74118970D01*
X177040340Y-74119685D01*
X177050840Y-74120115D01*
X177061444Y-74120258D01*
G37*
G36*
X176291835Y-73111290D02*
G01*
X176172400Y-73111290D01*
X175804082Y-74110000D01*
X175955268Y-74110000D01*
X176231995Y-73304242D01*
X176508967Y-74110000D01*
X176659909Y-74110000D01*
X176291835Y-73111290D01*
G37*
G36*
X176490404Y-73757557D02*
G01*
X175964794Y-73757557D01*
X175964794Y-73890914D01*
X176490404Y-73890914D01*
X176490404Y-73757557D01*
G37*
G36*
X175658269Y-73111290D02*
G01*
X175531018Y-73111290D01*
X175042777Y-73883342D01*
X175059141Y-73901172D01*
X175059141Y-73111290D01*
X174920411Y-73111290D01*
X174920411Y-74109267D01*
X175048883Y-74109267D01*
X175535903Y-73348939D01*
X175519539Y-73331109D01*
X175519539Y-74109267D01*
X175658269Y-74109267D01*
X175658269Y-73111290D01*
G37*
G36*
X174457815Y-74110000D02*
G01*
X174598011Y-74110000D01*
X174598011Y-73263698D01*
X174740160Y-73350893D01*
X174740160Y-73206057D01*
X174598011Y-73111290D01*
X174457815Y-73111290D01*
X174457815Y-74110000D01*
G37*
G36*
X174213328Y-73111290D02*
G01*
X174073133Y-73111290D01*
X174073133Y-74110000D01*
X174213328Y-74110000D01*
X174213328Y-73111290D01*
G37*
G36*
X174143230Y-73976643D02*
G01*
X173571702Y-73976643D01*
X173571702Y-74110000D01*
X174143230Y-74110000D01*
X174143230Y-73976643D01*
G37*
G36*
X178618004Y-75800258D02*
G01*
X178632052Y-75799998D01*
X178645804Y-75799219D01*
X178659260Y-75797920D01*
X178672420Y-75796102D01*
X178685284Y-75793764D01*
X178697851Y-75790907D01*
X178710122Y-75787530D01*
X178722097Y-75783634D01*
X178733776Y-75779218D01*
X178745158Y-75774283D01*
X178752581Y-75770704D01*
X178763379Y-75764929D01*
X178773791Y-75758686D01*
X178783815Y-75751975D01*
X178793454Y-75744795D01*
X178802706Y-75737148D01*
X178811572Y-75729033D01*
X178820051Y-75720450D01*
X178828144Y-75711399D01*
X178835851Y-75701880D01*
X178843171Y-75691893D01*
X178847836Y-75684975D01*
X178854493Y-75674199D01*
X178860725Y-75663028D01*
X178866532Y-75651461D01*
X178871913Y-75639500D01*
X178876870Y-75627144D01*
X178881401Y-75614393D01*
X178885508Y-75601247D01*
X178889190Y-75587705D01*
X178892446Y-75573769D01*
X178895278Y-75559438D01*
X178896929Y-75549665D01*
X178896929Y-75548932D01*
X178756734Y-75548932D01*
X178756734Y-75549665D01*
X178755061Y-75559754D01*
X178752881Y-75569414D01*
X178749187Y-75581626D01*
X178744592Y-75593075D01*
X178739097Y-75603761D01*
X178732701Y-75613683D01*
X178725404Y-75622842D01*
X178717206Y-75631238D01*
X178712770Y-75635150D01*
X178703328Y-75642305D01*
X178693200Y-75648507D01*
X178682385Y-75653754D01*
X178670882Y-75658047D01*
X178658693Y-75661387D01*
X178649100Y-75663265D01*
X178639121Y-75664607D01*
X178628756Y-75665412D01*
X178618004Y-75665680D01*
X178605678Y-75665285D01*
X178593889Y-75664100D01*
X178582637Y-75662125D01*
X178571922Y-75659360D01*
X178561743Y-75655805D01*
X178552101Y-75651460D01*
X178542996Y-75646326D01*
X178534427Y-75640401D01*
X178526395Y-75633686D01*
X178518899Y-75626181D01*
X178514200Y-75620739D01*
X178507609Y-75611947D01*
X178501667Y-75602515D01*
X178496372Y-75592444D01*
X178491726Y-75581733D01*
X178487729Y-75570382D01*
X178484379Y-75558391D01*
X178481678Y-75545761D01*
X178479625Y-75532491D01*
X178478220Y-75518582D01*
X178477464Y-75504032D01*
X178477320Y-75493977D01*
X178477320Y-75410202D01*
X178477464Y-75400207D01*
X178478220Y-75385744D01*
X178479625Y-75371917D01*
X178481678Y-75358725D01*
X178484379Y-75346168D01*
X178487729Y-75334247D01*
X178491726Y-75322961D01*
X178496372Y-75312311D01*
X178501667Y-75302296D01*
X178507609Y-75292917D01*
X178514200Y-75284173D01*
X178521338Y-75276098D01*
X178529012Y-75268817D01*
X178537223Y-75262330D01*
X178545971Y-75256638D01*
X178555255Y-75251740D01*
X178565076Y-75247636D01*
X178575434Y-75244327D01*
X178586328Y-75241812D01*
X178597759Y-75240091D01*
X178609727Y-75239164D01*
X178618004Y-75238988D01*
X178629311Y-75239494D01*
X178640486Y-75241015D01*
X178651531Y-75243549D01*
X178662444Y-75247097D01*
X178673227Y-75251659D01*
X178683878Y-75257234D01*
X178688101Y-75259748D01*
X178696398Y-75265137D01*
X178704435Y-75271045D01*
X178712213Y-75277471D01*
X178719731Y-75284417D01*
X178726989Y-75291881D01*
X178733989Y-75299865D01*
X178740728Y-75308368D01*
X178747208Y-75317390D01*
X178874947Y-75317390D01*
X178874947Y-74791290D01*
X178365945Y-74791290D01*
X178365945Y-74924403D01*
X178734752Y-74924403D01*
X178734752Y-75149106D01*
X178726436Y-75142698D01*
X178717822Y-75136756D01*
X178708909Y-75131278D01*
X178699699Y-75126266D01*
X178690191Y-75121718D01*
X178680384Y-75117636D01*
X178676378Y-75116133D01*
X178666267Y-75112756D01*
X178656085Y-75109951D01*
X178645831Y-75107719D01*
X178635505Y-75106058D01*
X178625108Y-75104971D01*
X178614640Y-75104456D01*
X178610432Y-75104410D01*
X178599722Y-75104550D01*
X178589206Y-75104971D01*
X178578885Y-75105672D01*
X178568758Y-75106654D01*
X178558826Y-75107916D01*
X178549089Y-75109459D01*
X178534848Y-75112299D01*
X178521045Y-75115770D01*
X178507680Y-75119872D01*
X178494753Y-75124606D01*
X178482263Y-75129970D01*
X178470212Y-75135966D01*
X178462421Y-75140314D01*
X178451142Y-75147289D01*
X178440388Y-75154845D01*
X178430157Y-75162980D01*
X178420449Y-75171695D01*
X178411266Y-75180989D01*
X178402606Y-75190863D01*
X178394470Y-75201317D01*
X178386858Y-75212350D01*
X178379770Y-75223963D01*
X178373206Y-75236155D01*
X178369120Y-75244605D01*
X178363402Y-75257723D01*
X178358247Y-75271338D01*
X178355122Y-75280692D01*
X178352247Y-75290267D01*
X178349623Y-75300064D01*
X178347248Y-75310081D01*
X178345123Y-75320321D01*
X178343249Y-75330781D01*
X178341624Y-75341463D01*
X178340249Y-75352366D01*
X178339124Y-75363490D01*
X178338249Y-75374836D01*
X178337624Y-75386403D01*
X178337249Y-75398192D01*
X178337124Y-75410202D01*
X178337124Y-75493977D01*
X178337253Y-75505958D01*
X178337640Y-75517722D01*
X178338284Y-75529268D01*
X178339185Y-75540597D01*
X178340344Y-75551708D01*
X178341761Y-75562602D01*
X178343436Y-75573278D01*
X178345368Y-75583736D01*
X178347557Y-75593977D01*
X178350004Y-75604001D01*
X178352709Y-75613807D01*
X178355672Y-75623395D01*
X178358892Y-75632766D01*
X178362369Y-75641920D01*
X178368069Y-75655242D01*
X178370097Y-75659574D01*
X178376546Y-75672157D01*
X178383527Y-75684169D01*
X178391040Y-75695610D01*
X178399086Y-75706480D01*
X178407664Y-75716779D01*
X178416774Y-75726507D01*
X178426417Y-75735664D01*
X178436592Y-75744250D01*
X178447300Y-75752265D01*
X178458540Y-75759709D01*
X178466329Y-75764354D01*
X178478370Y-75770770D01*
X178490861Y-75776556D01*
X178503803Y-75781710D01*
X178517196Y-75786233D01*
X178531040Y-75790125D01*
X178545335Y-75793386D01*
X178555115Y-75795209D01*
X178565096Y-75796751D01*
X178575276Y-75798014D01*
X178585658Y-75798995D01*
X178596239Y-75799697D01*
X178607021Y-75800117D01*
X178618004Y-75800258D01*
G37*
G36*
X178151988Y-75642965D02*
G01*
X178005198Y-75642965D01*
X178005198Y-75790000D01*
X178151988Y-75790000D01*
X178151988Y-75642965D01*
G37*
G36*
X178151988Y-75069972D02*
G01*
X178005198Y-75069972D01*
X178005198Y-75217006D01*
X178151988Y-75217006D01*
X178151988Y-75069972D01*
G37*
G36*
X177095638Y-75800258D02*
G01*
X177108515Y-75800078D01*
X177121196Y-75799540D01*
X177133680Y-75798643D01*
X177145967Y-75797388D01*
X177158058Y-75795774D01*
X177169953Y-75793801D01*
X177181651Y-75791469D01*
X177193152Y-75788778D01*
X177204457Y-75785729D01*
X177215565Y-75782321D01*
X177226477Y-75778554D01*
X177237192Y-75774429D01*
X177247711Y-75769945D01*
X177258033Y-75765102D01*
X177268158Y-75759900D01*
X177278087Y-75754340D01*
X177287780Y-75748420D01*
X177297196Y-75742200D01*
X177306335Y-75735681D01*
X177315197Y-75728862D01*
X177323783Y-75721744D01*
X177332092Y-75714326D01*
X177340124Y-75706609D01*
X177347880Y-75698592D01*
X177355359Y-75690275D01*
X177362561Y-75681659D01*
X177369487Y-75672743D01*
X177376136Y-75663528D01*
X177382508Y-75654013D01*
X177388603Y-75644198D01*
X177394422Y-75634084D01*
X177399965Y-75623670D01*
X177405200Y-75613003D01*
X177410097Y-75602127D01*
X177414656Y-75591044D01*
X177418878Y-75579752D01*
X177422762Y-75568253D01*
X177426308Y-75556545D01*
X177429517Y-75544630D01*
X177432388Y-75532506D01*
X177434921Y-75520175D01*
X177437116Y-75507636D01*
X177438974Y-75494888D01*
X177440494Y-75481933D01*
X177441676Y-75468770D01*
X177442520Y-75455398D01*
X177443027Y-75441819D01*
X177443196Y-75428032D01*
X177443196Y-75153991D01*
X177443027Y-75140174D01*
X177442520Y-75126567D01*
X177441676Y-75113170D01*
X177440494Y-75099983D01*
X177438974Y-75087006D01*
X177437116Y-75074238D01*
X177434921Y-75061681D01*
X177432388Y-75049333D01*
X177429517Y-75037195D01*
X177426308Y-75025268D01*
X177422762Y-75013550D01*
X177418878Y-75002042D01*
X177414656Y-74990743D01*
X177410097Y-74979655D01*
X177405200Y-74968777D01*
X177399965Y-74958108D01*
X177394422Y-74947694D01*
X177388603Y-74937577D01*
X177382508Y-74927757D01*
X177376136Y-74918236D01*
X177369487Y-74909012D01*
X177362561Y-74900085D01*
X177355359Y-74891457D01*
X177347880Y-74883126D01*
X177340124Y-74875093D01*
X177332092Y-74867357D01*
X177323783Y-74859919D01*
X177315197Y-74852779D01*
X177306335Y-74845936D01*
X177297196Y-74839391D01*
X177287780Y-74833144D01*
X177278087Y-74827194D01*
X177268158Y-74821575D01*
X177258033Y-74816318D01*
X177247711Y-74811423D01*
X177237192Y-74806892D01*
X177226477Y-74802722D01*
X177215565Y-74798915D01*
X177204457Y-74795471D01*
X177193152Y-74792390D01*
X177181651Y-74789670D01*
X177169953Y-74787314D01*
X177158058Y-74785320D01*
X177145967Y-74783688D01*
X177133680Y-74782420D01*
X177121196Y-74781513D01*
X177108515Y-74780969D01*
X177095638Y-74780788D01*
X177084946Y-74780932D01*
X177074362Y-74781364D01*
X177063887Y-74782085D01*
X177053521Y-74783093D01*
X177043264Y-74784390D01*
X177033116Y-74785974D01*
X177023076Y-74787847D01*
X177013145Y-74790008D01*
X177003323Y-74792457D01*
X176993609Y-74795195D01*
X176984005Y-74798220D01*
X176974509Y-74801533D01*
X176965122Y-74805135D01*
X176955843Y-74809025D01*
X176946674Y-74813203D01*
X176937613Y-74817669D01*
X176928699Y-74822368D01*
X176919970Y-74827309D01*
X176911426Y-74832489D01*
X176903068Y-74837910D01*
X176894894Y-74843572D01*
X176886906Y-74849474D01*
X176879102Y-74855616D01*
X176871484Y-74861999D01*
X176864051Y-74868622D01*
X176856803Y-74875486D01*
X176849740Y-74882590D01*
X176842862Y-74889934D01*
X176836169Y-74897519D01*
X176829661Y-74905344D01*
X176823339Y-74913410D01*
X176817201Y-74921716D01*
X176811249Y-74930225D01*
X176805542Y-74938897D01*
X176800082Y-74947734D01*
X176794868Y-74956734D01*
X176789900Y-74965899D01*
X176785179Y-74975228D01*
X176780703Y-74984721D01*
X176776474Y-74994378D01*
X176772490Y-75004200D01*
X176768753Y-75014185D01*
X176765262Y-75024334D01*
X176762018Y-75034648D01*
X176759019Y-75045126D01*
X176756266Y-75055767D01*
X176753760Y-75066573D01*
X176751500Y-75077543D01*
X176895115Y-75077543D01*
X176898626Y-75066037D01*
X176902686Y-75054844D01*
X176907296Y-75043964D01*
X176912456Y-75033396D01*
X176918165Y-75023142D01*
X176924424Y-75013200D01*
X176931232Y-75003572D01*
X176938590Y-74994256D01*
X176946390Y-74985303D01*
X176954527Y-74976885D01*
X176962999Y-74969000D01*
X176971807Y-74961650D01*
X176980951Y-74954834D01*
X176990430Y-74948552D01*
X177000246Y-74942805D01*
X177010397Y-74937592D01*
X177020759Y-74932898D01*
X177031204Y-74928830D01*
X177041733Y-74925387D01*
X177052346Y-74922571D01*
X177063043Y-74920380D01*
X177073824Y-74918816D01*
X177084689Y-74917877D01*
X177095638Y-74917564D01*
X177106956Y-74917824D01*
X177118012Y-74918603D01*
X177128806Y-74919902D01*
X177139338Y-74921720D01*
X177149609Y-74924058D01*
X177159617Y-74926915D01*
X177169364Y-74930292D01*
X177178849Y-74934188D01*
X177188071Y-74938604D01*
X177197032Y-74943539D01*
X177202861Y-74947117D01*
X177211290Y-74952867D01*
X177219358Y-74959033D01*
X177227066Y-74965615D01*
X177234414Y-74972614D01*
X177241400Y-74980029D01*
X177248026Y-74987861D01*
X177254292Y-74996109D01*
X177260197Y-75004774D01*
X177265741Y-75013855D01*
X177270924Y-75023353D01*
X177274180Y-75029916D01*
X177278719Y-75040054D01*
X177282812Y-75050501D01*
X177286458Y-75061257D01*
X177289658Y-75072322D01*
X177292412Y-75083697D01*
X177294719Y-75095380D01*
X177296579Y-75107373D01*
X177297993Y-75119675D01*
X177298961Y-75132286D01*
X177299482Y-75145206D01*
X177299581Y-75153991D01*
X177299581Y-75428032D01*
X177299358Y-75441029D01*
X177298688Y-75453734D01*
X177297572Y-75466148D01*
X177296009Y-75478269D01*
X177293999Y-75490099D01*
X177291544Y-75501636D01*
X177288641Y-75512882D01*
X177285293Y-75523836D01*
X177281497Y-75534498D01*
X177277255Y-75544867D01*
X177274180Y-75551618D01*
X177269236Y-75561435D01*
X177263933Y-75570827D01*
X177258268Y-75579793D01*
X177252243Y-75588335D01*
X177245858Y-75596452D01*
X177239112Y-75604143D01*
X177232005Y-75611410D01*
X177224537Y-75618251D01*
X177216709Y-75624667D01*
X177208520Y-75630659D01*
X177202861Y-75634417D01*
X177194074Y-75639611D01*
X177185026Y-75644294D01*
X177175716Y-75648467D01*
X177166144Y-75652128D01*
X177156310Y-75655279D01*
X177146214Y-75657919D01*
X177135857Y-75660047D01*
X177125237Y-75661665D01*
X177114356Y-75662772D01*
X177103212Y-75663368D01*
X177095638Y-75663482D01*
X177084525Y-75663195D01*
X177073534Y-75662337D01*
X177062665Y-75660906D01*
X177051919Y-75658902D01*
X177041294Y-75656326D01*
X177030792Y-75653178D01*
X177020411Y-75649457D01*
X177010153Y-75645163D01*
X177000059Y-75640244D01*
X176990293Y-75634768D01*
X176980855Y-75628734D01*
X176971746Y-75622144D01*
X176962965Y-75614996D01*
X176954511Y-75607291D01*
X176946387Y-75599028D01*
X176938590Y-75590209D01*
X176931232Y-75580840D01*
X176924424Y-75571051D01*
X176918165Y-75560842D01*
X176912456Y-75550214D01*
X176907296Y-75539166D01*
X176902686Y-75527698D01*
X176898626Y-75515810D01*
X176895115Y-75503503D01*
X176751500Y-75503503D01*
X176753761Y-75514502D01*
X176756270Y-75525336D01*
X176759027Y-75536003D01*
X176762033Y-75546505D01*
X176765286Y-75556840D01*
X176768788Y-75567010D01*
X176772537Y-75577013D01*
X176776535Y-75586851D01*
X176780780Y-75596522D01*
X176785274Y-75606027D01*
X176790016Y-75615367D01*
X176795006Y-75624540D01*
X176800243Y-75633548D01*
X176805729Y-75642389D01*
X176811463Y-75651064D01*
X176817445Y-75659574D01*
X176823642Y-75667851D01*
X176830020Y-75675892D01*
X176836579Y-75683697D01*
X176843320Y-75691264D01*
X176850242Y-75698595D01*
X176857345Y-75705690D01*
X176864629Y-75712548D01*
X176872095Y-75719169D01*
X176879742Y-75725554D01*
X176887570Y-75731702D01*
X176895579Y-75737613D01*
X176903770Y-75743288D01*
X176912142Y-75748726D01*
X176920695Y-75753928D01*
X176929430Y-75758893D01*
X176938346Y-75763621D01*
X176947404Y-75768058D01*
X176956565Y-75772208D01*
X176965829Y-75776072D01*
X176975196Y-75779650D01*
X176984666Y-75782941D01*
X176994239Y-75785947D01*
X177003915Y-75788666D01*
X177013695Y-75791099D01*
X177023577Y-75793245D01*
X177033562Y-75795106D01*
X177043651Y-75796680D01*
X177053842Y-75797968D01*
X177064136Y-75798970D01*
X177074534Y-75799685D01*
X177085034Y-75800115D01*
X177095638Y-75800258D01*
G37*
G36*
X176326029Y-74791290D02*
G01*
X176206594Y-74791290D01*
X175838276Y-75790000D01*
X175989462Y-75790000D01*
X176266189Y-74984242D01*
X176543161Y-75790000D01*
X176694103Y-75790000D01*
X176326029Y-74791290D01*
G37*
G36*
X176524598Y-75437557D02*
G01*
X175998988Y-75437557D01*
X175998988Y-75570914D01*
X176524598Y-75570914D01*
X176524598Y-75437557D01*
G37*
G36*
X175692463Y-74791290D02*
G01*
X175565212Y-74791290D01*
X175076971Y-75563342D01*
X175093335Y-75581172D01*
X175093335Y-74791290D01*
X174954605Y-74791290D01*
X174954605Y-75789267D01*
X175083077Y-75789267D01*
X175570097Y-75028939D01*
X175553733Y-75011109D01*
X175553733Y-75789267D01*
X175692463Y-75789267D01*
X175692463Y-74791290D01*
G37*
G36*
X174492009Y-75790000D02*
G01*
X174632205Y-75790000D01*
X174632205Y-74943698D01*
X174774354Y-75030893D01*
X174774354Y-74886057D01*
X174632205Y-74791290D01*
X174492009Y-74791290D01*
X174492009Y-75790000D01*
G37*
G36*
X173680146Y-74791290D02*
G01*
X173539951Y-74791290D01*
X173539951Y-75790000D01*
X173680146Y-75790000D01*
X173680146Y-74791290D01*
G37*
G36*
X174247522Y-74791290D02*
G01*
X174107327Y-74791290D01*
X174107327Y-75790000D01*
X174247522Y-75790000D01*
X174247522Y-74791290D01*
G37*
G36*
X174160327Y-75231416D02*
G01*
X173605896Y-75231416D01*
X173605896Y-75364773D01*
X174160327Y-75364773D01*
X174160327Y-75231416D01*
G37*
G36*
X178848080Y-76901158D02*
G01*
X178848691Y-76902380D01*
X178853271Y-76911607D01*
X178857850Y-76920942D01*
X178858428Y-76922165D01*
X178862643Y-76931460D01*
X178866643Y-76940969D01*
X178869710Y-76948366D01*
X178874136Y-76959494D01*
X178878351Y-76970660D01*
X178882356Y-76981865D01*
X178886151Y-76993109D01*
X178889735Y-77004391D01*
X178893109Y-77015712D01*
X178896272Y-77027071D01*
X178899225Y-77038469D01*
X178901968Y-77049906D01*
X178904501Y-77061381D01*
X178906068Y-77068993D01*
X178908230Y-77080332D01*
X178910164Y-77091576D01*
X178911871Y-77102726D01*
X178913350Y-77113781D01*
X178914601Y-77124742D01*
X178915625Y-77135608D01*
X178916421Y-77146380D01*
X178916990Y-77157058D01*
X178917332Y-77167641D01*
X178917445Y-77178129D01*
X178917445Y-77178618D01*
X178917414Y-77184559D01*
X178917160Y-77196279D01*
X178916652Y-77207781D01*
X178915891Y-77219066D01*
X178914876Y-77230133D01*
X178913607Y-77240983D01*
X178912084Y-77251615D01*
X178910308Y-77262030D01*
X178908277Y-77272227D01*
X178905993Y-77282207D01*
X178903456Y-77291969D01*
X178900664Y-77301513D01*
X178896001Y-77315422D01*
X178890766Y-77328842D01*
X178884961Y-77341772D01*
X178880754Y-77350103D01*
X178874006Y-77362127D01*
X178866734Y-77373585D01*
X178858939Y-77384475D01*
X178850620Y-77394799D01*
X178841777Y-77404557D01*
X178832411Y-77413747D01*
X178822520Y-77422371D01*
X178812106Y-77430428D01*
X178801168Y-77437919D01*
X178789706Y-77444842D01*
X178777759Y-77451172D01*
X178765366Y-77456878D01*
X178752526Y-77461962D01*
X178739240Y-77466424D01*
X178725507Y-77470263D01*
X178711327Y-77473479D01*
X178701626Y-77475277D01*
X178691727Y-77476799D01*
X178681629Y-77478044D01*
X178671333Y-77479013D01*
X178660838Y-77479704D01*
X178650145Y-77480119D01*
X178639253Y-77480258D01*
X178628360Y-77480118D01*
X178617664Y-77479701D01*
X178607164Y-77479004D01*
X178596861Y-77478029D01*
X178586755Y-77476775D01*
X178576845Y-77475243D01*
X178567132Y-77473432D01*
X178552930Y-77470194D01*
X178539170Y-77466328D01*
X178525853Y-77461836D01*
X178512978Y-77456717D01*
X178500546Y-77450971D01*
X178488555Y-77444598D01*
X178480827Y-77440012D01*
X178469679Y-77432650D01*
X178459063Y-77424708D01*
X178448979Y-77416186D01*
X178439428Y-77407085D01*
X178430409Y-77397404D01*
X178421922Y-77387144D01*
X178413968Y-77376304D01*
X178406547Y-77364884D01*
X178399657Y-77352885D01*
X178393300Y-77340307D01*
X178391287Y-77335975D01*
X178385630Y-77322660D01*
X178382178Y-77313516D01*
X178378982Y-77304159D01*
X178376041Y-77294587D01*
X178373356Y-77284802D01*
X178370927Y-77274804D01*
X178368754Y-77264591D01*
X178366836Y-77254165D01*
X178365174Y-77243525D01*
X178363768Y-77232672D01*
X178362617Y-77221605D01*
X178361722Y-77210324D01*
X178361083Y-77198829D01*
X178360700Y-77187120D01*
X178360698Y-77186922D01*
X178500523Y-77186922D01*
X178500664Y-77196311D01*
X178501405Y-77209883D01*
X178502782Y-77222841D01*
X178504794Y-77235185D01*
X178507442Y-77246915D01*
X178510725Y-77258031D01*
X178514643Y-77268533D01*
X178519197Y-77278422D01*
X178524386Y-77287696D01*
X178530211Y-77296356D01*
X178536671Y-77304403D01*
X178541308Y-77309401D01*
X178548706Y-77316294D01*
X178556638Y-77322462D01*
X178565101Y-77327903D01*
X178574097Y-77332620D01*
X178583626Y-77336610D01*
X178593686Y-77339875D01*
X178604279Y-77342415D01*
X178615405Y-77344229D01*
X178627063Y-77345317D01*
X178639253Y-77345680D01*
X178647380Y-77345521D01*
X178659133Y-77344684D01*
X178670363Y-77343131D01*
X178681069Y-77340860D01*
X178691252Y-77337873D01*
X178700910Y-77334168D01*
X178710045Y-77329747D01*
X178718656Y-77324608D01*
X178726743Y-77318753D01*
X178734307Y-77312181D01*
X178741346Y-77304891D01*
X178745724Y-77299625D01*
X178751760Y-77291210D01*
X178757161Y-77282177D01*
X178761927Y-77272525D01*
X178766057Y-77262256D01*
X178769552Y-77251368D01*
X178772411Y-77239862D01*
X178774635Y-77227737D01*
X178776223Y-77214995D01*
X178777177Y-77201634D01*
X178777494Y-77187655D01*
X178777494Y-77186922D01*
X178777461Y-77181723D01*
X178777192Y-77171547D01*
X178776653Y-77161667D01*
X178775342Y-77147400D01*
X178773425Y-77133800D01*
X178770903Y-77120865D01*
X178767775Y-77108595D01*
X178764042Y-77096991D01*
X178759703Y-77086052D01*
X178754760Y-77075779D01*
X178749211Y-77066171D01*
X178743056Y-77057229D01*
X178738642Y-77051639D01*
X178731614Y-77043930D01*
X178724097Y-77037033D01*
X178716090Y-77030947D01*
X178707593Y-77025673D01*
X178698607Y-77021210D01*
X178689132Y-77017559D01*
X178679167Y-77014719D01*
X178668713Y-77012690D01*
X178657769Y-77011473D01*
X178646336Y-77011067D01*
X178637700Y-77011246D01*
X178625217Y-77012182D01*
X178613302Y-77013922D01*
X178601953Y-77016464D01*
X178591171Y-77019809D01*
X178580956Y-77023957D01*
X178571308Y-77028908D01*
X178562226Y-77034662D01*
X178553711Y-77041219D01*
X178545762Y-77048578D01*
X178538381Y-77056741D01*
X178536051Y-77059632D01*
X178529508Y-77068754D01*
X178523629Y-77078546D01*
X178518417Y-77089007D01*
X178513869Y-77100139D01*
X178509987Y-77111939D01*
X178506771Y-77124410D01*
X178504220Y-77137551D01*
X178502334Y-77151361D01*
X178501114Y-77165841D01*
X178500671Y-77175866D01*
X178500523Y-77186189D01*
X178500523Y-77186922D01*
X178360698Y-77186922D01*
X178360572Y-77175198D01*
X178360572Y-77174710D01*
X178360684Y-77163032D01*
X178361022Y-77151568D01*
X178361585Y-77140317D01*
X178362373Y-77129281D01*
X178363386Y-77118458D01*
X178364625Y-77107848D01*
X178366088Y-77097453D01*
X178367777Y-77087271D01*
X178369691Y-77077303D01*
X178371830Y-77067548D01*
X178375461Y-77053317D01*
X178379598Y-77039567D01*
X178384242Y-77026298D01*
X178389392Y-77013510D01*
X178393100Y-77005269D01*
X178399055Y-76993377D01*
X178405482Y-76982048D01*
X178412381Y-76971281D01*
X178419753Y-76961077D01*
X178427597Y-76951434D01*
X178435913Y-76942355D01*
X178444701Y-76933838D01*
X178453962Y-76925883D01*
X178463695Y-76918490D01*
X178473900Y-76911660D01*
X178480918Y-76907401D01*
X178491769Y-76901528D01*
X178503011Y-76896273D01*
X178514644Y-76891636D01*
X178526667Y-76887618D01*
X178539082Y-76884217D01*
X178551886Y-76881435D01*
X178565082Y-76879271D01*
X178578668Y-76877726D01*
X178592645Y-76876799D01*
X178607013Y-76876489D01*
X178609750Y-76876507D01*
X178620483Y-76876925D01*
X178630873Y-76877900D01*
X178640919Y-76879432D01*
X178650622Y-76881521D01*
X178662268Y-76884917D01*
X178673377Y-76889183D01*
X178683949Y-76894319D01*
X178688010Y-76896604D01*
X178697627Y-76902809D01*
X178702806Y-76906850D01*
X178480006Y-76471290D01*
X178631193Y-76471290D01*
X178848080Y-76901158D01*
G37*
G36*
X178195952Y-77322965D02*
G01*
X178049162Y-77322965D01*
X178049162Y-77470000D01*
X178195952Y-77470000D01*
X178195952Y-77322965D01*
G37*
G36*
X178195952Y-76749972D02*
G01*
X178049162Y-76749972D01*
X178049162Y-76897006D01*
X178195952Y-76897006D01*
X178195952Y-76749972D01*
G37*
G36*
X177139602Y-77480258D02*
G01*
X177152479Y-77480078D01*
X177165159Y-77479540D01*
X177177644Y-77478643D01*
X177189931Y-77477388D01*
X177202022Y-77475774D01*
X177213916Y-77473801D01*
X177225614Y-77471469D01*
X177237116Y-77468778D01*
X177248421Y-77465729D01*
X177259529Y-77462321D01*
X177270441Y-77458554D01*
X177281156Y-77454429D01*
X177291674Y-77449945D01*
X177301997Y-77445102D01*
X177312122Y-77439900D01*
X177322051Y-77434340D01*
X177331744Y-77428420D01*
X177341159Y-77422200D01*
X177350298Y-77415681D01*
X177359161Y-77408862D01*
X177367746Y-77401744D01*
X177376056Y-77394326D01*
X177384088Y-77386609D01*
X177391844Y-77378592D01*
X177399323Y-77370275D01*
X177406525Y-77361659D01*
X177413450Y-77352743D01*
X177420099Y-77343528D01*
X177426472Y-77334013D01*
X177432567Y-77324198D01*
X177438386Y-77314084D01*
X177443928Y-77303670D01*
X177449163Y-77293003D01*
X177454061Y-77282127D01*
X177458620Y-77271044D01*
X177462842Y-77259752D01*
X177466726Y-77248253D01*
X177470272Y-77236545D01*
X177473481Y-77224630D01*
X177476352Y-77212506D01*
X177478885Y-77200175D01*
X177481080Y-77187636D01*
X177482938Y-77174888D01*
X177484457Y-77161933D01*
X177485639Y-77148770D01*
X177486484Y-77135398D01*
X177486990Y-77121819D01*
X177487159Y-77108032D01*
X177487159Y-76833991D01*
X177486990Y-76820174D01*
X177486484Y-76806567D01*
X177485639Y-76793170D01*
X177484457Y-76779983D01*
X177482938Y-76767006D01*
X177481080Y-76754238D01*
X177478885Y-76741681D01*
X177476352Y-76729333D01*
X177473481Y-76717195D01*
X177470272Y-76705268D01*
X177466726Y-76693550D01*
X177462842Y-76682042D01*
X177458620Y-76670743D01*
X177454061Y-76659655D01*
X177449163Y-76648777D01*
X177443928Y-76638108D01*
X177438386Y-76627694D01*
X177432567Y-76617577D01*
X177426472Y-76607757D01*
X177420099Y-76598236D01*
X177413450Y-76589012D01*
X177406525Y-76580085D01*
X177399323Y-76571457D01*
X177391844Y-76563126D01*
X177384088Y-76555093D01*
X177376056Y-76547357D01*
X177367746Y-76539919D01*
X177359161Y-76532779D01*
X177350298Y-76525936D01*
X177341159Y-76519391D01*
X177331744Y-76513144D01*
X177322051Y-76507194D01*
X177312122Y-76501575D01*
X177301997Y-76496318D01*
X177291674Y-76491423D01*
X177281156Y-76486892D01*
X177270441Y-76482722D01*
X177259529Y-76478915D01*
X177248421Y-76475471D01*
X177237116Y-76472390D01*
X177225614Y-76469670D01*
X177213916Y-76467314D01*
X177202022Y-76465320D01*
X177189931Y-76463688D01*
X177177644Y-76462420D01*
X177165159Y-76461513D01*
X177152479Y-76460969D01*
X177139602Y-76460788D01*
X177128909Y-76460932D01*
X177118326Y-76461364D01*
X177107851Y-76462085D01*
X177097485Y-76463093D01*
X177087228Y-76464390D01*
X177077079Y-76465974D01*
X177067040Y-76467847D01*
X177057109Y-76470008D01*
X177047287Y-76472457D01*
X177037573Y-76475195D01*
X177027968Y-76478220D01*
X177018473Y-76481533D01*
X177009085Y-76485135D01*
X176999807Y-76489025D01*
X176990637Y-76493203D01*
X176981577Y-76497669D01*
X176972663Y-76502368D01*
X176963934Y-76507309D01*
X176955390Y-76512489D01*
X176947032Y-76517910D01*
X176938858Y-76523572D01*
X176930870Y-76529474D01*
X176923066Y-76535616D01*
X176915448Y-76541999D01*
X176908015Y-76548622D01*
X176900767Y-76555486D01*
X176893704Y-76562590D01*
X176886826Y-76569934D01*
X176880133Y-76577519D01*
X176873625Y-76585344D01*
X176867302Y-76593410D01*
X176861165Y-76601716D01*
X176855212Y-76610225D01*
X176849506Y-76618897D01*
X176844046Y-76627734D01*
X176838832Y-76636734D01*
X176833864Y-76645899D01*
X176829142Y-76655228D01*
X176824667Y-76664721D01*
X176820437Y-76674378D01*
X176816454Y-76684200D01*
X176812717Y-76694185D01*
X176809226Y-76704334D01*
X176805981Y-76714648D01*
X176802983Y-76725126D01*
X176800230Y-76735767D01*
X176797724Y-76746573D01*
X176795464Y-76757543D01*
X176939078Y-76757543D01*
X176942589Y-76746037D01*
X176946650Y-76734844D01*
X176951260Y-76723964D01*
X176956420Y-76713396D01*
X176962129Y-76703142D01*
X176968387Y-76693200D01*
X176975196Y-76683572D01*
X176982554Y-76674256D01*
X176990354Y-76665303D01*
X176998490Y-76656885D01*
X177006963Y-76649000D01*
X177015771Y-76641650D01*
X177024914Y-76634834D01*
X177034394Y-76628552D01*
X177044210Y-76622805D01*
X177054361Y-76617592D01*
X177064722Y-76612898D01*
X177075167Y-76608830D01*
X177085697Y-76605387D01*
X177096310Y-76602571D01*
X177107007Y-76600380D01*
X177117788Y-76598816D01*
X177128653Y-76597877D01*
X177139602Y-76597564D01*
X177150920Y-76597824D01*
X177161976Y-76598603D01*
X177172770Y-76599902D01*
X177183302Y-76601720D01*
X177193572Y-76604058D01*
X177203581Y-76606915D01*
X177213328Y-76610292D01*
X177222812Y-76614188D01*
X177232035Y-76618604D01*
X177240996Y-76623539D01*
X177246824Y-76627117D01*
X177255254Y-76632867D01*
X177263322Y-76639033D01*
X177271030Y-76645615D01*
X177278377Y-76652614D01*
X177285364Y-76660029D01*
X177291990Y-76667861D01*
X177298256Y-76676109D01*
X177304160Y-76684774D01*
X177309704Y-76693855D01*
X177314888Y-76703353D01*
X177318143Y-76709916D01*
X177322683Y-76720054D01*
X177326776Y-76730501D01*
X177330422Y-76741257D01*
X177333622Y-76752322D01*
X177336376Y-76763697D01*
X177338683Y-76775380D01*
X177340543Y-76787373D01*
X177341957Y-76799675D01*
X177342924Y-76812286D01*
X177343445Y-76825206D01*
X177343545Y-76833991D01*
X177343545Y-77108032D01*
X177343321Y-77121029D01*
X177342651Y-77133734D01*
X177341535Y-77146148D01*
X177339972Y-77158269D01*
X177337963Y-77170099D01*
X177335507Y-77181636D01*
X177332605Y-77192882D01*
X177329256Y-77203836D01*
X177325461Y-77214498D01*
X177321219Y-77224867D01*
X177318143Y-77231618D01*
X177313200Y-77241435D01*
X177307897Y-77250827D01*
X177302232Y-77259793D01*
X177296207Y-77268335D01*
X177289822Y-77276452D01*
X177283075Y-77284143D01*
X177275968Y-77291410D01*
X177268501Y-77298251D01*
X177260673Y-77304667D01*
X177252484Y-77310659D01*
X177246824Y-77314417D01*
X177238038Y-77319611D01*
X177228990Y-77324294D01*
X177219680Y-77328467D01*
X177210108Y-77332128D01*
X177200274Y-77335279D01*
X177190178Y-77337919D01*
X177179820Y-77340047D01*
X177169201Y-77341665D01*
X177158319Y-77342772D01*
X177147176Y-77343368D01*
X177139602Y-77343482D01*
X177128489Y-77343195D01*
X177117498Y-77342337D01*
X177106629Y-77340906D01*
X177095882Y-77338902D01*
X177085258Y-77336326D01*
X177074755Y-77333178D01*
X177064375Y-77329457D01*
X177054117Y-77325163D01*
X177044023Y-77320244D01*
X177034257Y-77314768D01*
X177024819Y-77308734D01*
X177015710Y-77302144D01*
X177006928Y-77294996D01*
X176998475Y-77287291D01*
X176990350Y-77279028D01*
X176982554Y-77270209D01*
X176975196Y-77260840D01*
X176968387Y-77251051D01*
X176962129Y-77240842D01*
X176956420Y-77230214D01*
X176951260Y-77219166D01*
X176946650Y-77207698D01*
X176942589Y-77195810D01*
X176939078Y-77183503D01*
X176795464Y-77183503D01*
X176797725Y-77194502D01*
X176800234Y-77205336D01*
X176802991Y-77216003D01*
X176805997Y-77226505D01*
X176809250Y-77236840D01*
X176812751Y-77247010D01*
X176816501Y-77257013D01*
X176820498Y-77266851D01*
X176824744Y-77276522D01*
X176829238Y-77286027D01*
X176833980Y-77295367D01*
X176838969Y-77304540D01*
X176844207Y-77313548D01*
X176849693Y-77322389D01*
X176855427Y-77331064D01*
X176861409Y-77339574D01*
X176867606Y-77347851D01*
X176873984Y-77355892D01*
X176880543Y-77363697D01*
X176887284Y-77371264D01*
X176894205Y-77378595D01*
X176901308Y-77385690D01*
X176908593Y-77392548D01*
X176916058Y-77399169D01*
X176923705Y-77405554D01*
X176931534Y-77411702D01*
X176939543Y-77417613D01*
X176947734Y-77423288D01*
X176956106Y-77428726D01*
X176964659Y-77433928D01*
X176973394Y-77438893D01*
X176982309Y-77443621D01*
X176991367Y-77448058D01*
X177000528Y-77452208D01*
X177009792Y-77456072D01*
X177019159Y-77459650D01*
X177028630Y-77462941D01*
X177038203Y-77465947D01*
X177047879Y-77468666D01*
X177057658Y-77471099D01*
X177067541Y-77473245D01*
X177077526Y-77475106D01*
X177087614Y-77476680D01*
X177097806Y-77477968D01*
X177108100Y-77478970D01*
X177118498Y-77479685D01*
X177128998Y-77480115D01*
X177139602Y-77480258D01*
G37*
G36*
X176369993Y-76471290D02*
G01*
X176250558Y-76471290D01*
X175882240Y-77470000D01*
X176033426Y-77470000D01*
X176310153Y-76664242D01*
X176587124Y-77470000D01*
X176738066Y-77470000D01*
X176369993Y-76471290D01*
G37*
G36*
X176568562Y-77117557D02*
G01*
X176042951Y-77117557D01*
X176042951Y-77250914D01*
X176568562Y-77250914D01*
X176568562Y-77117557D01*
G37*
G36*
X175736427Y-76471290D02*
G01*
X175609176Y-76471290D01*
X175120935Y-77243342D01*
X175137299Y-77261172D01*
X175137299Y-76471290D01*
X174998569Y-76471290D01*
X174998569Y-77469267D01*
X175127041Y-77469267D01*
X175614061Y-76708939D01*
X175597697Y-76691109D01*
X175597697Y-77469267D01*
X175736427Y-77469267D01*
X175736427Y-76471290D01*
G37*
G36*
X174792184Y-77348367D02*
G01*
X174443893Y-76884061D01*
X174436532Y-76874058D01*
X174429590Y-76863957D01*
X174423068Y-76853756D01*
X174416966Y-76843456D01*
X174411283Y-76833056D01*
X174406021Y-76822558D01*
X174401178Y-76811960D01*
X174396755Y-76801263D01*
X174392805Y-76790607D01*
X174389381Y-76780136D01*
X174386485Y-76769847D01*
X174384115Y-76759741D01*
X174382272Y-76749819D01*
X174380955Y-76740080D01*
X174380050Y-76728163D01*
X174379902Y-76721151D01*
X174379902Y-76719930D01*
X174380211Y-76708946D01*
X174381138Y-76698434D01*
X174382684Y-76688395D01*
X174384848Y-76678828D01*
X174388695Y-76666807D01*
X174393640Y-76655625D01*
X174399685Y-76645283D01*
X174406830Y-76635780D01*
X174415073Y-76627117D01*
X174424270Y-76619389D01*
X174434398Y-76612692D01*
X174445458Y-76607025D01*
X174457449Y-76602388D01*
X174467053Y-76599586D01*
X174477181Y-76597365D01*
X174487833Y-76595722D01*
X174499008Y-76594660D01*
X174510708Y-76594177D01*
X174514724Y-76594145D01*
X174525969Y-76594462D01*
X174536806Y-76595415D01*
X174547235Y-76597004D01*
X174557256Y-76599228D01*
X174566870Y-76602087D01*
X174576076Y-76605582D01*
X174587715Y-76611230D01*
X174598630Y-76618008D01*
X174608819Y-76625915D01*
X174613642Y-76630293D01*
X174622588Y-76639738D01*
X174628696Y-76647438D01*
X174634288Y-76655666D01*
X174639366Y-76664422D01*
X174643928Y-76673707D01*
X174647976Y-76683519D01*
X174651507Y-76693860D01*
X174654524Y-76704728D01*
X174657026Y-76716125D01*
X174659012Y-76728050D01*
X174659560Y-76732142D01*
X174659560Y-76732875D01*
X174804640Y-76732875D01*
X174804640Y-76732142D01*
X174802983Y-76721523D01*
X174801125Y-76711099D01*
X174799067Y-76700869D01*
X174796809Y-76690834D01*
X174794350Y-76680994D01*
X174791691Y-76671348D01*
X174788832Y-76661897D01*
X174784167Y-76648086D01*
X174779052Y-76634712D01*
X174773486Y-76621776D01*
X174767468Y-76609278D01*
X174761001Y-76597218D01*
X174754082Y-76585596D01*
X174746742Y-76574446D01*
X174739012Y-76563803D01*
X174730891Y-76553667D01*
X174722380Y-76544037D01*
X174713478Y-76534913D01*
X174704185Y-76526297D01*
X174694501Y-76518187D01*
X174684427Y-76510583D01*
X174673962Y-76503486D01*
X174663106Y-76496896D01*
X174655652Y-76492784D01*
X174644132Y-76487066D01*
X174632285Y-76481910D01*
X174620112Y-76477317D01*
X174607612Y-76473286D01*
X174594787Y-76469818D01*
X174581635Y-76466912D01*
X174568157Y-76464569D01*
X174554352Y-76462788D01*
X174540221Y-76461569D01*
X174525764Y-76460913D01*
X174515945Y-76460788D01*
X174504903Y-76460908D01*
X174494062Y-76461269D01*
X174483425Y-76461870D01*
X174472989Y-76462711D01*
X174462755Y-76463793D01*
X174452724Y-76465116D01*
X174442895Y-76466679D01*
X174433269Y-76468482D01*
X174419208Y-76471637D01*
X174405603Y-76475334D01*
X174392452Y-76479571D01*
X174379757Y-76484350D01*
X174367516Y-76489669D01*
X174363538Y-76491563D01*
X174351943Y-76497532D01*
X174340880Y-76503990D01*
X174330350Y-76510938D01*
X174320352Y-76518376D01*
X174310887Y-76526303D01*
X174301954Y-76534719D01*
X174293553Y-76543625D01*
X174285685Y-76553020D01*
X174278349Y-76562905D01*
X174271546Y-76573279D01*
X174267306Y-76580467D01*
X174261413Y-76591623D01*
X174256100Y-76603199D01*
X174251367Y-76615196D01*
X174247213Y-76627614D01*
X174243639Y-76640452D01*
X174240644Y-76653711D01*
X174238229Y-76667391D01*
X174236394Y-76681492D01*
X174235138Y-76696013D01*
X174234623Y-76705928D01*
X174234365Y-76716030D01*
X174234333Y-76721151D01*
X174234333Y-76721884D01*
X174234526Y-76731862D01*
X174235106Y-76741922D01*
X174236072Y-76752064D01*
X174237424Y-76762287D01*
X174239163Y-76772591D01*
X174241288Y-76782978D01*
X174243800Y-76793446D01*
X174246698Y-76803995D01*
X174249982Y-76814626D01*
X174253653Y-76825339D01*
X174256315Y-76832526D01*
X174260589Y-76843299D01*
X174265168Y-76854004D01*
X174270051Y-76864640D01*
X174275240Y-76875207D01*
X174280733Y-76885706D01*
X174286531Y-76896136D01*
X174292634Y-76906497D01*
X174299042Y-76916789D01*
X174305755Y-76927013D01*
X174312772Y-76937168D01*
X174317620Y-76943900D01*
X174606803Y-77336643D01*
X174228960Y-77336643D01*
X174228960Y-77470000D01*
X174792184Y-77470000D01*
X174792184Y-77348367D01*
G37*
G36*
X173466189Y-76471290D02*
G01*
X173325994Y-76471290D01*
X173325994Y-77470000D01*
X173466189Y-77470000D01*
X173466189Y-76471290D01*
G37*
G36*
X174033565Y-76471290D02*
G01*
X173893370Y-76471290D01*
X173893370Y-77470000D01*
X174033565Y-77470000D01*
X174033565Y-76471290D01*
G37*
G36*
X173946371Y-76911416D02*
G01*
X173391939Y-76911416D01*
X173391939Y-77044773D01*
X173946371Y-77044773D01*
X173946371Y-76911416D01*
G37*
G36*
X178381088Y-78276099D02*
G01*
X178639253Y-79150000D01*
X178788485Y-79150000D01*
X178530076Y-78284403D01*
X178784333Y-78284403D01*
X178784333Y-78428018D01*
X178924528Y-78428018D01*
X178924528Y-78151290D01*
X178381088Y-78151290D01*
X178381088Y-78276099D01*
G37*
G36*
X178209630Y-79002965D02*
G01*
X178062840Y-79002965D01*
X178062840Y-79150000D01*
X178209630Y-79150000D01*
X178209630Y-79002965D01*
G37*
G36*
X178209630Y-78429972D02*
G01*
X178062840Y-78429972D01*
X178062840Y-78577006D01*
X178209630Y-78577006D01*
X178209630Y-78429972D01*
G37*
G36*
X177153279Y-79160258D02*
G01*
X177166156Y-79160078D01*
X177178837Y-79159540D01*
X177191321Y-79158643D01*
X177203609Y-79157388D01*
X177215700Y-79155774D01*
X177227594Y-79153801D01*
X177239292Y-79151469D01*
X177250793Y-79148778D01*
X177262098Y-79145729D01*
X177273206Y-79142321D01*
X177284118Y-79138554D01*
X177294833Y-79134429D01*
X177305352Y-79129945D01*
X177315674Y-79125102D01*
X177325800Y-79119900D01*
X177335729Y-79114340D01*
X177345421Y-79108420D01*
X177354837Y-79102200D01*
X177363976Y-79095681D01*
X177372838Y-79088862D01*
X177381424Y-79081744D01*
X177389733Y-79074326D01*
X177397765Y-79066609D01*
X177405521Y-79058592D01*
X177413000Y-79050275D01*
X177420202Y-79041659D01*
X177427128Y-79032743D01*
X177433777Y-79023528D01*
X177440149Y-79014013D01*
X177446245Y-79004198D01*
X177452064Y-78994084D01*
X177457606Y-78983670D01*
X177462841Y-78973003D01*
X177467738Y-78962127D01*
X177472298Y-78951044D01*
X177476519Y-78939752D01*
X177480404Y-78928253D01*
X177483950Y-78916545D01*
X177487158Y-78904630D01*
X177490029Y-78892506D01*
X177492562Y-78880175D01*
X177494758Y-78867636D01*
X177496615Y-78854888D01*
X177498135Y-78841933D01*
X177499317Y-78828770D01*
X177500161Y-78815398D01*
X177500668Y-78801819D01*
X177500837Y-78788032D01*
X177500837Y-78513991D01*
X177500668Y-78500174D01*
X177500161Y-78486567D01*
X177499317Y-78473170D01*
X177498135Y-78459983D01*
X177496615Y-78447006D01*
X177494758Y-78434238D01*
X177492562Y-78421681D01*
X177490029Y-78409333D01*
X177487158Y-78397195D01*
X177483950Y-78385268D01*
X177480404Y-78373550D01*
X177476519Y-78362042D01*
X177472298Y-78350743D01*
X177467738Y-78339655D01*
X177462841Y-78328777D01*
X177457606Y-78318108D01*
X177452064Y-78307694D01*
X177446245Y-78297577D01*
X177440149Y-78287757D01*
X177433777Y-78278236D01*
X177427128Y-78269012D01*
X177420202Y-78260085D01*
X177413000Y-78251457D01*
X177405521Y-78243126D01*
X177397765Y-78235093D01*
X177389733Y-78227357D01*
X177381424Y-78219919D01*
X177372838Y-78212779D01*
X177363976Y-78205936D01*
X177354837Y-78199391D01*
X177345421Y-78193144D01*
X177335729Y-78187194D01*
X177325800Y-78181575D01*
X177315674Y-78176318D01*
X177305352Y-78171423D01*
X177294833Y-78166892D01*
X177284118Y-78162722D01*
X177273206Y-78158915D01*
X177262098Y-78155471D01*
X177250793Y-78152390D01*
X177239292Y-78149670D01*
X177227594Y-78147314D01*
X177215700Y-78145320D01*
X177203609Y-78143688D01*
X177191321Y-78142420D01*
X177178837Y-78141513D01*
X177166156Y-78140969D01*
X177153279Y-78140788D01*
X177142587Y-78140932D01*
X177132003Y-78141364D01*
X177121529Y-78142085D01*
X177111163Y-78143093D01*
X177100905Y-78144390D01*
X177090757Y-78145974D01*
X177080717Y-78147847D01*
X177070786Y-78150008D01*
X177060964Y-78152457D01*
X177051251Y-78155195D01*
X177041646Y-78158220D01*
X177032150Y-78161533D01*
X177022763Y-78165135D01*
X177013485Y-78169025D01*
X177004315Y-78173203D01*
X176995254Y-78177669D01*
X176986340Y-78182368D01*
X176977611Y-78187309D01*
X176969068Y-78192489D01*
X176960709Y-78197910D01*
X176952536Y-78203572D01*
X176944547Y-78209474D01*
X176936744Y-78215616D01*
X176929125Y-78221999D01*
X176921692Y-78228622D01*
X176914444Y-78235486D01*
X176907381Y-78242590D01*
X176900503Y-78249934D01*
X176893810Y-78257519D01*
X176887303Y-78265344D01*
X176880980Y-78273410D01*
X176874842Y-78281716D01*
X176868890Y-78290225D01*
X176863184Y-78298897D01*
X176857724Y-78307734D01*
X176852510Y-78316734D01*
X176847542Y-78325899D01*
X176842820Y-78335228D01*
X176838344Y-78344721D01*
X176834115Y-78354378D01*
X176830132Y-78364200D01*
X176826395Y-78374185D01*
X176822904Y-78384334D01*
X176819659Y-78394648D01*
X176816660Y-78405126D01*
X176813908Y-78415767D01*
X176811401Y-78426573D01*
X176809141Y-78437543D01*
X176952756Y-78437543D01*
X176956267Y-78426037D01*
X176960327Y-78414844D01*
X176964938Y-78403964D01*
X176970097Y-78393396D01*
X176975806Y-78383142D01*
X176982065Y-78373200D01*
X176988873Y-78363572D01*
X176996231Y-78354256D01*
X177004032Y-78345303D01*
X177012168Y-78336885D01*
X177020640Y-78329000D01*
X177029448Y-78321650D01*
X177038592Y-78314834D01*
X177048072Y-78308552D01*
X177057887Y-78302805D01*
X177068039Y-78297592D01*
X177078400Y-78292898D01*
X177088845Y-78288830D01*
X177099374Y-78285387D01*
X177109987Y-78282571D01*
X177120684Y-78280380D01*
X177131465Y-78278816D01*
X177142330Y-78277877D01*
X177153279Y-78277564D01*
X177164597Y-78277824D01*
X177175653Y-78278603D01*
X177186447Y-78279902D01*
X177196980Y-78281720D01*
X177207250Y-78284058D01*
X177217259Y-78286915D01*
X177227005Y-78290292D01*
X177236490Y-78294188D01*
X177245713Y-78298604D01*
X177254674Y-78303539D01*
X177260502Y-78307117D01*
X177268931Y-78312867D01*
X177277000Y-78319033D01*
X177284708Y-78325615D01*
X177292055Y-78332614D01*
X177299042Y-78340029D01*
X177305668Y-78347861D01*
X177311933Y-78356109D01*
X177317838Y-78364774D01*
X177323382Y-78373855D01*
X177328566Y-78383353D01*
X177331821Y-78389916D01*
X177336360Y-78400054D01*
X177340453Y-78410501D01*
X177344100Y-78421257D01*
X177347300Y-78432322D01*
X177350053Y-78443697D01*
X177352360Y-78455380D01*
X177354221Y-78467373D01*
X177355635Y-78479675D01*
X177356602Y-78492286D01*
X177357123Y-78505206D01*
X177357222Y-78513991D01*
X177357222Y-78788032D01*
X177356999Y-78801029D01*
X177356329Y-78813734D01*
X177355213Y-78826148D01*
X177353650Y-78838269D01*
X177351641Y-78850099D01*
X177349185Y-78861636D01*
X177346283Y-78872882D01*
X177342934Y-78883836D01*
X177339139Y-78894498D01*
X177334897Y-78904867D01*
X177331821Y-78911618D01*
X177326878Y-78921435D01*
X177321574Y-78930827D01*
X177315910Y-78939793D01*
X177309885Y-78948335D01*
X177303499Y-78956452D01*
X177296753Y-78964143D01*
X177289646Y-78971410D01*
X177282178Y-78978251D01*
X177274350Y-78984667D01*
X177266162Y-78990659D01*
X177260502Y-78994417D01*
X177251716Y-78999611D01*
X177242667Y-79004294D01*
X177233357Y-79008467D01*
X177223785Y-79012128D01*
X177213951Y-79015279D01*
X177203856Y-79017919D01*
X177193498Y-79020047D01*
X177182879Y-79021665D01*
X177171997Y-79022772D01*
X177160854Y-79023368D01*
X177153279Y-79023482D01*
X177142166Y-79023195D01*
X177131175Y-79022337D01*
X177120307Y-79020906D01*
X177109560Y-79018902D01*
X177098935Y-79016326D01*
X177088433Y-79013178D01*
X177078053Y-79009457D01*
X177067794Y-79005163D01*
X177057700Y-79000244D01*
X177047934Y-78994768D01*
X177038497Y-78988734D01*
X177029387Y-78982144D01*
X177020606Y-78974996D01*
X177012153Y-78967291D01*
X177004028Y-78959028D01*
X176996231Y-78950209D01*
X176988873Y-78940840D01*
X176982065Y-78931051D01*
X176975806Y-78920842D01*
X176970097Y-78910214D01*
X176964938Y-78899166D01*
X176960327Y-78887698D01*
X176956267Y-78875810D01*
X176952756Y-78863503D01*
X176809141Y-78863503D01*
X176811402Y-78874502D01*
X176813912Y-78885336D01*
X176816669Y-78896003D01*
X176819674Y-78906505D01*
X176822928Y-78916840D01*
X176826429Y-78927010D01*
X176830178Y-78937013D01*
X176834176Y-78946851D01*
X176838422Y-78956522D01*
X176842915Y-78966027D01*
X176847657Y-78975367D01*
X176852647Y-78984540D01*
X176857885Y-78993548D01*
X176863371Y-79002389D01*
X176869105Y-79011064D01*
X176875087Y-79019574D01*
X176881283Y-79027851D01*
X176887661Y-79035892D01*
X176894221Y-79043697D01*
X176900961Y-79051264D01*
X176907883Y-79058595D01*
X176914986Y-79065690D01*
X176922270Y-79072548D01*
X176929736Y-79079169D01*
X176937383Y-79085554D01*
X176945211Y-79091702D01*
X176953221Y-79097613D01*
X176961411Y-79103288D01*
X176969783Y-79108726D01*
X176978337Y-79113928D01*
X176987071Y-79118893D01*
X176995987Y-79123621D01*
X177005045Y-79128058D01*
X177014206Y-79132208D01*
X177023470Y-79136072D01*
X177032837Y-79139650D01*
X177042307Y-79142941D01*
X177051880Y-79145947D01*
X177061557Y-79148666D01*
X177071336Y-79151099D01*
X177081218Y-79153245D01*
X177091203Y-79155106D01*
X177101292Y-79156680D01*
X177111483Y-79157968D01*
X177121778Y-79158970D01*
X177132175Y-79159685D01*
X177142676Y-79160115D01*
X177153279Y-79160258D01*
G37*
G36*
X176383670Y-78151290D02*
G01*
X176264235Y-78151290D01*
X175895917Y-79150000D01*
X176047103Y-79150000D01*
X176323831Y-78344242D01*
X176600802Y-79150000D01*
X176751744Y-79150000D01*
X176383670Y-78151290D01*
G37*
G36*
X176582240Y-78797557D02*
G01*
X176056629Y-78797557D01*
X176056629Y-78930914D01*
X176582240Y-78930914D01*
X176582240Y-78797557D01*
G37*
G36*
X175750104Y-78151290D02*
G01*
X175622854Y-78151290D01*
X175134612Y-78923342D01*
X175150976Y-78941172D01*
X175150976Y-78151290D01*
X175012247Y-78151290D01*
X175012247Y-79149267D01*
X175140718Y-79149267D01*
X175627739Y-78388939D01*
X175611374Y-78371109D01*
X175611374Y-79149267D01*
X175750104Y-79149267D01*
X175750104Y-78151290D01*
G37*
G36*
X174532554Y-79160258D02*
G01*
X174542948Y-79160138D01*
X174553188Y-79159781D01*
X174563274Y-79159184D01*
X174573205Y-79158350D01*
X174582981Y-79157276D01*
X174597356Y-79155219D01*
X174611383Y-79152625D01*
X174625062Y-79149495D01*
X174638394Y-79145827D01*
X174651377Y-79141623D01*
X174664013Y-79136883D01*
X174676302Y-79131606D01*
X174680321Y-79129727D01*
X174692054Y-79123762D01*
X174703350Y-79117317D01*
X174714208Y-79110390D01*
X174724628Y-79102983D01*
X174734610Y-79095094D01*
X174744154Y-79086725D01*
X174753260Y-79077875D01*
X174761928Y-79068545D01*
X174770158Y-79058733D01*
X174777951Y-79048440D01*
X174782903Y-79041311D01*
X174789933Y-79030204D01*
X174796461Y-79018680D01*
X174802487Y-79006739D01*
X174808010Y-78994382D01*
X174813031Y-78981609D01*
X174817550Y-78968419D01*
X174821566Y-78954813D01*
X174825080Y-78940790D01*
X174827144Y-78931210D01*
X174828984Y-78921445D01*
X174830601Y-78911495D01*
X174831995Y-78901360D01*
X174689113Y-78901360D01*
X174687362Y-78911752D01*
X174685160Y-78921678D01*
X174682507Y-78931139D01*
X174678559Y-78942310D01*
X174673906Y-78952753D01*
X174668550Y-78962469D01*
X174662491Y-78971458D01*
X174655717Y-78979667D01*
X174648370Y-78987195D01*
X174640452Y-78994044D01*
X174631960Y-79000214D01*
X174622897Y-79005703D01*
X174613261Y-79010513D01*
X174609246Y-79012247D01*
X174598744Y-79016116D01*
X174587693Y-79019331D01*
X174576094Y-79021889D01*
X174566420Y-79023463D01*
X174556394Y-79024617D01*
X174546018Y-79025352D01*
X174535290Y-79025667D01*
X174532554Y-79025680D01*
X174519820Y-79025354D01*
X174507632Y-79024375D01*
X174495989Y-79022743D01*
X174484892Y-79020459D01*
X174474340Y-79017523D01*
X174464333Y-79013933D01*
X174454871Y-79009692D01*
X174445954Y-79004797D01*
X174437583Y-78999250D01*
X174429757Y-78993051D01*
X174424842Y-78988555D01*
X174417946Y-78981330D01*
X174411728Y-78973577D01*
X174406188Y-78965296D01*
X174401326Y-78956487D01*
X174397143Y-78947149D01*
X174393639Y-78937284D01*
X174390812Y-78926891D01*
X174388664Y-78915969D01*
X174387194Y-78904519D01*
X174386403Y-78892542D01*
X174386252Y-78884263D01*
X174386252Y-78853977D01*
X174386572Y-78840218D01*
X174387532Y-78827061D01*
X174389131Y-78814504D01*
X174391370Y-78802549D01*
X174394248Y-78791194D01*
X174397767Y-78780441D01*
X174401925Y-78770289D01*
X174406723Y-78760737D01*
X174412160Y-78751787D01*
X174418237Y-78743438D01*
X174422644Y-78738206D01*
X174429732Y-78730917D01*
X174437348Y-78724344D01*
X174445491Y-78718489D01*
X174454163Y-78713351D01*
X174463363Y-78708929D01*
X174473091Y-78705225D01*
X174483347Y-78702237D01*
X174494131Y-78699967D01*
X174505443Y-78698413D01*
X174517284Y-78697577D01*
X174525471Y-78697418D01*
X174596301Y-78697418D01*
X174596301Y-78564061D01*
X174525471Y-78564061D01*
X174514755Y-78563754D01*
X174504499Y-78562833D01*
X174494702Y-78561298D01*
X174482355Y-78558297D01*
X174470824Y-78554204D01*
X174460110Y-78549019D01*
X174450212Y-78542743D01*
X174441131Y-78535376D01*
X174434856Y-78529134D01*
X174427300Y-78519891D01*
X174420751Y-78509747D01*
X174415210Y-78498703D01*
X174410676Y-78486758D01*
X174407937Y-78477208D01*
X174405765Y-78467152D01*
X174404159Y-78456589D01*
X174403120Y-78445519D01*
X174402648Y-78433943D01*
X174402616Y-78429972D01*
X174402616Y-78399197D01*
X174402915Y-78388351D01*
X174403810Y-78377976D01*
X174405302Y-78368075D01*
X174408219Y-78355607D01*
X174412198Y-78343979D01*
X174417237Y-78333190D01*
X174423338Y-78323241D01*
X174430499Y-78314131D01*
X174436566Y-78307850D01*
X174445500Y-78300294D01*
X174455327Y-78293745D01*
X174466047Y-78288204D01*
X174477660Y-78283670D01*
X174490166Y-78280144D01*
X174500132Y-78278160D01*
X174510599Y-78276744D01*
X174521570Y-78275893D01*
X174533042Y-78275610D01*
X174544071Y-78275938D01*
X174554719Y-78276922D01*
X174564984Y-78278562D01*
X174574869Y-78280858D01*
X174584371Y-78283809D01*
X174593492Y-78287417D01*
X174597034Y-78289043D01*
X174607275Y-78294505D01*
X174616932Y-78300996D01*
X174624533Y-78307193D01*
X174631730Y-78314105D01*
X174638520Y-78321733D01*
X174644905Y-78330076D01*
X174650749Y-78339123D01*
X174656068Y-78348862D01*
X174660862Y-78359292D01*
X174665132Y-78370414D01*
X174668169Y-78379810D01*
X174670871Y-78389649D01*
X174673237Y-78399930D01*
X174815387Y-78399930D01*
X174813582Y-78389794D01*
X174811586Y-78379841D01*
X174809399Y-78370071D01*
X174807021Y-78360484D01*
X174803097Y-78346448D01*
X174798744Y-78332824D01*
X174793961Y-78319612D01*
X174788749Y-78306812D01*
X174783108Y-78294424D01*
X174777037Y-78282449D01*
X174770537Y-78270886D01*
X174763607Y-78259734D01*
X174756285Y-78249036D01*
X174748606Y-78238832D01*
X174740571Y-78229121D01*
X174732180Y-78219904D01*
X174723432Y-78211180D01*
X174714328Y-78202951D01*
X174704868Y-78195215D01*
X174695051Y-78187973D01*
X174684878Y-78181224D01*
X174674349Y-78174970D01*
X174667131Y-78171074D01*
X174656034Y-78165662D01*
X174644631Y-78160782D01*
X174632924Y-78156434D01*
X174620912Y-78152619D01*
X174608595Y-78149336D01*
X174595974Y-78146585D01*
X174583047Y-78144367D01*
X174569816Y-78142681D01*
X174556280Y-78141527D01*
X174542439Y-78140906D01*
X174533042Y-78140788D01*
X174517149Y-78141054D01*
X174501710Y-78141853D01*
X174486726Y-78143184D01*
X174472195Y-78145047D01*
X174458119Y-78147443D01*
X174444496Y-78150371D01*
X174431328Y-78153831D01*
X174418614Y-78157824D01*
X174406354Y-78162349D01*
X174394549Y-78167407D01*
X174383197Y-78172997D01*
X174372300Y-78179119D01*
X174361856Y-78185774D01*
X174351867Y-78192961D01*
X174342332Y-78200680D01*
X174333251Y-78208932D01*
X174324674Y-78217638D01*
X174316651Y-78226781D01*
X174309180Y-78236360D01*
X174302263Y-78246377D01*
X174295899Y-78256831D01*
X174290089Y-78267722D01*
X174284832Y-78279050D01*
X174280129Y-78290814D01*
X174275978Y-78303016D01*
X174272382Y-78315654D01*
X174269338Y-78328730D01*
X174266848Y-78342243D01*
X174264911Y-78356192D01*
X174263528Y-78370579D01*
X174262698Y-78385402D01*
X174262421Y-78400662D01*
X174262421Y-78417027D01*
X174262777Y-78430916D01*
X174263846Y-78444467D01*
X174265628Y-78457678D01*
X174268123Y-78470550D01*
X174271330Y-78483083D01*
X174275249Y-78495277D01*
X174279882Y-78507132D01*
X174285227Y-78518647D01*
X174291285Y-78529823D01*
X174298056Y-78540660D01*
X174302965Y-78547697D01*
X174310864Y-78557828D01*
X174319354Y-78567432D01*
X174328438Y-78576507D01*
X174338113Y-78585054D01*
X174348382Y-78593074D01*
X174359242Y-78600565D01*
X174370695Y-78607528D01*
X174382741Y-78613963D01*
X174395379Y-78619870D01*
X174408610Y-78625249D01*
X174417759Y-78628541D01*
X174407676Y-78630944D01*
X174397880Y-78633697D01*
X174388373Y-78636799D01*
X174379154Y-78640249D01*
X174365865Y-78646080D01*
X174353225Y-78652697D01*
X174341233Y-78660100D01*
X174329889Y-78668288D01*
X174319194Y-78677262D01*
X174309147Y-78687021D01*
X174299748Y-78697566D01*
X174290997Y-78708897D01*
X174282966Y-78720923D01*
X174275725Y-78733555D01*
X174271336Y-78742312D01*
X174267298Y-78751339D01*
X174263612Y-78760634D01*
X174260276Y-78770199D01*
X174257292Y-78780033D01*
X174254659Y-78790135D01*
X174252377Y-78800507D01*
X174250445Y-78811148D01*
X174248866Y-78822058D01*
X174247637Y-78833237D01*
X174246759Y-78844684D01*
X174246232Y-78856401D01*
X174246057Y-78868387D01*
X174246057Y-78884752D01*
X174246188Y-78895581D01*
X174246583Y-78906211D01*
X174247242Y-78916640D01*
X174248163Y-78926868D01*
X174249348Y-78936897D01*
X174250797Y-78946725D01*
X174252508Y-78956352D01*
X174255569Y-78970418D01*
X174259223Y-78984033D01*
X174263469Y-78997197D01*
X174268308Y-79009910D01*
X174273739Y-79022172D01*
X174279762Y-79033984D01*
X174286307Y-79045311D01*
X174293392Y-79056118D01*
X174301019Y-79066405D01*
X174309186Y-79076173D01*
X174317894Y-79085422D01*
X174327143Y-79094151D01*
X174336934Y-79102360D01*
X174347265Y-79110051D01*
X174358137Y-79117221D01*
X174369550Y-79123872D01*
X174377459Y-79128018D01*
X174389738Y-79133779D01*
X174402484Y-79138974D01*
X174415698Y-79143602D01*
X174429380Y-79147664D01*
X174443530Y-79151159D01*
X174453224Y-79153174D01*
X174463125Y-79154937D01*
X174473234Y-79156448D01*
X174483552Y-79157707D01*
X174494077Y-79158715D01*
X174504810Y-79159471D01*
X174515752Y-79159974D01*
X174526901Y-79160226D01*
X174532554Y-79160258D01*
G37*
G36*
X173463258Y-78151290D02*
G01*
X173323063Y-78151290D01*
X173323063Y-79150000D01*
X173463258Y-79150000D01*
X173463258Y-78151290D01*
G37*
G36*
X174030635Y-78151290D02*
G01*
X173890439Y-78151290D01*
X173890439Y-79150000D01*
X174030635Y-79150000D01*
X174030635Y-78151290D01*
G37*
G36*
X173943440Y-78591416D02*
G01*
X173389009Y-78591416D01*
X173389009Y-78724773D01*
X173943440Y-78724773D01*
X173943440Y-78591416D01*
G37*
G36*
X178609588Y-79820820D02*
G01*
X178619991Y-79821076D01*
X178630234Y-79821587D01*
X178640317Y-79822354D01*
X178650239Y-79823377D01*
X178660001Y-79824655D01*
X178674344Y-79827053D01*
X178688326Y-79830025D01*
X178701947Y-79833573D01*
X178715208Y-79837696D01*
X178728108Y-79842394D01*
X178740647Y-79847668D01*
X178752826Y-79853517D01*
X178760683Y-79857712D01*
X178772049Y-79864394D01*
X178782913Y-79871545D01*
X178793275Y-79879163D01*
X178803135Y-79887250D01*
X178812492Y-79895804D01*
X178821347Y-79904827D01*
X178829700Y-79914317D01*
X178837550Y-79924275D01*
X178844898Y-79934702D01*
X178851744Y-79945596D01*
X178855974Y-79953089D01*
X178861806Y-79964608D01*
X178867025Y-79976462D01*
X178871629Y-79988651D01*
X178875620Y-80001175D01*
X178878996Y-80014033D01*
X178881759Y-80027227D01*
X178883908Y-80040755D01*
X178885443Y-80054618D01*
X178886364Y-80068816D01*
X178886671Y-80083349D01*
X178886671Y-80107285D01*
X178886546Y-80114834D01*
X178885890Y-80126071D01*
X178884671Y-80137205D01*
X178882890Y-80148236D01*
X178880547Y-80159164D01*
X178877641Y-80169989D01*
X178874172Y-80180710D01*
X178870142Y-80191329D01*
X178865549Y-80201845D01*
X178860393Y-80212258D01*
X178854675Y-80222568D01*
X178850594Y-80229276D01*
X178844169Y-80238962D01*
X178837380Y-80248198D01*
X178830225Y-80256983D01*
X178822705Y-80265317D01*
X178814820Y-80273200D01*
X178806571Y-80280632D01*
X178797956Y-80287614D01*
X178788977Y-80294145D01*
X178779632Y-80300225D01*
X178769923Y-80305854D01*
X178777640Y-80310193D01*
X178788848Y-80317174D01*
X178799614Y-80324722D01*
X178809937Y-80332837D01*
X178819818Y-80341518D01*
X178829257Y-80350765D01*
X178838253Y-80360580D01*
X178846808Y-80370961D01*
X178854920Y-80381909D01*
X178862590Y-80393424D01*
X178869818Y-80405505D01*
X178874343Y-80413783D01*
X178880584Y-80426328D01*
X178886167Y-80439028D01*
X178891094Y-80451882D01*
X178895363Y-80464891D01*
X178898976Y-80478054D01*
X178901932Y-80491372D01*
X178904231Y-80504845D01*
X178905873Y-80518472D01*
X178906859Y-80532253D01*
X178907187Y-80546189D01*
X178907187Y-80562798D01*
X178907041Y-80573100D01*
X178906603Y-80583246D01*
X178905873Y-80593235D01*
X178904852Y-80603067D01*
X178902772Y-80617523D01*
X178900035Y-80631627D01*
X178896641Y-80645378D01*
X178892590Y-80658778D01*
X178887882Y-80671825D01*
X178882518Y-80684520D01*
X178876496Y-80696864D01*
X178869818Y-80708855D01*
X178865025Y-80716591D01*
X178857377Y-80727779D01*
X178849180Y-80738469D01*
X178840433Y-80748662D01*
X178831136Y-80758356D01*
X178821290Y-80767553D01*
X178810894Y-80776251D01*
X178799949Y-80784451D01*
X178788455Y-80792153D01*
X178776410Y-80799358D01*
X178763817Y-80806064D01*
X178750711Y-80812175D01*
X178737224Y-80817684D01*
X178728020Y-80821024D01*
X178718646Y-80824096D01*
X178709102Y-80826901D01*
X178699389Y-80829439D01*
X178689506Y-80831709D01*
X178679453Y-80833713D01*
X178669230Y-80835449D01*
X178658837Y-80836918D01*
X178648275Y-80838121D01*
X178637542Y-80839056D01*
X178626640Y-80839723D01*
X178615568Y-80840124D01*
X178604326Y-80840258D01*
X178598684Y-80840224D01*
X178587529Y-80839957D01*
X178576546Y-80839423D01*
X178565734Y-80838621D01*
X178555094Y-80837553D01*
X178544626Y-80836217D01*
X178534330Y-80834614D01*
X178524205Y-80832744D01*
X178514252Y-80830607D01*
X178504471Y-80828203D01*
X178494862Y-80825532D01*
X178485424Y-80822593D01*
X178471590Y-80817684D01*
X178458141Y-80812175D01*
X178445080Y-80806064D01*
X178436593Y-80801648D01*
X178424325Y-80794610D01*
X178412611Y-80787074D01*
X178401450Y-80779040D01*
X178390844Y-80770507D01*
X178380791Y-80761477D01*
X178371292Y-80751949D01*
X178362347Y-80741922D01*
X178353955Y-80731398D01*
X178346118Y-80720375D01*
X178338834Y-80708855D01*
X178332156Y-80696864D01*
X178326134Y-80684520D01*
X178320770Y-80671825D01*
X178316062Y-80658778D01*
X178312012Y-80645378D01*
X178308618Y-80631627D01*
X178305881Y-80617523D01*
X178303801Y-80603067D01*
X178302779Y-80593235D01*
X178302049Y-80583246D01*
X178301611Y-80573100D01*
X178301465Y-80562798D01*
X178301465Y-80552540D01*
X178440928Y-80552540D01*
X178441244Y-80563672D01*
X178442195Y-80574476D01*
X178443778Y-80584951D01*
X178445996Y-80595099D01*
X178448846Y-80604918D01*
X178452331Y-80614409D01*
X178456448Y-80623572D01*
X178461200Y-80632407D01*
X178466531Y-80640837D01*
X178472389Y-80648787D01*
X178478774Y-80656255D01*
X178485685Y-80663243D01*
X178493123Y-80669749D01*
X178501088Y-80675775D01*
X178509579Y-80681320D01*
X178518597Y-80686385D01*
X178528004Y-80690907D01*
X178537785Y-80694826D01*
X178547940Y-80698143D01*
X178558469Y-80700856D01*
X178569373Y-80702967D01*
X178580650Y-80704474D01*
X178592301Y-80705378D01*
X178604326Y-80705680D01*
X178616355Y-80705386D01*
X178628018Y-80704504D01*
X178639314Y-80703035D01*
X178650244Y-80700978D01*
X178660807Y-80698334D01*
X178671004Y-80695101D01*
X178680835Y-80691281D01*
X178690300Y-80686873D01*
X178694845Y-80684433D01*
X178703546Y-80679197D01*
X178711728Y-80673488D01*
X178719391Y-80667305D01*
X178728240Y-80658912D01*
X178736278Y-80649779D01*
X178742125Y-80641940D01*
X178747452Y-80633628D01*
X178752204Y-80624847D01*
X178756321Y-80615722D01*
X178759806Y-80606254D01*
X178762657Y-80596442D01*
X178764874Y-80586287D01*
X178766458Y-80575788D01*
X178767408Y-80564946D01*
X178767725Y-80553761D01*
X178767725Y-80543503D01*
X178767408Y-80532195D01*
X178766458Y-80521231D01*
X178764874Y-80510610D01*
X178762657Y-80500333D01*
X178759806Y-80490399D01*
X178756321Y-80480809D01*
X178752204Y-80471562D01*
X178747452Y-80462658D01*
X178742125Y-80454114D01*
X178736278Y-80446065D01*
X178729913Y-80438513D01*
X178723028Y-80431456D01*
X178715625Y-80424896D01*
X178707702Y-80418832D01*
X178699260Y-80413264D01*
X178690300Y-80408192D01*
X178680835Y-80403670D01*
X178671004Y-80399750D01*
X178660807Y-80396434D01*
X178650244Y-80393721D01*
X178639314Y-80391610D01*
X178628018Y-80390103D01*
X178616355Y-80389198D01*
X178604326Y-80388897D01*
X178592301Y-80389198D01*
X178580650Y-80390103D01*
X178569373Y-80391610D01*
X178558469Y-80393721D01*
X178547940Y-80396434D01*
X178537785Y-80399750D01*
X178528004Y-80403670D01*
X178518597Y-80408192D01*
X178509579Y-80413256D01*
X178501088Y-80418801D01*
X178493123Y-80424827D01*
X178485685Y-80431334D01*
X178478774Y-80438322D01*
X178472389Y-80445790D01*
X178466531Y-80453740D01*
X178461200Y-80462170D01*
X178456448Y-80471016D01*
X178452331Y-80480213D01*
X178448846Y-80489762D01*
X178445996Y-80499661D01*
X178443778Y-80509912D01*
X178442195Y-80520513D01*
X178441244Y-80531466D01*
X178440928Y-80542770D01*
X178440928Y-80552540D01*
X178301465Y-80552540D01*
X178301465Y-80546189D01*
X178301614Y-80536883D01*
X178302395Y-80523060D01*
X178303846Y-80509400D01*
X178305967Y-80495903D01*
X178308758Y-80482570D01*
X178312218Y-80469399D01*
X178316349Y-80456392D01*
X178321148Y-80443548D01*
X178326618Y-80430867D01*
X178332758Y-80418349D01*
X178339567Y-80405994D01*
X178344428Y-80397903D01*
X178352088Y-80386226D01*
X178360190Y-80375097D01*
X178368735Y-80364518D01*
X178377721Y-80354489D01*
X178387150Y-80345010D01*
X178397021Y-80336079D01*
X178407334Y-80327699D01*
X178418090Y-80319868D01*
X178429288Y-80312586D01*
X178440928Y-80305854D01*
X178434294Y-80302241D01*
X178424655Y-80296439D01*
X178415389Y-80290177D01*
X178406497Y-80283456D01*
X178397978Y-80276275D01*
X178389833Y-80268635D01*
X178382061Y-80260536D01*
X178374663Y-80251977D01*
X178367639Y-80242959D01*
X178360987Y-80233481D01*
X178354710Y-80223545D01*
X178350747Y-80216708D01*
X178345281Y-80206345D01*
X178340391Y-80195853D01*
X178336076Y-80185233D01*
X178332337Y-80174484D01*
X178329173Y-80163606D01*
X178326584Y-80152600D01*
X178324570Y-80141464D01*
X178323132Y-80130200D01*
X178322269Y-80118807D01*
X178321981Y-80107285D01*
X178321981Y-80106552D01*
X178462177Y-80106552D01*
X178462246Y-80112008D01*
X178462804Y-80122678D01*
X178463918Y-80133028D01*
X178465589Y-80143057D01*
X178467818Y-80152766D01*
X178470604Y-80162154D01*
X178474870Y-80173438D01*
X178480006Y-80184221D01*
X178482291Y-80188374D01*
X178488497Y-80198231D01*
X178495405Y-80207337D01*
X178503018Y-80215691D01*
X178511333Y-80223294D01*
X178520353Y-80230145D01*
X178530076Y-80236245D01*
X178540390Y-80241452D01*
X178551180Y-80245776D01*
X178562448Y-80249218D01*
X178574193Y-80251777D01*
X178583932Y-80253189D01*
X178593976Y-80254037D01*
X178604326Y-80254319D01*
X178614676Y-80254037D01*
X178624720Y-80253189D01*
X178634460Y-80251777D01*
X178646204Y-80249218D01*
X178657472Y-80245776D01*
X178668262Y-80241452D01*
X178678576Y-80236245D01*
X178682550Y-80233897D01*
X178691991Y-80227518D01*
X178700730Y-80220411D01*
X178708764Y-80212577D01*
X178716095Y-80204016D01*
X178722722Y-80194726D01*
X178728646Y-80184710D01*
X178729743Y-80182609D01*
X178734705Y-80171818D01*
X178738797Y-80160551D01*
X178742018Y-80148806D01*
X178743968Y-80139067D01*
X178745361Y-80129023D01*
X178746197Y-80118673D01*
X178746475Y-80108018D01*
X178746475Y-80097759D01*
X178746197Y-80087238D01*
X178745361Y-80077045D01*
X178743968Y-80067179D01*
X178741443Y-80055310D01*
X178738048Y-80043953D01*
X178733782Y-80033108D01*
X178728646Y-80022777D01*
X178726361Y-80018805D01*
X178720156Y-80009385D01*
X178713247Y-80000692D01*
X178705635Y-79992727D01*
X178697319Y-79985489D01*
X178688299Y-79978978D01*
X178678576Y-79973196D01*
X178668262Y-79968129D01*
X178657472Y-79963922D01*
X178646204Y-79960573D01*
X178634460Y-79958083D01*
X178624720Y-79956709D01*
X178614676Y-79955885D01*
X178604326Y-79955610D01*
X178593976Y-79955885D01*
X178583932Y-79956709D01*
X178574193Y-79958083D01*
X178562448Y-79960573D01*
X178551180Y-79963922D01*
X178540390Y-79968129D01*
X178530076Y-79973196D01*
X178526103Y-79975421D01*
X178516661Y-79981495D01*
X178507923Y-79988297D01*
X178499888Y-79995826D01*
X178492557Y-80004082D01*
X178485930Y-80013066D01*
X178480006Y-80022777D01*
X178474870Y-80033090D01*
X178470604Y-80043881D01*
X178467209Y-80055149D01*
X178464684Y-80066893D01*
X178463291Y-80076632D01*
X178462455Y-80086677D01*
X178462177Y-80097027D01*
X178462177Y-80106552D01*
X178321981Y-80106552D01*
X178321981Y-80083349D01*
X178322119Y-80073623D01*
X178322840Y-80059314D01*
X178324180Y-80045339D01*
X178326137Y-80031699D01*
X178328713Y-80018394D01*
X178331908Y-80005424D01*
X178335720Y-79992788D01*
X178340151Y-79980488D01*
X178345200Y-79968523D01*
X178350867Y-79956892D01*
X178357152Y-79945596D01*
X178361632Y-79938281D01*
X178368777Y-79927699D01*
X178376432Y-79917585D01*
X178384599Y-79907938D01*
X178393276Y-79898760D01*
X178402465Y-79890049D01*
X178412164Y-79881807D01*
X178422374Y-79874032D01*
X178433096Y-79866726D01*
X178444328Y-79859887D01*
X178456071Y-79853517D01*
X178464120Y-79849553D01*
X178476499Y-79844088D01*
X178489242Y-79839198D01*
X178502350Y-79834883D01*
X178515823Y-79831144D01*
X178529661Y-79827979D01*
X178543865Y-79825391D01*
X178553536Y-79823984D01*
X178563370Y-79822834D01*
X178573365Y-79821939D01*
X178583523Y-79821299D01*
X178593844Y-79820916D01*
X178604326Y-79820788D01*
X178609588Y-79820820D01*
G37*
G36*
X178126587Y-80682965D02*
G01*
X177979797Y-80682965D01*
X177979797Y-80830000D01*
X178126587Y-80830000D01*
X178126587Y-80682965D01*
G37*
G36*
X178126587Y-80109972D02*
G01*
X177979797Y-80109972D01*
X177979797Y-80257006D01*
X178126587Y-80257006D01*
X178126587Y-80109972D01*
G37*
G36*
X176714375Y-80292177D02*
G01*
X176714375Y-80466566D01*
X176714544Y-80480384D01*
X176715050Y-80493994D01*
X176715895Y-80507396D01*
X176717077Y-80520590D01*
X176718597Y-80533576D01*
X176720454Y-80546353D01*
X176722650Y-80558923D01*
X176725183Y-80571285D01*
X176728053Y-80583439D01*
X176731262Y-80595385D01*
X176734808Y-80607123D01*
X176738692Y-80618653D01*
X176742914Y-80629975D01*
X176747474Y-80641089D01*
X176752371Y-80651995D01*
X176757606Y-80662693D01*
X176763151Y-80673137D01*
X176768978Y-80683282D01*
X176775088Y-80693127D01*
X176781481Y-80702673D01*
X176788155Y-80711919D01*
X176795112Y-80720865D01*
X176802352Y-80729512D01*
X176809874Y-80737859D01*
X176817678Y-80745906D01*
X176825765Y-80753655D01*
X176834134Y-80761103D01*
X176842786Y-80768252D01*
X176851720Y-80775101D01*
X176860936Y-80781651D01*
X176870435Y-80787901D01*
X176880216Y-80793852D01*
X176890236Y-80799471D01*
X176900454Y-80804728D01*
X176910867Y-80809622D01*
X176921478Y-80814154D01*
X176932284Y-80818324D01*
X176943288Y-80822130D01*
X176954488Y-80825575D01*
X176965884Y-80828656D01*
X176977477Y-80831375D01*
X176989266Y-80833732D01*
X177001252Y-80835726D01*
X177013435Y-80837357D01*
X177025814Y-80838626D01*
X177038390Y-80839533D01*
X177051162Y-80840076D01*
X177064131Y-80840258D01*
X177077250Y-80840088D01*
X177090169Y-80839578D01*
X177102888Y-80838729D01*
X177115406Y-80837540D01*
X177127724Y-80836012D01*
X177139842Y-80834144D01*
X177151759Y-80831936D01*
X177163476Y-80829389D01*
X177174993Y-80826502D01*
X177186309Y-80823275D01*
X177197425Y-80819709D01*
X177208341Y-80815803D01*
X177219056Y-80811557D01*
X177229571Y-80806972D01*
X177239885Y-80802047D01*
X177250000Y-80796782D01*
X177259843Y-80791177D01*
X177269405Y-80785292D01*
X177278688Y-80779125D01*
X177287689Y-80772679D01*
X177296410Y-80765952D01*
X177304851Y-80758944D01*
X177313011Y-80751656D01*
X177320891Y-80744087D01*
X177328490Y-80736238D01*
X177335809Y-80728108D01*
X177342847Y-80719698D01*
X177349605Y-80711007D01*
X177356082Y-80702036D01*
X177362279Y-80692785D01*
X177368195Y-80683252D01*
X177373831Y-80673440D01*
X177379154Y-80663358D01*
X177384135Y-80653080D01*
X177388771Y-80642605D01*
X177393065Y-80631934D01*
X177397015Y-80621066D01*
X177400621Y-80610002D01*
X177403884Y-80598741D01*
X177406803Y-80587283D01*
X177409379Y-80575629D01*
X177411612Y-80563779D01*
X177413501Y-80551732D01*
X177415047Y-80539488D01*
X177416249Y-80527048D01*
X177417107Y-80514411D01*
X177417623Y-80501578D01*
X177417794Y-80488548D01*
X177417794Y-80193991D01*
X177417625Y-80180174D01*
X177417119Y-80166567D01*
X177416274Y-80153170D01*
X177415092Y-80139983D01*
X177413573Y-80127006D01*
X177411715Y-80114238D01*
X177409520Y-80101681D01*
X177406987Y-80089333D01*
X177404116Y-80077195D01*
X177400907Y-80065268D01*
X177397361Y-80053550D01*
X177393477Y-80042042D01*
X177389255Y-80030743D01*
X177384696Y-80019655D01*
X177379798Y-80008777D01*
X177374563Y-79998108D01*
X177369018Y-79987694D01*
X177363191Y-79977577D01*
X177357081Y-79967757D01*
X177350689Y-79958236D01*
X177344014Y-79949012D01*
X177337057Y-79940085D01*
X177329817Y-79931457D01*
X177322295Y-79923126D01*
X177314491Y-79915093D01*
X177306404Y-79907357D01*
X177298035Y-79899919D01*
X177289384Y-79892779D01*
X177280450Y-79885936D01*
X177271233Y-79879391D01*
X177261735Y-79873144D01*
X177251953Y-79867194D01*
X177241934Y-79861575D01*
X177231719Y-79856318D01*
X177221311Y-79851423D01*
X177210707Y-79846892D01*
X177199909Y-79842722D01*
X177188916Y-79838915D01*
X177177728Y-79835471D01*
X177166346Y-79832390D01*
X177154770Y-79829670D01*
X177142998Y-79827314D01*
X177131032Y-79825320D01*
X177118872Y-79823688D01*
X177106516Y-79822420D01*
X177093966Y-79821513D01*
X177081222Y-79820969D01*
X177068283Y-79820788D01*
X177057590Y-79820932D01*
X177047003Y-79821364D01*
X177036524Y-79822085D01*
X177026151Y-79823093D01*
X177015885Y-79824390D01*
X177005726Y-79825974D01*
X176995674Y-79827847D01*
X176985729Y-79830008D01*
X176975890Y-79832457D01*
X176966159Y-79835195D01*
X176956534Y-79838220D01*
X176947016Y-79841533D01*
X176937605Y-79845135D01*
X176928301Y-79849025D01*
X176919104Y-79853203D01*
X176910013Y-79857669D01*
X176901038Y-79862368D01*
X176892249Y-79867309D01*
X176883644Y-79872489D01*
X176875224Y-79877910D01*
X176866990Y-79883572D01*
X176858940Y-79889474D01*
X176851076Y-79895616D01*
X176843396Y-79901999D01*
X176835902Y-79908622D01*
X176828593Y-79915486D01*
X176821469Y-79922590D01*
X176814530Y-79929934D01*
X176807776Y-79937519D01*
X176801207Y-79945344D01*
X176794823Y-79953410D01*
X176788625Y-79961716D01*
X176782643Y-79970225D01*
X176776909Y-79978897D01*
X176771423Y-79987734D01*
X176766185Y-79996734D01*
X176761195Y-80005899D01*
X176756453Y-80015228D01*
X176751960Y-80024721D01*
X176747714Y-80034378D01*
X176743717Y-80044200D01*
X176739967Y-80054185D01*
X176736466Y-80064334D01*
X176733212Y-80074648D01*
X176730207Y-80085126D01*
X176727450Y-80095767D01*
X176724940Y-80106573D01*
X176722679Y-80117543D01*
X176874354Y-80117543D01*
X176877735Y-80105247D01*
X176881651Y-80093394D01*
X176886101Y-80081983D01*
X176891085Y-80071015D01*
X176896603Y-80060490D01*
X176902656Y-80050407D01*
X176909243Y-80040767D01*
X176916364Y-80031570D01*
X176923912Y-80022804D01*
X176931782Y-80014579D01*
X176939971Y-80006897D01*
X176948482Y-79999757D01*
X176957313Y-79993159D01*
X176966464Y-79987102D01*
X176975936Y-79981588D01*
X176985729Y-79976615D01*
X176995727Y-79972150D01*
X177005818Y-79968280D01*
X177016000Y-79965006D01*
X177026273Y-79962327D01*
X177036638Y-79960243D01*
X177047095Y-79958755D01*
X177057643Y-79957862D01*
X177068283Y-79957564D01*
X177079736Y-79957824D01*
X177090923Y-79958603D01*
X177101844Y-79959902D01*
X177112498Y-79961720D01*
X177122887Y-79964058D01*
X177133009Y-79966915D01*
X177142865Y-79970292D01*
X177152455Y-79974188D01*
X177161779Y-79978604D01*
X177170836Y-79983539D01*
X177176727Y-79987117D01*
X177185287Y-79992867D01*
X177193474Y-79999033D01*
X177201287Y-80005615D01*
X177208726Y-80012614D01*
X177215792Y-80020029D01*
X177222485Y-80027861D01*
X177228804Y-80036109D01*
X177234750Y-80044774D01*
X177240322Y-80053855D01*
X177245520Y-80063353D01*
X177248778Y-80069916D01*
X177253318Y-80080054D01*
X177257411Y-80090501D01*
X177261057Y-80101257D01*
X177264257Y-80112322D01*
X177267011Y-80123697D01*
X177269318Y-80135380D01*
X177271178Y-80147373D01*
X177272592Y-80159675D01*
X177273559Y-80172286D01*
X177274080Y-80185206D01*
X177274180Y-80193991D01*
X177274180Y-80488548D01*
X177273952Y-80500540D01*
X177273269Y-80512244D01*
X177272132Y-80523661D01*
X177270539Y-80534790D01*
X177268491Y-80545631D01*
X177265988Y-80556185D01*
X177263030Y-80566451D01*
X177259617Y-80576430D01*
X177255748Y-80586120D01*
X177251425Y-80595524D01*
X177248290Y-80601632D01*
X177243201Y-80610511D01*
X177237734Y-80619012D01*
X177231889Y-80627135D01*
X177225667Y-80634880D01*
X177219067Y-80642247D01*
X177212088Y-80649237D01*
X177204733Y-80655849D01*
X177196999Y-80662083D01*
X177188887Y-80667939D01*
X177180398Y-80673417D01*
X177174528Y-80676859D01*
X177165424Y-80681617D01*
X177156061Y-80685907D01*
X177146441Y-80689728D01*
X177136564Y-80693082D01*
X177126429Y-80695968D01*
X177116036Y-80698386D01*
X177105386Y-80700336D01*
X177094478Y-80701818D01*
X177083312Y-80702832D01*
X177071889Y-80703378D01*
X177064131Y-80703482D01*
X177052678Y-80703239D01*
X177041491Y-80702511D01*
X177030570Y-80701299D01*
X177019915Y-80699601D01*
X177009527Y-80697417D01*
X176999404Y-80694749D01*
X176989548Y-80691596D01*
X176979959Y-80687957D01*
X176970635Y-80683833D01*
X176961577Y-80679224D01*
X176955687Y-80675882D01*
X176947083Y-80670443D01*
X176938857Y-80664565D01*
X176931009Y-80658250D01*
X176923538Y-80651496D01*
X176916446Y-80644305D01*
X176909731Y-80636676D01*
X176903394Y-80628608D01*
X176897435Y-80620103D01*
X176891854Y-80611160D01*
X176886650Y-80601779D01*
X176883391Y-80595282D01*
X176878852Y-80585168D01*
X176874759Y-80574703D01*
X176871112Y-80563885D01*
X176867912Y-80552715D01*
X176865159Y-80541193D01*
X176862852Y-80529319D01*
X176860991Y-80517093D01*
X176859577Y-80504515D01*
X176858610Y-80491585D01*
X176858089Y-80478303D01*
X176857990Y-80469253D01*
X176857990Y-80426022D01*
X177060711Y-80426022D01*
X177060711Y-80292177D01*
X176714375Y-80292177D01*
G37*
G36*
X176506280Y-79831290D02*
G01*
X176379030Y-79831290D01*
X175890788Y-80603342D01*
X175907152Y-80621172D01*
X175907152Y-79831290D01*
X175768422Y-79831290D01*
X175768422Y-80829267D01*
X175896894Y-80829267D01*
X176383914Y-80068939D01*
X176367550Y-80051109D01*
X176367550Y-80829267D01*
X176506280Y-80829267D01*
X176506280Y-79831290D01*
G37*
G36*
X175431612Y-80696643D02*
G01*
X175205443Y-80696643D01*
X175191808Y-80696420D01*
X175178564Y-80695750D01*
X175165712Y-80694634D01*
X175153251Y-80693071D01*
X175141181Y-80691062D01*
X175129502Y-80688606D01*
X175118215Y-80685703D01*
X175107318Y-80682355D01*
X175096813Y-80678559D01*
X175086699Y-80674318D01*
X175076976Y-80669629D01*
X175067644Y-80664494D01*
X175058703Y-80658913D01*
X175050154Y-80652885D01*
X175041996Y-80646411D01*
X175034228Y-80639490D01*
X175026864Y-80632131D01*
X175019975Y-80624404D01*
X175013560Y-80616309D01*
X175007621Y-80607845D01*
X175002157Y-80599014D01*
X174997168Y-80589813D01*
X174992655Y-80580245D01*
X174988616Y-80570308D01*
X174985053Y-80560003D01*
X174981964Y-80549330D01*
X174979351Y-80538289D01*
X174977213Y-80526879D01*
X174975550Y-80515101D01*
X174974362Y-80502955D01*
X174973649Y-80490440D01*
X174973412Y-80477557D01*
X174973412Y-80183489D01*
X174973649Y-80170635D01*
X174974362Y-80158148D01*
X174975550Y-80146028D01*
X174977213Y-80134274D01*
X174979351Y-80122886D01*
X174981964Y-80111864D01*
X174985053Y-80101209D01*
X174988616Y-80090921D01*
X174992655Y-80080998D01*
X174997168Y-80071442D01*
X175002157Y-80062253D01*
X175007621Y-80053429D01*
X175013560Y-80044972D01*
X175019975Y-80036882D01*
X175026864Y-80029158D01*
X175034228Y-80021800D01*
X175041996Y-80014849D01*
X175050154Y-80008347D01*
X175058703Y-80002294D01*
X175067644Y-79996689D01*
X175076976Y-79991532D01*
X175086699Y-79986824D01*
X175096813Y-79982564D01*
X175107318Y-79978752D01*
X175118215Y-79975389D01*
X175129502Y-79972474D01*
X175141181Y-79970008D01*
X175153251Y-79967990D01*
X175165712Y-79966421D01*
X175178564Y-79965300D01*
X175191808Y-79964627D01*
X175205443Y-79964403D01*
X175431612Y-79964403D01*
X175431612Y-79831290D01*
X175209595Y-79831290D01*
X175194710Y-79831455D01*
X175180099Y-79831947D01*
X175165760Y-79832767D01*
X175151694Y-79833916D01*
X175137901Y-79835393D01*
X175124381Y-79837198D01*
X175111133Y-79839331D01*
X175098159Y-79841793D01*
X175085457Y-79844583D01*
X175073029Y-79847701D01*
X175060873Y-79851147D01*
X175048990Y-79854921D01*
X175037380Y-79859024D01*
X175026042Y-79863454D01*
X175014978Y-79868213D01*
X175004187Y-79873300D01*
X174993691Y-79878672D01*
X174983514Y-79884345D01*
X174973655Y-79890319D01*
X174964115Y-79896595D01*
X174954894Y-79903172D01*
X174945992Y-79910051D01*
X174937408Y-79917232D01*
X174929143Y-79924713D01*
X174921196Y-79932497D01*
X174913569Y-79940582D01*
X174906259Y-79948968D01*
X174899269Y-79957656D01*
X174892597Y-79966645D01*
X174886244Y-79975936D01*
X174880209Y-79985528D01*
X174874494Y-79995422D01*
X174869081Y-80005595D01*
X174864018Y-80016026D01*
X174859304Y-80026714D01*
X174854939Y-80037660D01*
X174850923Y-80048864D01*
X174847257Y-80060325D01*
X174843939Y-80072044D01*
X174840971Y-80084021D01*
X174838352Y-80096255D01*
X174836083Y-80108747D01*
X174834162Y-80121496D01*
X174832591Y-80134503D01*
X174831368Y-80147767D01*
X174830496Y-80161289D01*
X174829972Y-80175069D01*
X174829797Y-80189106D01*
X174829797Y-80472184D01*
X174829972Y-80486221D01*
X174830496Y-80500001D01*
X174831368Y-80513523D01*
X174832591Y-80526787D01*
X174834162Y-80539794D01*
X174836083Y-80552543D01*
X174838352Y-80565035D01*
X174840971Y-80577269D01*
X174843939Y-80589246D01*
X174847257Y-80600965D01*
X174850923Y-80612426D01*
X174854939Y-80623630D01*
X174859304Y-80634576D01*
X174864018Y-80645264D01*
X174869081Y-80655695D01*
X174874494Y-80665868D01*
X174880211Y-80675763D01*
X174886252Y-80685358D01*
X174892614Y-80694654D01*
X174899299Y-80703650D01*
X174906307Y-80712346D01*
X174913637Y-80720743D01*
X174921290Y-80728840D01*
X174929265Y-80736638D01*
X174937563Y-80744136D01*
X174946183Y-80751334D01*
X174955125Y-80758233D01*
X174964390Y-80764832D01*
X174973978Y-80771132D01*
X174983888Y-80777132D01*
X174994120Y-80782833D01*
X175004675Y-80788234D01*
X175015496Y-80793292D01*
X175026588Y-80798023D01*
X175037951Y-80802428D01*
X175049585Y-80806506D01*
X175061490Y-80810259D01*
X175073666Y-80813685D01*
X175086113Y-80816785D01*
X175098831Y-80819558D01*
X175111819Y-80822005D01*
X175125079Y-80824126D01*
X175138610Y-80825921D01*
X175152411Y-80827389D01*
X175166484Y-80828531D01*
X175180828Y-80829347D01*
X175195442Y-80829836D01*
X175210327Y-80830000D01*
X175431612Y-80830000D01*
X175431612Y-80696643D01*
G37*
G36*
X175526378Y-79831290D02*
G01*
X175386182Y-79831290D01*
X175386182Y-80830000D01*
X175526378Y-80830000D01*
X175526378Y-79831290D01*
G37*
%LPC*%
D11*
%TO.C,J2*%
X163210000Y-77400000D03*
X150000000Y-65000000D03*
X136792000Y-77400000D03*
D12*
X156284999Y-77399999D03*
D13*
X152095000Y-77400000D03*
X147905000Y-77400000D03*
X143715000Y-77400000D03*
X143715000Y-71000000D03*
X147905000Y-71000000D03*
X152095000Y-71000000D03*
X156285000Y-71000000D03*
%TD*%
D14*
%TO.C,JP1*%
X142999999Y-83959999D03*
D15*
X142999999Y-86499999D03*
X142999999Y-89039999D03*
%TD*%
D16*
%TO.C,J1*%
X167749999Y-130212499D03*
D17*
X165250000Y-130212500D03*
X165250000Y-132212500D03*
X167750000Y-132212500D03*
D18*
X172500000Y-135072500D03*
X160500000Y-135072500D03*
%TD*%
D14*
%TO.C,JP3*%
X123749999Y-83999999D03*
D15*
X123749999Y-86539999D03*
X123749999Y-89079999D03*
%TD*%
D14*
%TO.C,JP2*%
X133249999Y-83999999D03*
D15*
X133249999Y-86539999D03*
X133249999Y-89079999D03*
%TD*%
M02*
