%TF.GenerationSoftware,KiCad,Pcbnew,(7.0.0)*%
%TF.CreationDate,2023-06-27T20:49:59+12:00*%
%TF.ProjectId,VehicleVCU_PCB,56656869-636c-4655-9643-555f5043422e,rev?*%
%TF.SameCoordinates,Original*%
%TF.FileFunction,Soldermask,Top*%
%TF.FilePolarity,Negative*%
%FSLAX46Y46*%
G04 Gerber Fmt 4.6, Leading zero omitted, Abs format (unit mm)*
G04 Created by KiCad (PCBNEW (7.0.0)) date 2023-06-27 20:49:59*
%MOMM*%
%LPD*%
G01*
G04 APERTURE LIST*
G04 Aperture macros list*
%AMRoundRect*
0 Rectangle with rounded corners*
0 $1 Rounding radius*
0 $2 $3 $4 $5 $6 $7 $8 $9 X,Y pos of 4 corners*
0 Add a 4 corners polygon primitive as box body*
4,1,4,$2,$3,$4,$5,$6,$7,$8,$9,$2,$3,0*
0 Add four circle primitives for the rounded corners*
1,1,$1+$1,$2,$3*
1,1,$1+$1,$4,$5*
1,1,$1+$1,$6,$7*
1,1,$1+$1,$8,$9*
0 Add four rect primitives between the rounded corners*
20,1,$1+$1,$2,$3,$4,$5,0*
20,1,$1+$1,$4,$5,$6,$7,0*
20,1,$1+$1,$6,$7,$8,$9,0*
20,1,$1+$1,$8,$9,$2,$3,0*%
G04 Aperture macros list end*
%ADD10RoundRect,0.225000X-0.225000X-0.250000X0.225000X-0.250000X0.225000X0.250000X-0.225000X0.250000X0*%
%ADD11RoundRect,0.200000X0.200000X0.275000X-0.200000X0.275000X-0.200000X-0.275000X0.200000X-0.275000X0*%
%ADD12RoundRect,0.218750X0.218750X0.256250X-0.218750X0.256250X-0.218750X-0.256250X0.218750X-0.256250X0*%
%ADD13C,2.990000*%
%ADD14R,1.785000X1.785000*%
%ADD15C,1.785000*%
%ADD16R,0.850000X0.650000*%
%ADD17RoundRect,0.200000X-0.053033X0.335876X-0.335876X0.053033X0.053033X-0.335876X0.335876X-0.053033X0*%
%ADD18R,1.300000X1.550000*%
%ADD19R,0.650000X0.400000*%
%ADD20RoundRect,0.150000X-0.150000X0.875000X-0.150000X-0.875000X0.150000X-0.875000X0.150000X0.875000X0*%
%ADD21RoundRect,0.150000X0.150000X-0.825000X0.150000X0.825000X-0.150000X0.825000X-0.150000X-0.825000X0*%
%ADD22RoundRect,0.200000X-0.275000X0.200000X-0.275000X-0.200000X0.275000X-0.200000X0.275000X0.200000X0*%
%ADD23RoundRect,0.225000X0.250000X-0.225000X0.250000X0.225000X-0.250000X0.225000X-0.250000X-0.225000X0*%
%ADD24RoundRect,0.225000X-0.250000X0.225000X-0.250000X-0.225000X0.250000X-0.225000X0.250000X0.225000X0*%
%ADD25RoundRect,0.200000X0.275000X-0.200000X0.275000X0.200000X-0.275000X0.200000X-0.275000X-0.200000X0*%
%ADD26RoundRect,0.218750X-0.218750X-0.256250X0.218750X-0.256250X0.218750X0.256250X-0.218750X0.256250X0*%
%ADD27RoundRect,0.150000X0.150000X-0.587500X0.150000X0.587500X-0.150000X0.587500X-0.150000X-0.587500X0*%
%ADD28RoundRect,0.150000X0.512500X0.150000X-0.512500X0.150000X-0.512500X-0.150000X0.512500X-0.150000X0*%
%ADD29RoundRect,0.250000X-0.625000X0.375000X-0.625000X-0.375000X0.625000X-0.375000X0.625000X0.375000X0*%
%ADD30RoundRect,0.200000X-0.200000X-0.275000X0.200000X-0.275000X0.200000X0.275000X-0.200000X0.275000X0*%
%ADD31RoundRect,0.225000X0.225000X0.250000X-0.225000X0.250000X-0.225000X-0.250000X0.225000X-0.250000X0*%
%ADD32R,1.100000X1.300000*%
%ADD33RoundRect,0.218750X0.026517X-0.335876X0.335876X-0.026517X-0.026517X0.335876X-0.335876X0.026517X0*%
%ADD34R,1.500000X2.000000*%
%ADD35R,3.800000X2.000000*%
%ADD36RoundRect,0.150000X0.150000X-0.512500X0.150000X0.512500X-0.150000X0.512500X-0.150000X-0.512500X0*%
%ADD37RoundRect,0.250000X-0.650000X1.000000X-0.650000X-1.000000X0.650000X-1.000000X0.650000X1.000000X0*%
%ADD38R,1.700000X1.700000*%
%ADD39O,1.700000X1.700000*%
%ADD40R,1.600000X1.600000*%
%ADD41C,1.600000*%
%ADD42C,4.000000*%
%ADD43RoundRect,0.218750X0.256250X-0.218750X0.256250X0.218750X-0.256250X0.218750X-0.256250X-0.218750X0*%
%ADD44RoundRect,0.050000X0.387500X0.050000X-0.387500X0.050000X-0.387500X-0.050000X0.387500X-0.050000X0*%
%ADD45RoundRect,0.050000X0.050000X0.387500X-0.050000X0.387500X-0.050000X-0.387500X0.050000X-0.387500X0*%
%ADD46R,5.600000X5.600000*%
G04 APERTURE END LIST*
D10*
%TO.C,C12*%
X174305000Y-85370000D03*
X175855000Y-85370000D03*
%TD*%
D11*
%TO.C,R1*%
X132007500Y-134958750D03*
X130357500Y-134958750D03*
%TD*%
D12*
%TO.C,FB1*%
X144537500Y-127740000D03*
X142962500Y-127740000D03*
%TD*%
D13*
%TO.C,J2*%
X163210000Y-77400000D03*
X150000000Y-65000000D03*
X136792000Y-77400000D03*
D14*
X156284999Y-77399999D03*
D15*
X152095000Y-77400000D03*
X147905000Y-77400000D03*
X143715000Y-77400000D03*
X143715000Y-71000000D03*
X147905000Y-71000000D03*
X152095000Y-71000000D03*
X156285000Y-71000000D03*
%TD*%
D10*
%TO.C,C14*%
X122475000Y-102300000D03*
X124025000Y-102300000D03*
%TD*%
D16*
%TO.C,X1*%
X140984999Y-135884999D03*
X140984999Y-134234999D03*
X139434999Y-134234999D03*
X139434999Y-135884999D03*
%TD*%
D17*
%TO.C,R25*%
X154925059Y-137016262D03*
X153758333Y-138182988D03*
%TD*%
D18*
%TO.C,SW3*%
X160749999Y-101274999D03*
X160749999Y-109224999D03*
X156249999Y-101274999D03*
X156249999Y-109224999D03*
%TD*%
D19*
%TO.C,Q1*%
X158074999Y-119099999D03*
X158074999Y-119749999D03*
X158074999Y-120399999D03*
X159974999Y-120399999D03*
X159974999Y-119749999D03*
X159974999Y-119099999D03*
%TD*%
D11*
%TO.C,R6*%
X134075000Y-93250000D03*
X132425000Y-93250000D03*
%TD*%
D20*
%TO.C,U8*%
X136830000Y-100600000D03*
X135560000Y-100600000D03*
X134290000Y-100600000D03*
X133020000Y-100600000D03*
X131750000Y-100600000D03*
X130480000Y-100600000D03*
X129210000Y-100600000D03*
X127940000Y-100600000D03*
X126670000Y-100600000D03*
X126670000Y-109900000D03*
X127940000Y-109900000D03*
X129210000Y-109900000D03*
X130480000Y-109900000D03*
X131750000Y-109900000D03*
X133020000Y-109900000D03*
X134290000Y-109900000D03*
X135560000Y-109900000D03*
X136830000Y-109900000D03*
%TD*%
D21*
%TO.C,U5*%
X136095000Y-94225000D03*
X137365000Y-94225000D03*
X138635000Y-94225000D03*
X139905000Y-94225000D03*
X139905000Y-89275000D03*
X138635000Y-89275000D03*
X137365000Y-89275000D03*
X136095000Y-89275000D03*
%TD*%
D22*
%TO.C,R9*%
X148180000Y-111915000D03*
X148180000Y-113565000D03*
%TD*%
D23*
%TO.C,C2*%
X132770000Y-121775000D03*
X132770000Y-120225000D03*
%TD*%
D11*
%TO.C,R5*%
X159850000Y-117500000D03*
X158200000Y-117500000D03*
%TD*%
D24*
%TO.C,C17*%
X138150000Y-131210000D03*
X138150000Y-132760000D03*
%TD*%
D21*
%TO.C,U4*%
X126595000Y-94225000D03*
X127865000Y-94225000D03*
X129135000Y-94225000D03*
X130405000Y-94225000D03*
X130405000Y-89275000D03*
X129135000Y-89275000D03*
X127865000Y-89275000D03*
X126595000Y-89275000D03*
%TD*%
D23*
%TO.C,C9*%
X136920000Y-113525000D03*
X136920000Y-111975000D03*
%TD*%
D11*
%TO.C,R2*%
X144582500Y-131800000D03*
X142932500Y-131800000D03*
%TD*%
D25*
%TO.C,R19*%
X158500000Y-101100000D03*
X158500000Y-99450000D03*
%TD*%
%TO.C,R22*%
X136050000Y-136825000D03*
X136050000Y-135175000D03*
%TD*%
D26*
%TO.C,D6*%
X132462500Y-94750000D03*
X134037500Y-94750000D03*
%TD*%
%TO.C,D8*%
X122962500Y-94750000D03*
X124537500Y-94750000D03*
%TD*%
D27*
%TO.C,D5*%
X147550000Y-86937500D03*
X149450000Y-86937500D03*
X148500000Y-85062500D03*
%TD*%
D21*
%TO.C,U3*%
X162055000Y-121475000D03*
X163325000Y-121475000D03*
X164595000Y-121475000D03*
X165865000Y-121475000D03*
X167135000Y-121475000D03*
X168405000Y-121475000D03*
X169675000Y-121475000D03*
X170945000Y-121475000D03*
X170945000Y-116525000D03*
X169675000Y-116525000D03*
X168405000Y-116525000D03*
X167135000Y-116525000D03*
X165865000Y-116525000D03*
X164595000Y-116525000D03*
X163325000Y-116525000D03*
X162055000Y-116525000D03*
%TD*%
D25*
%TO.C,R3*%
X126590000Y-87095000D03*
X126590000Y-85445000D03*
%TD*%
D28*
%TO.C,Q2*%
X162000000Y-93900000D03*
X162000000Y-92000000D03*
X159725000Y-92950000D03*
%TD*%
D18*
%TO.C,SW2*%
X168749999Y-101274999D03*
X168749999Y-109224999D03*
X164249999Y-101274999D03*
X164249999Y-109224999D03*
%TD*%
D29*
%TO.C,F1*%
X159942500Y-87510000D03*
X159942500Y-90310000D03*
%TD*%
D30*
%TO.C,R11*%
X142175000Y-91750000D03*
X143825000Y-91750000D03*
%TD*%
D31*
%TO.C,C27*%
X140975000Y-137290000D03*
X139425000Y-137290000D03*
%TD*%
D10*
%TO.C,C25*%
X145865000Y-126390000D03*
X147415000Y-126390000D03*
%TD*%
D22*
%TO.C,R20*%
X155740000Y-87665000D03*
X155740000Y-89315000D03*
%TD*%
%TO.C,R23*%
X137380000Y-135165000D03*
X137380000Y-136815000D03*
%TD*%
D32*
%TO.C,X3*%
X122424999Y-104199999D03*
X122424999Y-106299999D03*
X124074999Y-106299999D03*
X124074999Y-104199999D03*
%TD*%
D25*
%TO.C,R10*%
X145840000Y-87095000D03*
X145840000Y-85445000D03*
%TD*%
D10*
%TO.C,C26*%
X145865000Y-127740000D03*
X147415000Y-127740000D03*
%TD*%
D23*
%TO.C,C1*%
X131420000Y-121775000D03*
X131420000Y-120225000D03*
%TD*%
D26*
%TO.C,D7*%
X142212500Y-94750000D03*
X143787500Y-94750000D03*
%TD*%
D33*
%TO.C,D12*%
X152724189Y-137095812D03*
X153837883Y-135982118D03*
%TD*%
D34*
%TO.C,U9*%
X176599999Y-87549999D03*
X174299999Y-87549999D03*
D35*
X174299999Y-93849999D03*
D34*
X171999999Y-87549999D03*
%TD*%
D10*
%TO.C,C5*%
X137175000Y-96250000D03*
X138725000Y-96250000D03*
%TD*%
D36*
%TO.C,U1*%
X166850000Y-126637500D03*
X167800000Y-126637500D03*
X168750000Y-126637500D03*
X168750000Y-124362500D03*
X167800000Y-124362500D03*
X166850000Y-124362500D03*
%TD*%
D34*
%TO.C,U10*%
X169099999Y-87549999D03*
X166799999Y-87549999D03*
D35*
X166799999Y-93849999D03*
D34*
X164499999Y-87549999D03*
%TD*%
D24*
%TO.C,C8*%
X136200000Y-131210000D03*
X136200000Y-132760000D03*
%TD*%
D11*
%TO.C,R16*%
X131994776Y-130718463D03*
X130344776Y-130718463D03*
%TD*%
D30*
%TO.C,R8*%
X122925000Y-91750000D03*
X124575000Y-91750000D03*
%TD*%
D37*
%TO.C,D1*%
X174000000Y-117000000D03*
X174000000Y-121000000D03*
%TD*%
D31*
%TO.C,C13*%
X164495000Y-85370000D03*
X162945000Y-85370000D03*
%TD*%
D23*
%TO.C,C24*%
X139435000Y-132760000D03*
X139435000Y-131210000D03*
%TD*%
D26*
%TO.C,D9*%
X130382276Y-132218463D03*
X131957276Y-132218463D03*
%TD*%
D23*
%TO.C,C7*%
X149680000Y-113515000D03*
X149680000Y-111965000D03*
%TD*%
D27*
%TO.C,D4*%
X137800000Y-86937500D03*
X139700000Y-86937500D03*
X138750000Y-85062500D03*
%TD*%
D38*
%TO.C,JP1*%
X142999999Y-83959999D03*
D39*
X142999999Y-86499999D03*
X142999999Y-89039999D03*
%TD*%
D10*
%TO.C,C10*%
X146925000Y-96250000D03*
X148475000Y-96250000D03*
%TD*%
D22*
%TO.C,R21*%
X137000000Y-116145000D03*
X137000000Y-117795000D03*
%TD*%
D40*
%TO.C,J1*%
X167749999Y-130212499D03*
D41*
X165250000Y-130212500D03*
X165250000Y-132212500D03*
X167750000Y-132212500D03*
D42*
X172500000Y-135072500D03*
X160500000Y-135072500D03*
%TD*%
D10*
%TO.C,C3*%
X158250000Y-116000000D03*
X159800000Y-116000000D03*
%TD*%
D30*
%TO.C,R12*%
X132425000Y-91750000D03*
X134075000Y-91750000D03*
%TD*%
D10*
%TO.C,C28*%
X142982500Y-130450000D03*
X144532500Y-130450000D03*
%TD*%
D33*
%TO.C,D11*%
X152803813Y-132617507D03*
X153917507Y-131503813D03*
%TD*%
D25*
%TO.C,R7*%
X136100000Y-87085000D03*
X136100000Y-85435000D03*
%TD*%
D43*
%TO.C,D10*%
X157240000Y-89277500D03*
X157240000Y-87702500D03*
%TD*%
D11*
%TO.C,R15*%
X124575000Y-93250000D03*
X122925000Y-93250000D03*
%TD*%
D25*
%TO.C,R18*%
X166500000Y-101100000D03*
X166500000Y-99450000D03*
%TD*%
D18*
%TO.C,SW1*%
X176749999Y-101274999D03*
X176749999Y-109224999D03*
X172249999Y-101274999D03*
X172249999Y-109224999D03*
%TD*%
D23*
%TO.C,C16*%
X138590000Y-117755000D03*
X138590000Y-116205000D03*
%TD*%
D24*
%TO.C,C18*%
X140730000Y-131215000D03*
X140730000Y-132765000D03*
%TD*%
D22*
%TO.C,R13*%
X135420000Y-111925000D03*
X135420000Y-113575000D03*
%TD*%
D21*
%TO.C,U7*%
X145845000Y-94225000D03*
X147115000Y-94225000D03*
X148385000Y-94225000D03*
X149655000Y-94225000D03*
X149655000Y-89275000D03*
X148385000Y-89275000D03*
X147115000Y-89275000D03*
X145845000Y-89275000D03*
%TD*%
D10*
%TO.C,C11*%
X166795000Y-85370000D03*
X168345000Y-85370000D03*
%TD*%
D38*
%TO.C,JP3*%
X123749999Y-83999999D03*
D39*
X123749999Y-86539999D03*
X123749999Y-89079999D03*
%TD*%
D10*
%TO.C,C23*%
X142975000Y-126390000D03*
X144525000Y-126390000D03*
%TD*%
D26*
%TO.C,D2*%
X130395000Y-136458750D03*
X131970000Y-136458750D03*
%TD*%
D25*
%TO.C,R17*%
X174500000Y-101100000D03*
X174500000Y-99450000D03*
%TD*%
D11*
%TO.C,R14*%
X143825000Y-93250000D03*
X142175000Y-93250000D03*
%TD*%
D44*
%TO.C,U2*%
X141437500Y-127600000D03*
X141437500Y-127200000D03*
X141437500Y-126800000D03*
X141437500Y-126400000D03*
X141437500Y-126000000D03*
X141437500Y-125600000D03*
X141437500Y-125200000D03*
X141437500Y-124800000D03*
X141437500Y-124400000D03*
X141437500Y-124000000D03*
X141437500Y-123600000D03*
X141437500Y-123200000D03*
X141437500Y-122800000D03*
X141437500Y-122400000D03*
D45*
X140600000Y-121562500D03*
X140200000Y-121562500D03*
X139800000Y-121562500D03*
X139400000Y-121562500D03*
X139000000Y-121562500D03*
X138600000Y-121562500D03*
X138200000Y-121562500D03*
X137800000Y-121562500D03*
X137400000Y-121562500D03*
X137000000Y-121562500D03*
X136600000Y-121562500D03*
X136200000Y-121562500D03*
X135800000Y-121562500D03*
X135400000Y-121562500D03*
D44*
X134562500Y-122400000D03*
X134562500Y-122800000D03*
X134562500Y-123200000D03*
X134562500Y-123600000D03*
X134562500Y-124000000D03*
X134562500Y-124400000D03*
X134562500Y-124800000D03*
X134562500Y-125200000D03*
X134562500Y-125600000D03*
X134562500Y-126000000D03*
X134562500Y-126400000D03*
X134562500Y-126800000D03*
X134562500Y-127200000D03*
X134562500Y-127600000D03*
D45*
X135400000Y-128437500D03*
X135800000Y-128437500D03*
X136200000Y-128437500D03*
X136600000Y-128437500D03*
X137000000Y-128437500D03*
X137400000Y-128437500D03*
X137800000Y-128437500D03*
X138200000Y-128437500D03*
X138600000Y-128437500D03*
X139000000Y-128437500D03*
X139400000Y-128437500D03*
X139800000Y-128437500D03*
X140200000Y-128437500D03*
X140600000Y-128437500D03*
D46*
X137999999Y-124999999D03*
%TD*%
D38*
%TO.C,JP2*%
X133249999Y-83999999D03*
D39*
X133249999Y-86539999D03*
X133249999Y-89079999D03*
%TD*%
D23*
%TO.C,C15*%
X135650000Y-117745000D03*
X135650000Y-116195000D03*
%TD*%
D17*
%TO.C,R24*%
X152883363Y-130416637D03*
X151716637Y-131583363D03*
%TD*%
D25*
%TO.C,R26*%
X133010000Y-113575000D03*
X133010000Y-111925000D03*
%TD*%
D10*
%TO.C,C6*%
X142977500Y-129100000D03*
X144527500Y-129100000D03*
%TD*%
D20*
%TO.C,U6*%
X149580000Y-100600000D03*
X148310000Y-100600000D03*
X147040000Y-100600000D03*
X145770000Y-100600000D03*
X144500000Y-100600000D03*
X143230000Y-100600000D03*
X141960000Y-100600000D03*
X140690000Y-100600000D03*
X139420000Y-100600000D03*
X139420000Y-109900000D03*
X140690000Y-109900000D03*
X141960000Y-109900000D03*
X143230000Y-109900000D03*
X144500000Y-109900000D03*
X145770000Y-109900000D03*
X147040000Y-109900000D03*
X148310000Y-109900000D03*
X149580000Y-109900000D03*
%TD*%
D27*
%TO.C,D3*%
X128300000Y-86937500D03*
X130200000Y-86937500D03*
X129250000Y-85062500D03*
%TD*%
D30*
%TO.C,R4*%
X158200000Y-122000000D03*
X159850000Y-122000000D03*
%TD*%
D10*
%TO.C,C4*%
X127725000Y-96230000D03*
X129275000Y-96230000D03*
%TD*%
M02*
